<?xml version="1.0" encoding="UTF-8"?>
<svg id="Layer_1" data-name="Layer 1" xmlns="http://www.w3.org/2000/svg" viewBox="0 0 1594 119">
  <defs>
    <style>
      .cls-1 {
        fill: #fff;
      }
    </style>
  </defs>
  <g>
    <path d="M720.12,110.38h-30.52c-5.54,0-10.8-2.41-14.41-6.61-1.17-1.36-2.13-2.86-2.86-4.45-3.35,2.69-7.54,4.18-11.89,4.18h-2.12c-4.35,0-8.54-1.49-11.89-4.18-.73,1.58-1.67,3.07-2.83,4.42-3.61,4.22-8.88,6.65-14.44,6.65h-30.51c-5.58,0-10.89-2.46-14.5-6.72-3.61-4.26-5.16-9.89-4.25-15.4.5-3.03.87-6.63,1.09-10.72h0c.24-4.45.36-10.81.36-18.88s-.12-14.43-.36-18.89c-.22-4.08-.58-7.69-1.09-10.72-.92-5.52.64-11.16,4.26-15.42,3.61-4.25,8.91-6.7,14.48-6.7h.05l34.85.09c5.68.01,11.06,2.57,14.65,6.96,1.32,1.62,2.76,3.28,4.27,4.93.1.11.19.21.29.32,2.06,2.37,4.33,4.86,6.76,7.43,2.36-2.52,4.6-5,6.69-7.38l2.5-2.88c.57-.66,1.38-1.59,2.43-2.81,3.6-4.17,8.83-6.57,14.33-6.58l34.6-.09h.05c5.58,0,10.87,2.45,14.48,6.7,3.62,4.26,5.18,9.91,4.26,15.42-.5,3.02-.87,6.62-1.08,10.71-.24,4.47-.36,10.82-.36,18.89s.12,14.42.36,18.88c.22,4.09.58,7.7,1.08,10.71.92,5.51-.63,11.14-4.24,15.41-3.61,4.26-8.91,6.72-14.5,6.72Z"/>
    <path d="M770.52,112.08c-10.93,0-20.22-1.05-28.41-3.23,0,0,0,0,0,0-9.85-2.61-17.83-7-23.73-13.04-6.95-7.13-10.63-16.33-10.63-26.62s3.39-18.96,9.8-26.09c5.66-6.3,13.45-10.93,23.15-13.77,8.12-2.37,17.34-3.53,28.2-3.53s20.95,1.41,29.36,4.31c10.03,3.47,17.88,9.01,23.34,16.48,5.78,7.92,8.42,17.39,7.84,28.13-.2,3.76-1.49,7.21-3.54,10.07.82,3.2.81,6.61-.12,9.9-1.86,6.57-7.1,11.63-13.73,13.26-5.04,1.24-11.14,2.23-18.67,3-7.19.74-14.88,1.12-22.86,1.12Z"/>
    <path d="M903.04,110.38h-29.83c-5.24,0-10.23-2.16-13.81-5.95-3.58,3.79-8.57,5.95-13.81,5.95h-29.67c-5.67,0-11.04-2.53-14.65-6.9s-5.08-10.12-4.01-15.68c.42-2.17.72-4.61.89-7.27h0c.2-3.03.3-6.93.3-11.59,0-4.24-.12-7.96-.37-11.05-.23-2.9-.57-5.55-1.01-7.87-1.05-5.56.44-11.29,4.05-15.64s8.97-6.87,14.62-6.87h26.95c2.65,0,5.18.54,7.48,1.53,6.02-2.17,12.91-3.23,20.91-3.23,10.61,0,19.33,1.89,26.68,5.77,8.04,4.25,14.01,10.15,17.74,17.56,3.27,6.49,4.92,13.64,4.92,21.26v1.7c0,5,.16,7.67.29,9.02.2,2.05.53,4.32.99,6.75,1.05,5.56-.43,11.3-4.04,15.65-3.61,4.36-8.97,6.88-14.63,6.88Z"/>
    <path d="M940.01,112.08c-10.61,0-19.33-1.89-26.68-5.77-8.04-4.25-14.01-10.16-17.74-17.56-3.26-6.48-4.92-13.63-4.92-21.25v-1.7c0-4.99-.16-7.66-.29-9.03-.2-2.03-.53-4.3-.99-6.74-1.05-5.56.43-11.29,4.04-15.65,3.61-4.35,8.97-6.87,14.63-6.87h29.83c5.24,0,10.23,2.17,13.81,5.95,3.58-3.79,8.57-5.95,13.81-5.95h29.67c5.67,0,11.04,2.53,14.65,6.9s5.08,10.12,4.01,15.69c-.42,2.17-.72,4.61-.89,7.25,0,0,0,.01,0,.02-.2,3.01-.3,6.91-.3,11.59,0,4.25.12,7.97.37,11.05.23,2.9.57,5.55,1,7.87,1.05,5.56-.43,11.29-4.04,15.65-3.61,4.35-8.97,6.87-14.63,6.87h-26.95c-2.65,0-5.18-.54-7.48-1.53-6.02,2.17-12.91,3.23-20.91,3.23Z"/>
  </g>
  <g>
    <path class="cls-1" d="M600.16,78.54c.26-4.82.38-11.45.38-19.89s-.13-15.07-.38-19.89c-.25-4.82-.69-9.09-1.32-12.83l34.85.08c1.53,1.87,3.17,3.77,4.93,5.7,2.66,3.06,5.61,6.28,8.84,9.65,3.23,3.37,7.08,7.24,11.56,11.6h1.45c4.36-4.25,8.13-8.05,11.3-11.39,3.17-3.34,6.15-6.6,8.92-9.78,1.13-1.3,1.98-2.28,2.55-2.93.57-.65,1.39-1.6,2.46-2.85l34.6-.08c-.62,3.74-1.06,8.02-1.32,12.83-.25,4.82-.38,11.45-.38,19.89s.13,15.07.38,19.89c.26,4.82.69,9.09,1.32,12.83h-30.52c.57-3.74.98-8.03,1.23-12.88.26-4.84.38-11.54.38-20.1v-3.48h-1.62c-4.7,4.48-7.65,7.31-8.84,8.5-3.12,3.06-6.28,6.25-9.48,9.56-3.2,3.31-6.81,7.15-10.84,11.52h-2.12c-6.57-7.08-13.01-13.71-19.29-19.89-1.3-1.36-4.59-4.53-9.86-9.52h-1.61v3.31c0,8.5.13,15.22.38,20.15.26,4.93.67,9.21,1.23,12.83h-30.51c.62-3.74,1.06-8.02,1.32-12.83Z"/>
    <path class="cls-1" d="M747.17,90.48c-6.52-1.73-11.52-4.38-15-7.95-3.49-3.57-5.23-8.02-5.23-13.34s1.64-9.73,4.93-13.39c3.29-3.66,8.08-6.4,14.36-8.25,6.29-1.84,13.91-2.76,22.87-2.76s16.84,1.09,23.16,3.27c6.32,2.18,11.05,5.43,14.2,9.73,3.15,4.31,4.55,9.61,4.21,15.9-11.05,0-23.3.08-36.76.25-13.46.17-21.97.37-25.54.59l-.17-10.54c6.18.23,13.06.34,20.66.34s14.71-.17,21.33-.51l-6.88.93c-.34-1.42-1.11-2.63-2.29-3.65-1.19-1.02-2.85-1.8-4.97-2.34-2.12-.54-4.72-.81-7.78-.81s-5.74.27-7.86.81c-2.12.54-3.77,1.3-4.93,2.29-1.16.99-1.94,2.2-2.34,3.61v8.16c.4,1.3,1.3,2.41,2.72,3.32,1.42.91,3.5,1.59,6.25,2.04,2.75.45,6.25.68,10.5.68,4.7,0,8.85-.3,12.45-.89,3.6-.59,6.5-1.49,8.71-2.68l13.94,14.2c-4.14,1.02-9.49,1.87-16.06,2.55-6.57.68-13.54,1.02-20.91,1.02-9.18,0-17.03-.87-23.54-2.59Z"/>
    <path class="cls-1" d="M817.29,81.77c.23-3.46.34-7.73.34-12.83,0-4.76-.14-8.94-.42-12.54-.28-3.6-.71-6.9-1.27-9.9h26.94l.68,9.18h1.78c2.04-3.34,5.18-5.99,9.43-7.95s9.75-2.93,16.49-2.93c7.37,0,13.3,1.19,17.81,3.57s7.72,5.48,9.65,9.31c1.93,3.82,2.89,8.06,2.89,12.71v1.7c0,4.65.13,8.27.38,10.88.25,2.61.66,5.41,1.23,8.42h-29.84c.45-2.72.78-5.28.98-7.69.2-2.41.3-5.11.3-8.12,0-2.49-.45-4.72-1.36-6.67-.91-1.96-2.42-3.54-4.55-4.76-2.12-1.22-4.94-1.83-8.46-1.83-5.1,0-9.01,1.26-11.73,3.78-2.72,2.52-4.08,5.82-4.08,9.9v1.87c.06,2.27.18,4.5.38,6.71.2,2.21.5,4.48.89,6.8h-29.66c.56-2.95.96-6.15,1.19-9.61Z"/>
    <path class="cls-1" d="M994.17,56.1c-.23,3.46-.34,7.74-.34,12.83,0,4.76.14,8.94.42,12.54.28,3.6.71,6.9,1.28,9.9h-26.95l-.68-9.18h-1.79c-2.04,3.34-5.19,5.99-9.44,7.95s-9.75,2.93-16.49,2.93c-7.37,0-13.3-1.19-17.81-3.57-4.51-2.38-7.72-5.48-9.65-9.31s-2.89-8.06-2.89-12.71v-1.7c0-4.65-.13-8.27-.38-10.88-.26-2.61-.67-5.41-1.23-8.42h29.83c-.45,2.72-.78,5.28-.98,7.69-.2,2.41-.3,5.11-.3,8.12,0,2.49.45,4.72,1.36,6.67.91,1.96,2.42,3.54,4.55,4.76,2.12,1.22,4.94,1.83,8.46,1.83,5.1,0,9.01-1.26,11.73-3.78,2.72-2.52,4.08-5.82,4.08-9.9v-1.87c-.06-2.27-.18-4.5-.38-6.71-.2-2.21-.5-4.48-.89-6.8h29.67c-.57,2.95-.96,6.15-1.19,9.6Z"/>
  </g>
</svg>