<?xml version="1.0" encoding="UTF-8"?>
<svg id="Layer_1" data-name="Layer 1" xmlns="http://www.w3.org/2000/svg" viewBox="0 0 1594 119">
  <defs>
    <style>
      .cls-1 {
        fill: #fff;
      }
    </style>
  </defs>
  <path d="M857.43,111.23h-40.8c-5.88,0-11.44-2.73-15.03-7.38-1.47-1.9-3.18-3.88-5.08-5.89-.14.15-.28.29-.41.43-1.69,1.77-3.21,3.55-4.52,5.29-3.59,4.75-9.2,7.55-15.16,7.55h-39.87c-8.06,0-15.24-5.08-17.92-12.68s-.28-16.06,5.99-21.11c3.76-3.03,8.02-6.5,12.67-10.31,2.95-2.42,6.31-5.21,10.05-8.35-.55-.46-1.09-.9-1.61-1.33-5.73-4.73-11.08-9.07-15.9-12.89-.84-.67-1.42-1.13-1.8-1.43-.3-.24-.77-.58-1.39-1.04-6.62-4.86-9.36-13.43-6.8-21.23,2.56-7.8,9.84-13.08,18.05-13.08h40.46c5.99,0,11.62,2.82,15.21,7.61.75,1,1.63,2.08,2.62,3.22.37.42.74.85,1.12,1.27,1.25-1.42,2.4-2.85,3.42-4.26,3.57-4.93,9.29-7.84,15.38-7.84h39.95c8.11,0,15.33,5.15,17.97,12.82,2.64,7.67.11,16.17-6.28,21.16-5.51,4.29-11.29,8.93-17.17,13.77-1.2.99-2.53,2.08-3.96,3.27.98.82,1.92,1.61,2.83,2.38,6.55,5.49,11.98,9.94,16.15,13.24,1.39,1.06,2.78,2.18,4.13,3.33,6.07,5.16,8.28,13.56,5.54,21.03-2.75,7.48-9.87,12.45-17.83,12.45Z"/>
  <path class="cls-1" d="M749.54,81.81c4.73-3.88,10.38-8.6,16.96-14.15,3.57-3,6.22-5.23,7.95-6.67,1.73-1.45,4.32-3.61,7.78-6.5l-.08,8.67c-10.2-8.73-18.23-15.51-24.1-20.36-5.86-4.84-11.26-9.22-16.19-13.13-.85-.68-1.47-1.18-1.87-1.49-.4-.31-1.02-.78-1.87-1.4h40.46c1.02,1.36,2.18,2.79,3.49,4.29,1.3,1.5,2.66,3.02,4.08,4.55,1.02,1.02,4.59,4.62,10.71,10.79h1.61c.74-.74,1.28-1.27,1.62-1.61s.85-.88,1.53-1.62c4.08-4.19,7.14-7.41,9.18-9.65,2.04-2.24,3.88-4.49,5.52-6.76h39.95c-5.67,4.42-11.52,9.11-17.55,14.07-6.04,4.96-14.89,12.37-26.56,22.23v-8.67c10.03,8.5,18.46,15.61,25.29,21.33,6.83,5.72,12.4,10.29,16.7,13.69,1.19.91,2.35,1.84,3.48,2.8h-40.8c-1.93-2.49-4.11-5.01-6.54-7.57-2.44-2.55-5.98-6.09-10.62-10.62-.34-.34-.68-.69-1.02-1.06-.34-.37-.71-.72-1.1-1.06h-1.61c-1.19,1.19-2.41,2.38-3.66,3.57-4.31,4.25-7.55,7.52-9.73,9.82s-4.15,4.6-5.91,6.93h-39.87c3.79-3.06,8.06-6.53,12.79-10.41Z"/>
</svg>