<?xml version="1.0" encoding="UTF-8"?>
<svg id="Layer_1" data-name="Layer 1" xmlns="http://www.w3.org/2000/svg" viewBox="0 0 2734 114">
  <defs>
    <style>
      .cls-1 {
        fill: none;
      }

      .cls-2 {
        fill: #fff;
      }
    </style>
  </defs>
  <g>
    <path d="M1100.22,60.6h-4.76c-4.08,0-7.88-2.08-10.09-5.51-.16-.24-.31-.49-.45-.74-2.04,3.72-5.99,6.25-10.53,6.25h-4.4c-6.63,0-12-5.37-12-12v-31.2c0-6.63,5.37-12,12-12h17.56c3.84,0,7.39.73,10.53,2.18,3.63,1.67,6.54,4.15,8.64,7.37,2.1,3.22,3.22,7.03,3.23,11.01.03,3.05-.57,5.94-1.75,8.54.31.99.58,2.03.81,3.15.53,2.52.87,3.52.96,3.76.08.22.14.37.18.45,2.46,3.63,2.76,8.32.75,12.23-2.06,4-6.18,6.51-10.67,6.51ZM1110.19,41.93h0ZM1109.98,41.62s0,0,0,0c0,0,0,0,0,0Z"/>
    <path d="M1116.78,61.32c-4.57,0-8.8-1.12-12.57-3.31-3.77-2.2-6.76-5.22-8.89-8.99-2.11-3.72-3.18-7.83-3.18-12.21s1.07-8.49,3.18-12.22c2.13-3.77,5.13-6.79,8.89-8.99,3.77-2.2,8-3.32,12.57-3.32s8.8,1.12,12.57,3.32c3.77,2.2,6.76,5.22,8.89,8.99,2.11,3.72,3.18,7.83,3.18,12.22s-1.07,8.49-3.18,12.22c-2.13,3.77-5.12,6.79-8.89,8.99-3.77,2.2-8,3.31-12.57,3.31Z"/>
    <path d="M1157.98,60.6h-4c-2.77,0-5.33-.94-7.36-2.52-2.03,1.58-4.59,2.52-7.36,2.52h-4c-6.63,0-12-5.37-12-12v-31.2c0-6.63,5.37-12,12-12h4c4.85,0,9.02,2.87,10.92,7.01,2.66.26,5.18.9,7.52,1.93,3.66,1.62,6.73,4.2,8.9,7.47,2.25,3.38,3.38,7.33,3.38,11.72v15.08c0,6.63-5.37,12-12,12Z"/>
    <path d="M1187.86,60.6h-4.92c-2.56,0-5.01-.81-7.04-2.28-1.98,1.43-4.41,2.28-7.04,2.28h-4c-6.63,0-12-5.37-12-12v-31.2c0-6.63,5.37-12,12-12h4c5.13,0,9.5,3.22,11.22,7.74.6-.09,1.21-.14,1.82-.14h4.72c4.93,0,9.36,3.02,11.17,7.61,1.81,4.59.62,9.82-2.99,13.18l-1.95,1.82,4.4,5.51c2.88,3.6,3.43,8.54,1.43,12.69-2,4.15-6.2,6.79-10.81,6.79Z"/>
    <path d="M1201.66,61.32c-4.6,0-8.84-1.12-12.61-3.31-3.79-2.21-6.79-5.25-8.91-9.05-2.07-3.71-3.13-7.8-3.13-12.16s1.05-8.45,3.13-12.16c2.11-3.78,5.09-6.82,8.85-9.03,3.76-2.21,8-3.33,12.58-3.33s8.81,1.12,12.58,3.33c3.76,2.21,6.74,5.25,8.85,9.03,2.08,3.71,3.13,7.79,3.13,12.12,0,.96-.11,1.9-.33,2.8.03,1-.06,2.01-.28,3-.86,3.88-2.59,7.33-5.13,10.26-2.4,2.76-5.31,4.91-8.66,6.37-3.22,1.41-6.61,2.12-10.09,2.12Z"/>
    <path d="M1257.02,60.6h-4c-2.31,0-4.47-.65-6.3-1.79-1.83,1.13-3.99,1.79-6.3,1.79h-4c-2.31,0-4.47-.65-6.3-1.79-1.83,1.13-3.99,1.79-6.3,1.79h-4c-6.63,0-12-5.37-12-12v-23.6c0-6.63,5.37-12,12-12h4c.45,0,.9.03,1.34.07,1.94-.53,4.01-.79,6.18-.79,2.8,0,5.47.47,7.97,1.41,2.52-.94,5.29-1.41,8.27-1.41,3.35,0,6.55.65,9.5,1.94,3.53,1.54,6.4,3.89,8.54,7,2.22,3.23,3.4,7.17,3.4,11.39v16c0,6.63-5.37,12-12,12Z"/>
    <path d="M1282.22,60.6h-4c-6.63,0-12-5.37-12-12v-23.6c0-.76.07-1.51.21-2.23-.48-1.46-.73-3-.73-4.57,0-3.96,1.56-7.66,4.39-10.42,2.74-2.67,6.37-4.14,10.21-4.14s7.46,1.47,10.21,4.14c2.83,2.76,4.39,6.46,4.39,10.42,0,1.69-.29,3.33-.83,4.88.1.62.15,1.26.15,1.92v23.6c0,6.63-5.37,12-12,12Z"/>
    <path d="M1312.1,60.6h-4c-2.77,0-5.33-.94-7.36-2.52-2.03,1.58-4.59,2.52-7.36,2.52h-4c-6.63,0-12-5.37-12-12v-23.6c0-6.63,5.37-12,12-12h4c.56,0,1.11.04,1.64.11,2.06-.55,4.27-.83,6.6-.83,3.66,0,7.09.69,10.19,2.06,3.66,1.62,6.73,4.2,8.9,7.47,2.25,3.38,3.38,7.33,3.38,11.72v15.08c0,6.63-5.37,12-12,12Z"/>
    <path d="M1324.54,60.6h-4.16c-6.63,0-12-5.37-12-12v-12.04c-2.39-2.19-3.88-5.34-3.88-8.84v-2.72c0-4.67,2.66-8.71,6.55-10.69.8-1.46,1.77-2.77,2.93-3.93,2.57-2.6,7.27-5.69,15-5.69,1.71,0,3.18.13,4.51.39,5.61,1.12,9.65,6.05,9.65,11.77v2.88c0,1.18-.17,2.33-.5,3.43.09.6.14,1.22.14,1.85v2.72c0,4.54-2.52,8.49-6.24,10.53v10.35c0,6.63-5.37,12-12,12Z"/>
    <path d="M1345.74,61.32c-4.57,0-8.8-1.12-12.57-3.31-3.77-2.2-6.76-5.22-8.89-8.99-2.11-3.72-3.18-7.83-3.18-12.21s1.07-8.49,3.18-12.22c2.13-3.77,5.13-6.79,8.89-8.99,3.77-2.2,8-3.32,12.57-3.32s8.8,1.12,12.57,3.32c3.77,2.2,6.76,5.22,8.89,8.99,2.11,3.72,3.18,7.83,3.18,12.22s-1.07,8.49-3.18,12.22c-2.13,3.77-5.12,6.79-8.89,8.99-3.77,2.2-8,3.31-12.57,3.31Z"/>
    <path d="M1370.66,61.32c-6.7,0-10.79-2.92-13.05-5.37,0,0,0,0,0,0-2.07-2.25-4.55-6.21-4.55-12.22v-7.43c-2.22-2.18-3.6-5.21-3.6-8.57v-2.72c0-3.7,1.67-7,4.3-9.2,1.65-4.6,6.02-7.91,11.18-7.96l4-.04c3.19-.05,6.29,1.22,8.56,3.47.85.84,1.55,1.79,2.11,2.81,4.13,1.89,7.01,6.07,7.01,10.92v2.72c0,3.66-1.63,6.93-4.21,9.13,1.4,1.24,2.5,2.79,3.21,4.56l.92,2.32c2.27,5.73-.16,12.24-5.63,15.08-1.54.8-3.19,1.42-4.89,1.85-1.75.44-3.55.66-5.35.66Z"/>
    <path d="M1392.1,68.6c-2.18,0-4.23-.43-6.09-1.28-4.53-2.06-7.31-6.7-7.01-11.66l.16-2.6c.2-3.21,1.67-6.18,4.06-8.28v-19.78c0-.65.05-1.29.15-1.92-.55-1.55-.83-3.2-.83-4.88,0-3.96,1.56-7.66,4.39-10.42,2.74-2.67,6.37-4.14,10.21-4.14s7.46,1.47,10.21,4.14c2.83,2.76,4.39,6.46,4.39,10.42,0,1.58-.25,3.12-.73,4.57.14.72.21,1.47.21,2.23v25.44c0,3.25-.88,6.44-2.55,9.22-1.68,2.8-4.05,5.04-7.04,6.65-2.83,1.52-6.04,2.29-9.53,2.29Z"/>
    <path d="M1416.3,61.32c-3.59,0-6.99-.7-10.12-2.08,0,0,0,0,0,0-3.65-1.61-6.63-4.06-8.86-7.29-2.33-3.37-3.57-7.48-3.57-11.87v-15.08c0-6.63,5.37-12,12-12h4c2.76,0,5.29.93,7.32,2.49,2.03-1.56,4.56-2.49,7.32-2.49h4c6.63,0,12,5.37,12,12v23.6c0,6.63-5.37,12-12,12h-4c-.55,0-1.09-.04-1.61-.11-2.03.55-4.19.83-6.47.83Z"/>
    <path d="M1445.82,61.32c-3.59,0-6.99-.7-10.12-2.08,0,0,0,0,0,0-3.65-1.61-6.63-4.06-8.86-7.29-2.33-3.37-3.57-7.48-3.57-11.87v-15.08c0-6.63,5.37-12,12-12h4c2.76,0,5.29.93,7.32,2.49,2.03-1.56,4.56-2.49,7.32-2.49h4c6.63,0,12,5.37,12,12v23.6c0,6.63-5.37,12-12,12h-4c-.55,0-1.09-.04-1.61-.11-2.03.55-4.19.83-6.47.83Z"/>
    <path d="M1487.66,60.6h-4c-2.77,0-5.33-.94-7.36-2.52-2.03,1.58-4.59,2.52-7.36,2.52h-4c-6.63,0-12-5.37-12-12v-23.6c0-6.63,5.37-12,12-12h4c.56,0,1.11.04,1.64.11,2.06-.55,4.27-.83,6.6-.83,3.66,0,7.09.69,10.19,2.06,3.66,1.61,6.73,4.19,8.9,7.47,2.24,3.38,3.38,7.33,3.38,11.72v15.08c0,6.63-5.37,12-12,12Z"/>
    <path d="M1498.58,60.6h-4c-6.63,0-12-5.37-12-12v-23.6c0-.76.07-1.51.21-2.23-.48-1.46-.73-3-.73-4.57,0-3.96,1.56-7.66,4.39-10.42,2.74-2.67,6.37-4.14,10.21-4.14s7.46,1.47,10.21,4.14c2.83,2.76,4.39,6.46,4.39,10.42,0,1.69-.29,3.33-.83,4.89.1.62.15,1.26.15,1.92v23.6c0,6.63-5.37,12-12,12Z"/>
    <path d="M1516.74,61.32c-5.2,0-9.93-1.15-14.07-3.42-5.74-3.15-9.37-8.48-10.2-15.03-.35-2.73.25-5.48,1.67-7.79-.3-1.27-.45-2.58-.45-3.93,0-4.34,1.55-8.36,4.47-11.62,2.26-2.52,5.15-4.43,8.58-5.68,2.88-1.05,6-1.58,9.27-1.58s6.34.52,9.28,1.56c3.44,1.21,6.41,3.09,8.81,5.59,2.82,2.92,4.64,6.59,5.25,10.6.29,1.92.11,3.86-.5,5.66.73,1.99,1.11,4.13,1.11,6.39,0,4.75-1.8,9.19-5.06,12.49-2.47,2.5-5.55,4.33-9.15,5.44-2.84.87-5.87,1.31-9.03,1.31Z"/>
    <path d="M1572.34,60.6h-24.28c-6.63,0-12-5.37-12-12v-1.76c0-4.58,1.19-8.81,3.46-12.45-.14-.15-.28-.3-.42-.46-2.28-2.63-3.3-6.13-2.8-9.57.54-3.75,1.9-7.17,4.04-10.15,2.25-3.15,5.28-5.59,9-7.27,3.33-1.5,7.12-2.26,11.27-2.26,3.88,0,7.5.67,10.78,1.99,3.83,1.54,6.97,3.86,9.33,6.87,2.7,3.46,4.13,7.64,4.13,12.1,0,4.08-1.21,7.92-3.5,11.1h0c-.1.14-.2.28-.3.41,2.11,2.23,3.29,5.18,3.29,8.25v3.2c0,6.63-5.37,12-12,12Z"/>
    <path d="M1591.78,61.32c-5.27,0-10.05-1.43-14.2-4.26h0c-3.93-2.68-6.98-6.29-9.06-10.74-1.9-4.07-2.87-8.54-2.87-13.28s.97-9.21,2.87-13.29c2.08-4.44,5.12-8.05,9.05-10.73,4.15-2.83,8.93-4.26,14.2-4.26s10.08,1.45,14.21,4.3c3.9,2.69,6.91,6.31,8.95,10.75,1.86,4.04,2.8,8.49,2.8,13.23s-.94,9.19-2.79,13.23c-2.04,4.45-5.05,8.06-8.95,10.75-4.13,2.85-8.92,4.3-14.21,4.3Z"/>
    <path d="M1634.9,60.6h-24.28c-6.63,0-12-5.37-12-12v-1.76c0-4.58,1.19-8.81,3.46-12.45-.14-.15-.28-.3-.42-.46-2.28-2.63-3.3-6.13-2.8-9.57.54-3.75,1.91-7.17,4.05-10.16,2.25-3.14,5.28-5.59,9-7.26,3.33-1.5,7.12-2.26,11.27-2.26,3.88,0,7.5.67,10.78,1.99,3.83,1.54,6.96,3.85,9.33,6.87,2.71,3.46,4.13,7.64,4.13,12.1,0,4.08-1.21,7.91-3.5,11.1,0,0,0,0,0,0-.1.14-.2.27-.3.41,2.11,2.23,3.29,5.18,3.29,8.25v3.2c0,6.63-5.37,12-12,12Z"/>
    <path d="M1652.58,61.32c-3.9,0-7.57-.72-10.91-2.13-3.7-1.57-6.8-3.9-9.2-6.91-2.5-3.14-4.06-6.82-4.62-10.93-.37-2.68.19-5.38,1.53-7.68v-16.27c0-6.63,5.37-12,12-12h21.24c6.63,0,12,5.37,12,12v3.2c0,1.32-.21,2.6-.61,3.79.14.22.28.45.41.67,2.17,3.67,3.28,7.74,3.28,12.1s-1.16,8.58-3.44,12.35c-2.25,3.71-5.36,6.65-9.26,8.75-3.76,2.03-7.94,3.06-12.42,3.06Z"/>
  </g>
  <rect class="cls-1" x="1059.42" y="-.08" width="615.16" height="96.68"/>
  <g>
    <path d="M1069.98,17.4h17.56c2.11,0,3.94.36,5.5,1.08s2.77,1.73,3.62,3.04c.85,1.31,1.28,2.81,1.28,4.52.03,1.97-.5,3.63-1.58,4.96-1.08,1.33-2.63,2.31-4.66,2.92l1.4-2.4v3.92l-.84-1.96c1.39.21,2.45.83,3.2,1.86s1.35,2.62,1.8,4.78c.51,2.4.99,4.23,1.46,5.48.47,1.25.97,2.25,1.5,3h-4.76c-.48-.75-.87-1.64-1.16-2.68-.29-1.04-.73-2.89-1.32-5.56-.4-1.84-1.06-3.25-1.98-4.22s-2.25-1.46-3.98-1.46h-12.6l-.04,13.92h-4.4v-31.2ZM1091.84,30.08c1.05-.99,1.57-2.33,1.54-4.04-.03-1.71-.57-3.05-1.62-4.04-1.05-.99-2.46-1.48-4.22-1.48h-13.16l.04,11.04h13.16c1.79,0,3.21-.49,4.26-1.48Z"/>
    <path d="M1110.26,47.64c-1.92-1.12-3.42-2.63-4.5-4.54-1.08-1.91-1.62-4.01-1.62-6.3s.54-4.39,1.62-6.3,2.58-3.42,4.5-4.54,4.09-1.68,6.52-1.68,4.6.56,6.52,1.68,3.42,2.63,4.5,4.54,1.62,4.01,1.62,6.3-.54,4.39-1.62,6.3c-1.08,1.91-2.58,3.42-4.5,4.54s-4.09,1.68-6.52,1.68-4.6-.56-6.52-1.68ZM1121.32,45.28c1.27-.88,2.23-2.06,2.88-3.54.65-1.48.98-3.13.98-4.94s-.33-3.46-.98-4.94c-.65-1.48-1.61-2.66-2.88-3.54-1.27-.88-2.78-1.32-4.54-1.32s-3.27.44-4.54,1.32c-1.27.88-2.23,2.06-2.88,3.54-.65,1.48-.98,3.13-.98,4.94s.33,3.46.98,4.94c.65,1.48,1.61,2.66,2.88,3.54,1.27.88,2.78,1.32,4.54,1.32s3.27-.44,4.54-1.32Z"/>
    <path d="M1135.26,17.4h4v9.84l2.12.64-2.2.2c.61-1.09,1.64-2,3.08-2.72,1.44-.72,3.19-1.08,5.24-1.08s3.79.35,5.36,1.04c1.57.69,2.82,1.73,3.74,3.12.92,1.39,1.38,3.08,1.38,5.08v15.08h-4v-15.08c0-2.16-.65-3.79-1.96-4.88-1.31-1.09-3-1.64-5.08-1.64-1.73,0-3.31.41-4.74,1.22-1.43.81-2.41,1.77-2.94,2.86v17.52h-4v-31.2Z"/>
    <path d="M1164.86,17.4h4v31.2h-4v-31.2ZM1167.9,38l14-13h4.72l-18.36,17.08-.36-4.08ZM1173.02,36.2l2.68-2.84,12.16,15.24h-4.92l-9.92-12.4Z"/>
    <path d="M1195.1,47.64c-1.92-1.12-3.41-2.63-4.48-4.54-1.07-1.91-1.6-4.01-1.6-6.3s.53-4.39,1.6-6.3c1.07-1.91,2.55-3.42,4.46-4.54,1.91-1.12,4.07-1.68,6.5-1.68s4.59.56,6.5,1.68c1.91,1.12,3.39,2.63,4.46,4.54,1.07,1.91,1.6,3.99,1.6,6.26v.08h-4.16v-.08c0-1.79-.32-3.42-.96-4.9-.64-1.48-1.59-2.66-2.86-3.54-1.27-.88-2.79-1.32-4.58-1.32s-3.31.44-4.58,1.32c-1.27.88-2.22,2.07-2.86,3.56s-.96,3.13-.96,4.92.32,3.43.96,4.92,1.6,2.68,2.88,3.56,2.83,1.32,4.64,1.32c2.24,0,4.19-.61,5.84-1.82,1.65-1.21,2.8-2.82,3.44-4.82h2.88c-.43,1.92-1.25,3.59-2.48,5s-2.69,2.49-4.4,3.24c-1.71.75-3.47,1.12-5.28,1.12-2.45,0-4.64-.56-6.56-1.68ZM1192.18,34.12h19.8v2.72h-19.8v-2.72Z"/>
    <path d="M1219.82,25h4v2.24l.4.12c.61-.91,1.53-1.65,2.76-2.22s2.68-.86,4.36-.86,3.21.33,4.58,1c1.37.67,2.43,1.69,3.18,3.08l-1.96-.24h4.64l-2.56.08c.99-1.28,2.15-2.25,3.48-2.92,1.33-.67,2.96-1,4.88-1,1.71,0,3.28.31,4.72.94,1.44.63,2.59,1.56,3.44,2.8.85,1.24,1.28,2.77,1.28,4.58v16h-4v-16c0-1.63-.55-2.97-1.64-4.02-1.09-1.05-2.52-1.58-4.28-1.58-1.47,0-2.77.37-3.92,1.1-1.15.73-2.07,1.67-2.76,2.82v17.68h-4v-16c0-1.63-.52-2.97-1.56-4.02s-2.39-1.58-4.04-1.58c-1.41,0-2.77.38-4.06,1.14-1.29.76-2.27,1.69-2.94,2.78v17.68h-4v-23.6Z"/>
    <path d="M1278.46,20.06c-.51-.52-.76-1.14-.76-1.86s.25-1.33.76-1.82c.51-.49,1.12-.74,1.84-.74s1.33.25,1.84.74c.51.49.76,1.1.76,1.82s-.25,1.34-.76,1.86c-.51.52-1.12.78-1.84.78s-1.33-.26-1.84-.78ZM1278.22,25h4v23.6h-4v-23.6Z"/>
    <path d="M1289.38,25h4v2.24l2.12.64-2.2.2c.61-1.09,1.64-2,3.08-2.72,1.44-.72,3.19-1.08,5.24-1.08s3.79.35,5.36,1.04c1.57.69,2.82,1.73,3.74,3.12.92,1.39,1.38,3.08,1.38,5.08v15.08h-4v-15.08c0-2.16-.65-3.79-1.96-4.88-1.31-1.09-3-1.64-5.08-1.64-1.73,0-3.31.41-4.74,1.22-1.43.81-2.41,1.77-2.94,2.86v17.52h-4v-23.6Z"/>
    <path d="M1330.78,25v2.72h-14.28v-2.72h14.28ZM1322.5,18.82c1.41-1.43,3.57-2.14,6.48-2.14.91,0,1.63.05,2.16.16v2.88c-.53-.11-1.19-.16-1.96-.16-1.12,0-2.01.17-2.66.5-.65.33-1.15.98-1.48,1.94s-.5,2.35-.5,4.16v22.44h-4.16v-22.44c0-3.47.71-5.91,2.12-7.34Z"/>
    <path d="M1339.22,47.64c-1.92-1.12-3.42-2.63-4.5-4.54-1.08-1.91-1.62-4.01-1.62-6.3s.54-4.39,1.62-6.3,2.58-3.42,4.5-4.54,4.09-1.68,6.52-1.68,4.6.56,6.52,1.68,3.42,2.63,4.5,4.54,1.62,4.01,1.62,6.3-.54,4.39-1.62,6.3c-1.08,1.91-2.58,3.42-4.5,4.54s-4.09,1.68-6.52,1.68-4.6-.56-6.52-1.68ZM1350.28,45.28c1.27-.88,2.23-2.06,2.88-3.54.65-1.48.98-3.13.98-4.94s-.33-3.46-.98-4.94c-.65-1.48-1.61-2.66-2.88-3.54-1.27-.88-2.78-1.32-4.54-1.32s-3.27.44-4.54,1.32c-1.27.88-2.23,2.06-2.88,3.54-.65,1.48-.98,3.13-.98,4.94s.33,3.46.98,4.94c.65,1.48,1.61,2.66,2.88,3.54,1.27.88,2.78,1.32,4.54,1.32s3.27-.44,4.54-1.32Z"/>
    <path d="M1366.44,47.82c-.92-1-1.38-2.37-1.38-4.1v-16h-3.6v-2.72h3.6v-5.16l4-.04v5.2h5.56v2.72h-5.56v16.2c0,.8.2,1.44.6,1.92.4.48,1.05.72,1.96.72s1.85-.24,2.84-.72l.92,2.32c-.72.37-1.48.66-2.28.86s-1.61.3-2.44.3c-1.89,0-3.3-.5-4.22-1.5Z"/>
    <path d="M1399.22,25v25.44c0,1.09-.28,2.11-.84,3.04-.56.93-1.37,1.69-2.44,2.26-1.07.57-2.35.86-3.84.86-.45,0-.83-.07-1.12-.2l.16-2.6c.19.05.51.08.96.08.99,0,1.75-.29,2.3-.86.55-.57.82-1.45.82-2.62v-25.4h4ZM1395.3,20.06c-.51-.52-.76-1.14-.76-1.86s.25-1.33.76-1.82,1.12-.74,1.84-.74,1.33.25,1.84.74.76,1.1.76,1.82-.25,1.34-.76,1.86c-.51.52-1.12.78-1.84.78s-1.33-.26-1.84-.78Z"/>
    <path d="M1411.02,48.26c-1.6-.71-2.88-1.75-3.84-3.14-.96-1.39-1.44-3.07-1.44-5.04v-15.08h4v15.08c0,2,.66,3.61,1.98,4.82,1.32,1.21,3.06,1.82,5.22,1.82,1.76,0,3.28-.4,4.56-1.2,1.28-.8,2.24-1.8,2.88-3v-17.52h4v23.6h-4v-2.24l-.4-.12c-.72.91-1.74,1.65-3.06,2.22-1.32.57-2.86.86-4.62.86-1.92,0-3.68-.35-5.28-1.06Z"/>
    <path d="M1440.54,48.26c-1.6-.71-2.88-1.75-3.84-3.14-.96-1.39-1.44-3.07-1.44-5.04v-15.08h4v15.08c0,2,.66,3.61,1.98,4.82,1.32,1.21,3.06,1.82,5.22,1.82,1.76,0,3.28-.4,4.56-1.2,1.28-.8,2.24-1.8,2.88-3v-17.52h4v23.6h-4v-2.24l-.4-.12c-.72.91-1.74,1.65-3.06,2.22-1.32.57-2.86.86-4.62.86-1.92,0-3.68-.35-5.28-1.06Z"/>
    <path d="M1464.94,25h4v2.24l2.12.64-2.2.2c.61-1.09,1.64-2,3.08-2.72,1.44-.72,3.19-1.08,5.24-1.08s3.79.35,5.36,1.04c1.57.69,2.82,1.73,3.74,3.12.92,1.39,1.38,3.08,1.38,5.08v15.08h-4v-15.08c0-2.16-.65-3.79-1.96-4.88-1.31-1.09-3-1.64-5.08-1.64-1.73,0-3.31.41-4.74,1.22s-2.41,1.77-2.94,2.86v17.52h-4v-23.6Z"/>
    <path d="M1494.82,20.06c-.51-.52-.76-1.14-.76-1.86s.25-1.33.76-1.82,1.12-.74,1.84-.74,1.33.25,1.84.74.76,1.1.76,1.82-.25,1.34-.76,1.86c-.51.52-1.12.78-1.84.78s-1.33-.26-1.84-.78ZM1494.58,25h4v23.6h-4v-23.6Z"/>
    <path d="M1520.88,28.22c-1.37-.81-3.01-1.22-4.9-1.22s-3.45.35-4.58,1.04c-1.13.69-1.7,1.6-1.7,2.72,0,.85.35,1.57,1.04,2.16.69.59,1.87,1.01,3.52,1.28l4.68.72c2.99.45,5.24,1.26,6.76,2.42,1.52,1.16,2.28,2.74,2.28,4.74,0,1.63-.53,2.98-1.6,4.06s-2.45,1.88-4.14,2.4c-1.69.52-3.53.78-5.5.78-3.17,0-5.94-.65-8.3-1.94-2.36-1.29-3.71-3.3-4.06-6.02h4.2c.27,1.68,1.11,2.97,2.54,3.88,1.43.91,3.3,1.36,5.62,1.36s4.07-.41,5.34-1.24c1.27-.83,1.9-1.89,1.9-3.2,0-1.23-.47-2.14-1.42-2.74-.95-.6-2.37-1.05-4.26-1.34l-4.64-.68c-2.4-.35-4.33-1.04-5.78-2.08-1.45-1.04-2.18-2.43-2.18-4.16,0-1.36.47-2.56,1.4-3.6s2.19-1.85,3.76-2.42c1.57-.57,3.29-.86,5.16-.86s3.63.29,5.3.88c1.67.59,3.05,1.45,4.16,2.6s1.78,2.51,2.02,4.08h-4.2c-.24-1.6-1.05-2.81-2.42-3.62Z"/>
    <path d="M1571.62,29.72c-.83,1.15-1.83,2.08-3,2.8-1.17.72-2.72,1.53-4.64,2.44l-1.4.68-2.2,1.08c-1.97.96-3.51,1.88-4.6,2.76s-1.91,1.89-2.44,3.04c-.53,1.15-.8,2.59-.8,4.32l-.88-1.4,20.68-.04v3.2h-24.28v-1.76c0-3.07.96-5.63,2.88-7.7s4.52-3.93,7.8-5.58l2.32-1.16c.43-.21.84-.41,1.24-.6,1.39-.69,2.48-1.29,3.28-1.78.8-.49,1.45-1.1,1.96-1.82.51-.72.76-1.6.76-2.64,0-1.84-.71-3.27-2.12-4.3-1.41-1.03-3.23-1.54-5.44-1.54s-4.18.58-5.58,1.74c-1.4,1.16-2.21,2.7-2.42,4.62h-4.56c.27-1.84.91-3.47,1.92-4.88,1.01-1.41,2.41-2.52,4.18-3.32s3.89-1.2,6.34-1.2,4.45.37,6.3,1.12c1.85.75,3.31,1.79,4.36,3.14,1.05,1.35,1.58,2.91,1.58,4.7,0,1.57-.41,2.93-1.24,4.08Z"/>
    <path d="M1584.34,47.14c-2.13-1.45-3.78-3.42-4.94-5.9-1.16-2.48-1.74-5.21-1.74-8.2s.58-5.72,1.74-8.2c1.16-2.48,2.81-4.45,4.94-5.9,2.13-1.45,4.61-2.18,7.44-2.18s5.29.73,7.4,2.18c2.11,1.45,3.73,3.41,4.86,5.88,1.13,2.47,1.7,5.21,1.7,8.22s-.57,5.75-1.7,8.22c-1.13,2.47-2.75,4.43-4.86,5.88-2.11,1.45-4.57,2.18-7.4,2.18s-5.31-.73-7.44-2.18ZM1596.9,44.46c1.41-1.16,2.48-2.73,3.2-4.72.72-1.99,1.08-4.22,1.08-6.7s-.36-4.71-1.08-6.7c-.72-1.99-1.79-3.56-3.2-4.72-1.41-1.16-3.12-1.74-5.12-1.74s-3.76.58-5.2,1.74c-1.44,1.16-2.53,2.73-3.26,4.72-.73,1.99-1.1,4.22-1.1,6.7s.37,4.71,1.12,6.7c.75,1.99,1.84,3.56,3.28,4.72,1.44,1.16,3.16,1.74,5.16,1.74s3.71-.58,5.12-1.74Z"/>
    <path d="M1634.18,29.72c-.83,1.15-1.83,2.08-3,2.8-1.17.72-2.72,1.53-4.64,2.44l-1.4.68-2.2,1.08c-1.97.96-3.51,1.88-4.6,2.76-1.09.88-1.91,1.89-2.44,3.04s-.8,2.59-.8,4.32l-.88-1.4,20.68-.04v3.2h-24.28v-1.76c0-3.07.96-5.63,2.88-7.7s4.52-3.93,7.8-5.58l2.32-1.16c.43-.21.84-.41,1.24-.6,1.39-.69,2.48-1.29,3.28-1.78.8-.49,1.45-1.1,1.96-1.82.51-.72.76-1.6.76-2.64,0-1.84-.71-3.27-2.12-4.3s-3.23-1.54-5.44-1.54-4.18.58-5.58,1.74c-1.4,1.16-2.21,2.7-2.42,4.62h-4.56c.27-1.84.91-3.47,1.92-4.88,1.01-1.41,2.41-2.52,4.18-3.32s3.89-1.2,6.34-1.2,4.45.37,6.3,1.12c1.85.75,3.31,1.79,4.36,3.14,1.05,1.35,1.58,2.91,1.58,4.7,0,1.57-.41,2.93-1.24,4.08Z"/>
    <path d="M1662.62,17.4v3.2h-17.24v8.6h2.24l-2.28.6c.59-1.28,1.64-2.33,3.16-3.16,1.52-.83,3.28-1.24,5.28-1.24,2.19,0,4.19.51,6,1.54,1.81,1.03,3.25,2.44,4.32,4.24s1.6,3.79,1.6,5.98-.57,4.25-1.7,6.12c-1.13,1.87-2.7,3.34-4.7,4.42s-4.24,1.62-6.72,1.62c-2.29,0-4.37-.39-6.22-1.18-1.85-.79-3.35-1.9-4.5-3.34-1.15-1.44-1.85-3.13-2.12-5.08h4.56c.56,2.32,1.59,3.99,3.1,5.02,1.51,1.03,3.23,1.54,5.18,1.54,1.68,0,3.17-.39,4.48-1.18,1.31-.79,2.33-1.87,3.06-3.26s1.1-2.95,1.1-4.68-.35-3.19-1.04-4.52c-.69-1.33-1.66-2.37-2.9-3.1-1.24-.73-2.63-1.1-4.18-1.1-1.41,0-2.67.31-3.76.94s-1.96,1.44-2.6,2.44c-.64,1-1.04,2.07-1.2,3.22h-4.16v-17.64h21.24Z"/>
  </g>
  <g>
    <path d="M1136.78,108.6h-4.16c-2.52,0-4.87-.78-6.8-2.11-1.97,1.35-4.33,2.11-6.8,2.11h-4c-2.5,0-4.88-.78-6.86-2.15-1.94,1.36-4.31,2.15-6.86,2.15h-4.16c-6.63,0-12-5.37-12-12v-31.2c0-6.63,5.37-12,12-12h5.12c4.37,0,8.39,2.38,10.51,6.2l4.43,8.03,4.38-7.99c2.11-3.85,6.14-6.24,10.53-6.24h4.68c6.63,0,12,5.37,12,12v31.2c0,6.63-5.37,12-12,12Z"/>
    <path d="M1155.82,109.32c-4.57,0-8.8-1.12-12.57-3.31-3.77-2.2-6.76-5.22-8.89-8.99-2.11-3.72-3.18-7.83-3.18-12.21s1.07-8.49,3.18-12.22c2.13-3.77,5.13-6.79,8.89-8.99,3.77-2.2,8-3.32,12.57-3.32s8.8,1.12,12.57,3.32c3.77,2.2,6.76,5.22,8.89,8.99,2.11,3.72,3.18,7.83,3.18,12.22s-1.07,8.49-3.18,12.22c-2.13,3.77-5.12,6.79-8.89,8.99-3.77,2.2-8,3.31-12.57,3.31Z"/>
    <path d="M1178.3,108.6h-4c-6.63,0-12-5.37-12-12v-23.6c0-6.63,5.37-12,12-12h4c.85,0,1.69.09,2.49.26,3.04-.73,6.35-.86,9.61-.36,1.36.21,2.69.53,3.97.96.54.18,1.07.4,1.58.65,4.07,2.03,6.71,6.23,6.71,10.77v3.04c0,3.9-1.9,7.56-5.08,9.81-2.15,1.52-4.71,2.25-7.27,2.19v8.29c0,6.63-5.37,12-12,12ZM1186.63,87.62s0,0,0,0c0,0,0,0,0,0Z"/>
    <path d="M1205.74,109.32c-4.6,0-8.84-1.12-12.61-3.31-3.79-2.21-6.79-5.25-8.91-9.05-2.07-3.71-3.13-7.8-3.13-12.16s1.05-8.45,3.13-12.16c2.11-3.78,5.09-6.82,8.85-9.03,3.76-2.21,8-3.33,12.58-3.33s8.81,1.12,12.58,3.33c3.76,2.21,6.74,5.25,8.85,9.03,2.08,3.71,3.13,7.79,3.13,12.12,0,.96-.11,1.9-.33,2.8.03,1-.06,2.01-.28,3-.86,3.88-2.59,7.33-5.13,10.26-2.4,2.76-5.31,4.91-8.66,6.37-3.22,1.41-6.61,2.12-10.09,2.12Z"/>
    <path d="M1242.54,108.6h-4c-6.63,0-12-5.37-12-12v-23.6c0-.76.07-1.51.21-2.23-.48-1.46-.73-3-.73-4.57,0-3.96,1.56-7.66,4.39-10.42,2.74-2.67,6.37-4.14,10.21-4.14s7.46,1.47,10.21,4.14c2.83,2.76,4.39,6.46,4.39,10.42,0,1.69-.29,3.33-.83,4.88.1.62.15,1.26.15,1.92v23.6c0,6.63-5.37,12-12,12Z"/>
    <path d="M1272.46,108.6h-4c-2.77,0-5.33-.94-7.36-2.52-2.03,1.58-4.59,2.52-7.36,2.52h-4c-6.63,0-12-5.37-12-12v-23.6c0-6.63,5.37-12,12-12h4c.56,0,1.11.04,1.64.11,2.06-.55,4.27-.83,6.6-.83,3.66,0,7.09.69,10.19,2.06,3.66,1.62,6.73,4.2,8.9,7.47,2.25,3.38,3.38,7.33,3.38,11.72v15.08c0,6.63-5.37,12-12,12Z"/>
    <path d="M1284.9,108.6h-4.16c-6.63,0-12-5.37-12-12v-12.04c-2.39-2.19-3.88-5.34-3.88-8.84v-2.72c0-4.67,2.66-8.71,6.55-10.69.8-1.46,1.77-2.77,2.93-3.93,2.57-2.6,7.27-5.69,15-5.69,1.71,0,3.18.13,4.51.39,5.61,1.12,9.65,6.05,9.65,11.77v2.88c0,1.18-.17,2.33-.5,3.43.09.6.14,1.22.14,1.85v2.72c0,4.54-2.52,8.49-6.24,10.53v10.35c0,6.63-5.37,12-12,12Z"/>
    <path d="M1306.1,109.32c-4.57,0-8.8-1.12-12.57-3.31-3.77-2.2-6.76-5.22-8.89-8.99-2.11-3.72-3.18-7.83-3.18-12.21s1.07-8.49,3.18-12.22c2.13-3.77,5.13-6.79,8.89-8.99,3.77-2.2,8-3.32,12.57-3.32s8.8,1.12,12.57,3.32c3.77,2.2,6.76,5.22,8.89,8.99,2.11,3.72,3.18,7.83,3.18,12.22s-1.07,8.49-3.18,12.22c-2.13,3.77-5.12,6.79-8.89,8.99-3.77,2.2-8,3.31-12.57,3.31Z"/>
    <path d="M1343.06,108.6h-4c-6.63,0-12-5.37-12-12v-23.6c0-.76.07-1.51.21-2.23-.48-1.46-.73-3-.73-4.57,0-3.96,1.56-7.66,4.39-10.42,2.74-2.67,6.37-4.14,10.21-4.14s7.46,1.47,10.21,4.14c2.83,2.76,4.39,6.46,4.39,10.42,0,1.69-.29,3.33-.83,4.88.1.62.15,1.26.15,1.92v23.6c0,6.63-5.37,12-12,12Z"/>
    <path d="M1372.98,108.6h-4c-2.77,0-5.33-.94-7.36-2.52-2.03,1.58-4.59,2.52-7.36,2.52h-4c-6.63,0-12-5.37-12-12v-23.6c0-6.63,5.37-12,12-12h4c.56,0,1.11.04,1.64.11,2.06-.55,4.27-.83,6.6-.83,3.66,0,7.09.69,10.19,2.06,3.66,1.62,6.73,4.2,8.91,7.47,2.24,3.38,3.38,7.33,3.38,11.72v15.08c0,6.63-5.37,12-12,12Z"/>
    <path d="M1401.06,109.32c-5.28,0-9.92-1.33-13.78-3.94-5.12-3.46-8.06-9.05-8.06-15.34,0-6.63,5.37-12,12-12h3.28v-12.64c0-6.63,5.37-12,12-12h4.4c6.63,0,12,5.37,12,12v22.4c0,8.35-3.49,13.31-6.41,16.01-2.73,2.51-7.62,5.51-15.43,5.51Z"/>
    <path d="M1428.66,109.32c-3.59,0-6.99-.7-10.12-2.08h0c-3.65-1.61-6.63-4.06-8.87-7.29-2.33-3.37-3.57-7.48-3.57-11.87v-15.08c0-6.63,5.37-12,12-12h4c2.76,0,5.29.93,7.32,2.49,2.03-1.56,4.56-2.49,7.32-2.49h4c6.63,0,12,5.37,12,12v23.6c0,6.63-5.37,12-12,12h-4c-.55,0-1.08-.04-1.61-.11-2.03.55-4.19.83-6.47.83Z"/>
    <path d="M1470.5,108.6h-4c-2.77,0-5.33-.94-7.36-2.52-2.03,1.58-4.59,2.52-7.36,2.52h-4c-6.63,0-12-5.37-12-12v-23.6c0-6.63,5.37-12,12-12h4c.56,0,1.11.04,1.64.11,2.06-.55,4.27-.83,6.6-.83,3.66,0,7.09.69,10.19,2.06,3.66,1.61,6.73,4.19,8.9,7.47,2.24,3.38,3.38,7.33,3.38,11.72v15.08c0,6.63-5.37,12-12,12Z"/>
    <path d="M1488.74,109.32c-4.59,0-8.84-1.12-12.61-3.31-3.79-2.21-6.79-5.26-8.91-9.05-2.07-3.71-3.13-7.8-3.13-12.16s1.05-8.45,3.13-12.16c2.12-3.78,5.09-6.82,8.85-9.03,3.77-2.21,8-3.33,12.58-3.33s8.81,1.12,12.58,3.33c3.76,2.21,6.74,5.25,8.85,9.03,2.08,3.71,3.13,7.79,3.13,12.12,0,.96-.11,1.9-.33,2.8.03,1-.06,2.01-.28,3-.86,3.88-2.59,7.33-5.13,10.26-2.4,2.76-5.31,4.91-8.65,6.37-3.22,1.41-6.62,2.13-10.09,2.13Z"/>
    <path d="M1545.18,108.6h-24.28c-6.63,0-12-5.37-12-12v-1.76c0-4.58,1.19-8.81,3.46-12.45-.14-.15-.28-.3-.42-.46-2.28-2.63-3.3-6.13-2.8-9.57.54-3.75,1.91-7.17,4.05-10.16,2.25-3.14,5.28-5.59,9-7.26,3.33-1.5,7.12-2.26,11.27-2.26,3.88,0,7.5.67,10.78,1.99,3.83,1.54,6.96,3.85,9.33,6.87,2.71,3.46,4.13,7.64,4.13,12.1,0,4.08-1.21,7.91-3.5,11.1,0,0,0,0,0,0-.1.14-.2.27-.3.41,2.11,2.23,3.29,5.18,3.29,8.25v3.2c0,6.63-5.37,12-12,12Z"/>
    <path d="M1564.62,109.32c-5.27,0-10.05-1.43-14.2-4.26h0c-3.93-2.68-6.98-6.29-9.06-10.74-1.9-4.07-2.87-8.54-2.87-13.28s.97-9.21,2.87-13.29c2.08-4.44,5.12-8.05,9.05-10.73,4.15-2.83,8.93-4.26,14.2-4.26s10.08,1.45,14.21,4.3c3.9,2.69,6.91,6.31,8.95,10.75,1.86,4.04,2.8,8.49,2.8,13.23s-.94,9.19-2.79,13.23c-2.04,4.45-5.05,8.06-8.95,10.75-4.13,2.85-8.92,4.3-14.21,4.3Z"/>
    <path d="M1607.74,108.6h-24.28c-6.63,0-12-5.37-12-12v-1.76c0-4.58,1.19-8.81,3.46-12.45-.14-.15-.28-.3-.42-.46-2.28-2.63-3.3-6.13-2.8-9.57.54-3.75,1.9-7.17,4.04-10.15,2.25-3.15,5.28-5.59,9-7.27,3.33-1.5,7.12-2.26,11.27-2.26,3.88,0,7.5.67,10.78,1.99,3.83,1.54,6.97,3.86,9.33,6.87,2.7,3.46,4.13,7.64,4.13,12.1,0,4.08-1.21,7.92-3.51,11.1-.1.14-.2.27-.3.41,2.11,2.23,3.29,5.18,3.29,8.25v3.2c0,6.63-5.37,12-12,12Z"/>
    <path d="M1625.42,109.32c-3.9,0-7.57-.72-10.91-2.13-3.7-1.57-6.8-3.9-9.2-6.91-2.5-3.14-4.06-6.82-4.62-10.93-.37-2.68.19-5.38,1.53-7.68v-16.27c0-6.63,5.37-12,12-12h21.24c6.63,0,12,5.37,12,12v3.2c0,1.32-.21,2.6-.61,3.79.14.22.28.45.41.67,2.17,3.67,3.28,7.74,3.28,12.1s-1.16,8.58-3.44,12.35c-2.25,3.71-5.36,6.65-9.26,8.75-3.76,2.03-7.94,3.06-12.42,3.06Z"/>
  </g>
  <g>
    <path d="M1136.78,96.6h-4.16v-26.56l.8.12-14.4,26.44h-4l-14.52-26.44.8-.12v26.56h-4.16v-31.2h5.12l15.72,28.48-1.56.16,15.68-28.64h4.68v31.2Z"/>
    <path d="M1149.3,95.64c-1.92-1.12-3.42-2.63-4.5-4.54-1.08-1.91-1.62-4.01-1.62-6.3s.54-4.39,1.62-6.3,2.58-3.42,4.5-4.54,4.09-1.68,6.52-1.68,4.6.56,6.52,1.68,3.42,2.63,4.5,4.54,1.62,4.01,1.62,6.3-.54,4.39-1.62,6.3c-1.08,1.91-2.58,3.42-4.5,4.54s-4.09,1.68-6.52,1.68-4.6-.56-6.52-1.68ZM1160.36,93.28c1.27-.88,2.23-2.06,2.88-3.54.65-1.48.98-3.13.98-4.94s-.33-3.46-.98-4.94c-.65-1.48-1.61-2.66-2.88-3.54-1.27-.88-2.78-1.32-4.54-1.32s-3.27.44-4.54,1.32c-1.27.88-2.23,2.06-2.88,3.54-.65,1.48-.98,3.13-.98,4.94s.33,3.46.98,4.94c.65,1.48,1.61,2.66,2.88,3.54,1.27.88,2.78,1.32,4.54,1.32s3.27-.44,4.54-1.32Z"/>
    <path d="M1174.3,73h4v3l.84.56-1.72,1.6c.61-1.87,1.76-3.26,3.44-4.18,1.68-.92,3.56-1.38,5.64-1.38.69,0,1.39.05,2.08.16.69.11,1.36.27,2,.48l.08.04v3.04c-1.12-.4-2.45-.6-4-.6-1.95,0-3.7.38-5.26,1.14-1.56.76-2.59,1.94-3.1,3.54v16.2h-4v-23.6Z"/>
    <path d="M1199.18,95.64c-1.92-1.12-3.41-2.63-4.48-4.54-1.07-1.91-1.6-4.01-1.6-6.3s.53-4.39,1.6-6.3c1.07-1.91,2.55-3.42,4.46-4.54,1.91-1.12,4.07-1.68,6.5-1.68s4.59.56,6.5,1.68c1.91,1.12,3.39,2.63,4.46,4.54,1.07,1.91,1.6,3.99,1.6,6.26v.08h-4.16v-.08c0-1.79-.32-3.42-.96-4.9-.64-1.48-1.59-2.66-2.86-3.54-1.27-.88-2.79-1.32-4.58-1.32s-3.31.44-4.58,1.32c-1.27.88-2.22,2.07-2.86,3.56s-.96,3.13-.96,4.92.32,3.43.96,4.92,1.6,2.68,2.88,3.56,2.83,1.32,4.64,1.32c2.24,0,4.19-.61,5.84-1.82,1.65-1.21,2.8-2.82,3.44-4.82h2.88c-.43,1.92-1.25,3.59-2.48,5s-2.69,2.49-4.4,3.24c-1.71.75-3.47,1.12-5.28,1.12-2.45,0-4.64-.56-6.56-1.68ZM1196.26,82.12h19.8v2.72h-19.8v-2.72Z"/>
    <path d="M1238.78,68.06c-.51-.52-.76-1.14-.76-1.86s.25-1.33.76-1.82c.51-.49,1.12-.74,1.84-.74s1.33.25,1.84.74c.51.49.76,1.1.76,1.82s-.25,1.34-.76,1.86c-.51.52-1.12.78-1.84.78s-1.33-.26-1.84-.78ZM1238.54,73h4v23.6h-4v-23.6Z"/>
    <path d="M1249.74,73h4v2.24l2.12.64-2.2.2c.61-1.09,1.64-2,3.08-2.72,1.44-.72,3.19-1.08,5.24-1.08s3.79.35,5.36,1.04c1.57.69,2.82,1.73,3.74,3.12.92,1.39,1.38,3.08,1.38,5.08v15.08h-4v-15.08c0-2.16-.65-3.79-1.96-4.88-1.31-1.09-3-1.64-5.08-1.64-1.73,0-3.31.41-4.74,1.22-1.43.81-2.41,1.77-2.94,2.86v17.52h-4v-23.6Z"/>
    <path d="M1291.14,73v2.72h-14.28v-2.72h14.28ZM1282.86,66.82c1.41-1.43,3.57-2.14,6.48-2.14.91,0,1.63.05,2.16.16v2.88c-.53-.11-1.19-.16-1.96-.16-1.12,0-2.01.17-2.66.5-.65.33-1.15.98-1.48,1.94s-.5,2.35-.5,4.16v22.44h-4.16v-22.44c0-3.47.71-5.91,2.12-7.34Z"/>
    <path d="M1299.58,95.64c-1.92-1.12-3.42-2.63-4.5-4.54-1.08-1.91-1.62-4.01-1.62-6.3s.54-4.39,1.62-6.3,2.58-3.42,4.5-4.54,4.09-1.68,6.52-1.68,4.6.56,6.52,1.68,3.42,2.63,4.5,4.54,1.62,4.01,1.62,6.3-.54,4.39-1.62,6.3c-1.08,1.91-2.58,3.42-4.5,4.54s-4.09,1.68-6.52,1.68-4.6-.56-6.52-1.68ZM1310.64,93.28c1.27-.88,2.23-2.06,2.88-3.54.65-1.48.98-3.13.98-4.94s-.33-3.46-.98-4.94c-.65-1.48-1.61-2.66-2.88-3.54-1.27-.88-2.78-1.32-4.54-1.32s-3.27.44-4.54,1.32c-1.27.88-2.23,2.06-2.88,3.54-.65,1.48-.98,3.13-.98,4.94s.33,3.46.98,4.94c.65,1.48,1.61,2.66,2.88,3.54,1.27.88,2.78,1.32,4.54,1.32s3.27-.44,4.54-1.32Z"/>
    <path d="M1339.3,68.06c-.51-.52-.76-1.14-.76-1.86s.25-1.33.76-1.82c.51-.49,1.12-.74,1.84-.74s1.33.25,1.84.74c.51.49.76,1.1.76,1.82s-.25,1.34-.76,1.86c-.51.52-1.12.78-1.84.78s-1.33-.26-1.84-.78ZM1339.06,73h4v23.6h-4v-23.6Z"/>
    <path d="M1350.26,73h4v2.24l2.12.64-2.2.2c.61-1.09,1.64-2,3.08-2.72,1.44-.72,3.19-1.08,5.24-1.08s3.79.35,5.36,1.04c1.57.69,2.82,1.73,3.74,3.12.92,1.39,1.38,3.08,1.38,5.08v15.08h-4v-15.08c0-2.16-.65-3.79-1.96-4.88-1.31-1.09-3-1.64-5.08-1.64-1.73,0-3.31.41-4.74,1.22-1.43.81-2.41,1.77-2.94,2.86v17.52h-4v-23.6Z"/>
    <path d="M1394,95.44c-1.85-1.25-2.78-3.05-2.78-5.4h4.4c0,1.25.48,2.33,1.44,3.22s2.29,1.34,4,1.34c1.84,0,3.21-.57,4.1-1.72s1.34-2.84,1.34-5.08v-22.4h4.4v22.4c0,3.23-.85,5.62-2.54,7.18-1.69,1.56-4.13,2.34-7.3,2.34-2.85,0-5.21-.63-7.06-1.88Z"/>
    <path d="M1423.38,96.26c-1.6-.71-2.88-1.75-3.84-3.14-.96-1.39-1.44-3.07-1.44-5.04v-15.08h4v15.08c0,2,.66,3.61,1.98,4.82,1.32,1.21,3.06,1.82,5.22,1.82,1.76,0,3.28-.4,4.56-1.2s2.24-1.8,2.88-3v-17.52h4v23.6h-4v-2.24l-.4-.12c-.72.91-1.74,1.65-3.06,2.22-1.32.57-2.86.86-4.62.86-1.92,0-3.68-.35-5.28-1.06Z"/>
    <path d="M1447.78,73h4v2.24l2.12.64-2.2.2c.61-1.09,1.64-2,3.08-2.72,1.44-.72,3.19-1.08,5.24-1.08s3.79.35,5.36,1.04c1.57.69,2.82,1.73,3.74,3.12.92,1.39,1.38,3.08,1.38,5.08v15.08h-4v-15.08c0-2.16-.65-3.79-1.96-4.88-1.31-1.09-3-1.64-5.08-1.64-1.73,0-3.31.41-4.74,1.22s-2.41,1.77-2.94,2.86v17.52h-4v-23.6Z"/>
    <path d="M1482.18,95.64c-1.92-1.12-3.41-2.63-4.48-4.54-1.07-1.91-1.6-4.01-1.6-6.3s.53-4.39,1.6-6.3,2.55-3.42,4.46-4.54,4.07-1.68,6.5-1.68,4.59.56,6.5,1.68,3.39,2.63,4.46,4.54,1.6,3.99,1.6,6.26v.08h-4.16v-.08c0-1.79-.32-3.42-.96-4.9-.64-1.48-1.59-2.66-2.86-3.54s-2.79-1.32-4.58-1.32-3.31.44-4.58,1.32-2.22,2.07-2.86,3.56c-.64,1.49-.96,3.13-.96,4.92s.32,3.43.96,4.92c.64,1.49,1.6,2.68,2.88,3.56,1.28.88,2.83,1.32,4.64,1.32,2.24,0,4.19-.61,5.84-1.82,1.65-1.21,2.8-2.82,3.44-4.82h2.88c-.43,1.92-1.25,3.59-2.48,5s-2.69,2.49-4.4,3.24c-1.71.75-3.47,1.12-5.28,1.12-2.45,0-4.64-.56-6.56-1.68ZM1479.26,82.12h19.8v2.72h-19.8v-2.72Z"/>
    <path d="M1544.46,77.72c-.83,1.15-1.83,2.08-3,2.8-1.17.72-2.72,1.53-4.64,2.44l-1.4.68-2.2,1.08c-1.97.96-3.51,1.88-4.6,2.76-1.09.88-1.91,1.89-2.44,3.04s-.8,2.59-.8,4.32l-.88-1.4,20.68-.04v3.2h-24.28v-1.76c0-3.07.96-5.63,2.88-7.7s4.52-3.93,7.8-5.58l2.32-1.16c.43-.21.84-.41,1.24-.6,1.39-.69,2.48-1.29,3.28-1.78.8-.49,1.45-1.1,1.96-1.82.51-.72.76-1.6.76-2.64,0-1.84-.71-3.27-2.12-4.3s-3.23-1.54-5.44-1.54-4.18.58-5.58,1.74c-1.4,1.16-2.21,2.7-2.42,4.62h-4.56c.27-1.84.91-3.47,1.92-4.88,1.01-1.41,2.41-2.52,4.18-3.32s3.89-1.2,6.34-1.2,4.45.37,6.3,1.12c1.85.75,3.31,1.79,4.36,3.14,1.05,1.35,1.58,2.91,1.58,4.7,0,1.57-.41,2.93-1.24,4.08Z"/>
    <path d="M1557.18,95.14c-2.13-1.45-3.78-3.42-4.94-5.9-1.16-2.48-1.74-5.21-1.74-8.2s.58-5.72,1.74-8.2c1.16-2.48,2.81-4.45,4.94-5.9,2.13-1.45,4.61-2.18,7.44-2.18s5.29.73,7.4,2.18c2.11,1.45,3.73,3.41,4.86,5.88,1.13,2.47,1.7,5.21,1.7,8.22s-.57,5.75-1.7,8.22c-1.13,2.47-2.75,4.43-4.86,5.88-2.11,1.45-4.57,2.18-7.4,2.18s-5.31-.73-7.44-2.18ZM1569.74,92.46c1.41-1.16,2.48-2.73,3.2-4.72.72-1.99,1.08-4.22,1.08-6.7s-.36-4.71-1.08-6.7c-.72-1.99-1.79-3.56-3.2-4.72-1.41-1.16-3.12-1.74-5.12-1.74s-3.76.58-5.2,1.74c-1.44,1.16-2.53,2.73-3.26,4.72-.73,1.99-1.1,4.22-1.1,6.7s.37,4.71,1.12,6.7c.75,1.99,1.84,3.56,3.28,4.72,1.44,1.16,3.16,1.74,5.16,1.74s3.71-.58,5.12-1.74Z"/>
    <path d="M1607.02,77.72c-.83,1.15-1.83,2.08-3,2.8-1.17.72-2.72,1.53-4.64,2.44l-1.4.68-2.2,1.08c-1.97.96-3.51,1.88-4.6,2.76s-1.91,1.89-2.44,3.04c-.53,1.15-.8,2.59-.8,4.32l-.88-1.4,20.68-.04v3.2h-24.28v-1.76c0-3.07.96-5.63,2.88-7.7s4.52-3.93,7.8-5.58l2.32-1.16c.43-.21.84-.41,1.24-.6,1.39-.69,2.48-1.29,3.28-1.78.8-.49,1.45-1.1,1.96-1.82.51-.72.76-1.6.76-2.64,0-1.84-.71-3.27-2.12-4.3-1.41-1.03-3.23-1.54-5.44-1.54s-4.18.58-5.58,1.74c-1.4,1.16-2.21,2.7-2.42,4.62h-4.56c.27-1.84.91-3.47,1.92-4.88,1.01-1.41,2.41-2.52,4.18-3.32s3.89-1.2,6.34-1.2,4.45.37,6.3,1.12c1.85.75,3.31,1.79,4.36,3.14,1.05,1.35,1.58,2.91,1.58,4.7,0,1.57-.41,2.93-1.24,4.08Z"/>
    <path d="M1635.46,65.4v3.2h-17.24v8.6h2.24l-2.28.6c.59-1.28,1.64-2.33,3.16-3.16,1.52-.83,3.28-1.24,5.28-1.24,2.19,0,4.19.51,6,1.54,1.81,1.03,3.25,2.44,4.32,4.24s1.6,3.79,1.6,5.98-.57,4.25-1.7,6.12c-1.13,1.87-2.7,3.34-4.7,4.42s-4.24,1.62-6.72,1.62c-2.29,0-4.37-.39-6.22-1.18-1.85-.79-3.35-1.9-4.5-3.34-1.15-1.44-1.85-3.13-2.12-5.08h4.56c.56,2.32,1.59,3.99,3.1,5.02,1.51,1.03,3.23,1.54,5.18,1.54,1.68,0,3.17-.39,4.48-1.18,1.31-.79,2.33-1.87,3.06-3.26s1.1-2.95,1.1-4.68-.35-3.19-1.04-4.52c-.69-1.33-1.66-2.37-2.9-3.1-1.24-.73-2.63-1.1-4.18-1.1-1.41,0-2.67.31-3.76.94s-1.96,1.44-2.6,2.44c-.64,1-1.04,2.07-1.2,3.22h-4.16v-17.64h21.24Z"/>
  </g>
  <rect class="cls-1" x="1059.42" y="-.08" width="615.16" height="96.68"/>
  <g>
    <path class="cls-2" d="M1069.98,17.4h17.56c2.11,0,3.94.36,5.5,1.08s2.77,1.73,3.62,3.04c.85,1.31,1.28,2.81,1.28,4.52.03,1.97-.5,3.63-1.58,4.96-1.08,1.33-2.63,2.31-4.66,2.92l1.4-2.4v3.92l-.84-1.96c1.39.21,2.45.83,3.2,1.86s1.35,2.62,1.8,4.78c.51,2.4.99,4.23,1.46,5.48.47,1.25.97,2.25,1.5,3h-4.76c-.48-.75-.87-1.64-1.16-2.68-.29-1.04-.73-2.89-1.32-5.56-.4-1.84-1.06-3.25-1.98-4.22s-2.25-1.46-3.98-1.46h-12.6l-.04,13.92h-4.4v-31.2ZM1091.84,30.08c1.05-.99,1.57-2.33,1.54-4.04-.03-1.71-.57-3.05-1.62-4.04-1.05-.99-2.46-1.48-4.22-1.48h-13.16l.04,11.04h13.16c1.79,0,3.21-.49,4.26-1.48Z"/>
    <path class="cls-2" d="M1110.26,47.64c-1.92-1.12-3.42-2.63-4.5-4.54-1.08-1.91-1.62-4.01-1.62-6.3s.54-4.39,1.62-6.3,2.58-3.42,4.5-4.54,4.09-1.68,6.52-1.68,4.6.56,6.52,1.68,3.42,2.63,4.5,4.54,1.62,4.01,1.62,6.3-.54,4.39-1.62,6.3c-1.08,1.91-2.58,3.42-4.5,4.54s-4.09,1.68-6.52,1.68-4.6-.56-6.52-1.68ZM1121.32,45.28c1.27-.88,2.23-2.06,2.88-3.54.65-1.48.98-3.13.98-4.94s-.33-3.46-.98-4.94c-.65-1.48-1.61-2.66-2.88-3.54-1.27-.88-2.78-1.32-4.54-1.32s-3.27.44-4.54,1.32c-1.27.88-2.23,2.06-2.88,3.54-.65,1.48-.98,3.13-.98,4.94s.33,3.46.98,4.94c.65,1.48,1.61,2.66,2.88,3.54,1.27.88,2.78,1.32,4.54,1.32s3.27-.44,4.54-1.32Z"/>
    <path class="cls-2" d="M1135.26,17.4h4v9.84l2.12.64-2.2.2c.61-1.09,1.64-2,3.08-2.72,1.44-.72,3.19-1.08,5.24-1.08s3.79.35,5.36,1.04c1.57.69,2.82,1.73,3.74,3.12.92,1.39,1.38,3.08,1.38,5.08v15.08h-4v-15.08c0-2.16-.65-3.79-1.96-4.88-1.31-1.09-3-1.64-5.08-1.64-1.73,0-3.31.41-4.74,1.22-1.43.81-2.41,1.77-2.94,2.86v17.52h-4v-31.2Z"/>
    <path class="cls-2" d="M1164.86,17.4h4v31.2h-4v-31.2ZM1167.9,38l14-13h4.72l-18.36,17.08-.36-4.08ZM1173.02,36.2l2.68-2.84,12.16,15.24h-4.92l-9.92-12.4Z"/>
    <path class="cls-2" d="M1195.1,47.64c-1.92-1.12-3.41-2.63-4.48-4.54-1.07-1.91-1.6-4.01-1.6-6.3s.53-4.39,1.6-6.3c1.07-1.91,2.55-3.42,4.46-4.54,1.91-1.12,4.07-1.68,6.5-1.68s4.59.56,6.5,1.68c1.91,1.12,3.39,2.63,4.46,4.54,1.07,1.91,1.6,3.99,1.6,6.26v.08h-4.16v-.08c0-1.79-.32-3.42-.96-4.9-.64-1.48-1.59-2.66-2.86-3.54-1.27-.88-2.79-1.32-4.58-1.32s-3.31.44-4.58,1.32c-1.27.88-2.22,2.07-2.86,3.56s-.96,3.13-.96,4.92.32,3.43.96,4.92,1.6,2.68,2.88,3.56,2.83,1.32,4.64,1.32c2.24,0,4.19-.61,5.84-1.82,1.65-1.21,2.8-2.82,3.44-4.82h2.88c-.43,1.92-1.25,3.59-2.48,5s-2.69,2.49-4.4,3.24c-1.71.75-3.47,1.12-5.28,1.12-2.45,0-4.64-.56-6.56-1.68ZM1192.18,34.12h19.8v2.72h-19.8v-2.72Z"/>
    <path class="cls-2" d="M1219.82,25h4v2.24l.4.12c.61-.91,1.53-1.65,2.76-2.22s2.68-.86,4.36-.86,3.21.33,4.58,1c1.37.67,2.43,1.69,3.18,3.08l-1.96-.24h4.64l-2.56.08c.99-1.28,2.15-2.25,3.48-2.92,1.33-.67,2.96-1,4.88-1,1.71,0,3.28.31,4.72.94,1.44.63,2.59,1.56,3.44,2.8.85,1.24,1.28,2.77,1.28,4.58v16h-4v-16c0-1.63-.55-2.97-1.64-4.02-1.09-1.05-2.52-1.58-4.28-1.58-1.47,0-2.77.37-3.92,1.1-1.15.73-2.07,1.67-2.76,2.82v17.68h-4v-16c0-1.63-.52-2.97-1.56-4.02s-2.39-1.58-4.04-1.58c-1.41,0-2.77.38-4.06,1.14-1.29.76-2.27,1.69-2.94,2.78v17.68h-4v-23.6Z"/>
    <path class="cls-2" d="M1278.46,20.06c-.51-.52-.76-1.14-.76-1.86s.25-1.33.76-1.82c.51-.49,1.12-.74,1.84-.74s1.33.25,1.84.74c.51.49.76,1.1.76,1.82s-.25,1.34-.76,1.86c-.51.52-1.12.78-1.84.78s-1.33-.26-1.84-.78ZM1278.22,25h4v23.6h-4v-23.6Z"/>
    <path class="cls-2" d="M1289.38,25h4v2.24l2.12.64-2.2.2c.61-1.09,1.64-2,3.08-2.72,1.44-.72,3.19-1.08,5.24-1.08s3.79.35,5.36,1.04c1.57.69,2.82,1.73,3.74,3.12.92,1.39,1.38,3.08,1.38,5.08v15.08h-4v-15.08c0-2.16-.65-3.79-1.96-4.88-1.31-1.09-3-1.64-5.08-1.64-1.73,0-3.31.41-4.74,1.22-1.43.81-2.41,1.77-2.94,2.86v17.52h-4v-23.6Z"/>
    <path class="cls-2" d="M1330.78,25v2.72h-14.28v-2.72h14.28ZM1322.5,18.82c1.41-1.43,3.57-2.14,6.48-2.14.91,0,1.63.05,2.16.16v2.88c-.53-.11-1.19-.16-1.96-.16-1.12,0-2.01.17-2.66.5-.65.33-1.15.98-1.48,1.94s-.5,2.35-.5,4.16v22.44h-4.16v-22.44c0-3.47.71-5.91,2.12-7.34Z"/>
    <path class="cls-2" d="M1339.22,47.64c-1.92-1.12-3.42-2.63-4.5-4.54-1.08-1.91-1.62-4.01-1.62-6.3s.54-4.39,1.62-6.3,2.58-3.42,4.5-4.54,4.09-1.68,6.52-1.68,4.6.56,6.52,1.68,3.42,2.63,4.5,4.54,1.62,4.01,1.62,6.3-.54,4.39-1.62,6.3c-1.08,1.91-2.58,3.42-4.5,4.54s-4.09,1.68-6.52,1.68-4.6-.56-6.52-1.68ZM1350.28,45.28c1.27-.88,2.23-2.06,2.88-3.54.65-1.48.98-3.13.98-4.94s-.33-3.46-.98-4.94c-.65-1.48-1.61-2.66-2.88-3.54-1.27-.88-2.78-1.32-4.54-1.32s-3.27.44-4.54,1.32c-1.27.88-2.23,2.06-2.88,3.54-.65,1.48-.98,3.13-.98,4.94s.33,3.46.98,4.94c.65,1.48,1.61,2.66,2.88,3.54,1.27.88,2.78,1.32,4.54,1.32s3.27-.44,4.54-1.32Z"/>
    <path class="cls-2" d="M1366.44,47.82c-.92-1-1.38-2.37-1.38-4.1v-16h-3.6v-2.72h3.6v-5.16l4-.04v5.2h5.56v2.72h-5.56v16.2c0,.8.2,1.44.6,1.92.4.48,1.05.72,1.96.72s1.85-.24,2.84-.72l.92,2.32c-.72.37-1.48.66-2.28.86s-1.61.3-2.44.3c-1.89,0-3.3-.5-4.22-1.5Z"/>
    <path class="cls-2" d="M1399.22,25v25.44c0,1.09-.28,2.11-.84,3.04-.56.93-1.37,1.69-2.44,2.26-1.07.57-2.35.86-3.84.86-.45,0-.83-.07-1.12-.2l.16-2.6c.19.05.51.08.96.08.99,0,1.75-.29,2.3-.86.55-.57.82-1.45.82-2.62v-25.4h4ZM1395.3,20.06c-.51-.52-.76-1.14-.76-1.86s.25-1.33.76-1.82,1.12-.74,1.84-.74,1.33.25,1.84.74.76,1.1.76,1.82-.25,1.34-.76,1.86c-.51.52-1.12.78-1.84.78s-1.33-.26-1.84-.78Z"/>
    <path class="cls-2" d="M1411.02,48.26c-1.6-.71-2.88-1.75-3.84-3.14-.96-1.39-1.44-3.07-1.44-5.04v-15.08h4v15.08c0,2,.66,3.61,1.98,4.82,1.32,1.21,3.06,1.82,5.22,1.82,1.76,0,3.28-.4,4.56-1.2,1.28-.8,2.24-1.8,2.88-3v-17.52h4v23.6h-4v-2.24l-.4-.12c-.72.91-1.74,1.65-3.06,2.22-1.32.57-2.86.86-4.62.86-1.92,0-3.68-.35-5.28-1.06Z"/>
    <path class="cls-2" d="M1440.54,48.26c-1.6-.71-2.88-1.75-3.84-3.14-.96-1.39-1.44-3.07-1.44-5.04v-15.08h4v15.08c0,2,.66,3.61,1.98,4.82,1.32,1.21,3.06,1.82,5.22,1.82,1.76,0,3.28-.4,4.56-1.2,1.28-.8,2.24-1.8,2.88-3v-17.52h4v23.6h-4v-2.24l-.4-.12c-.72.91-1.74,1.65-3.06,2.22-1.32.57-2.86.86-4.62.86-1.92,0-3.68-.35-5.28-1.06Z"/>
    <path class="cls-2" d="M1464.94,25h4v2.24l2.12.64-2.2.2c.61-1.09,1.64-2,3.08-2.72,1.44-.72,3.19-1.08,5.24-1.08s3.79.35,5.36,1.04c1.57.69,2.82,1.73,3.74,3.12.92,1.39,1.38,3.08,1.38,5.08v15.08h-4v-15.08c0-2.16-.65-3.79-1.96-4.88-1.31-1.09-3-1.64-5.08-1.64-1.73,0-3.31.41-4.74,1.22s-2.41,1.77-2.94,2.86v17.52h-4v-23.6Z"/>
    <path class="cls-2" d="M1494.82,20.06c-.51-.52-.76-1.14-.76-1.86s.25-1.33.76-1.82,1.12-.74,1.84-.74,1.33.25,1.84.74.76,1.1.76,1.82-.25,1.34-.76,1.86c-.51.52-1.12.78-1.84.78s-1.33-.26-1.84-.78ZM1494.58,25h4v23.6h-4v-23.6Z"/>
    <path class="cls-2" d="M1520.88,28.22c-1.37-.81-3.01-1.22-4.9-1.22s-3.45.35-4.58,1.04c-1.13.69-1.7,1.6-1.7,2.72,0,.85.35,1.57,1.04,2.16.69.59,1.87,1.01,3.52,1.28l4.68.72c2.99.45,5.24,1.26,6.76,2.42,1.52,1.16,2.28,2.74,2.28,4.74,0,1.63-.53,2.98-1.6,4.06s-2.45,1.88-4.14,2.4c-1.69.52-3.53.78-5.5.78-3.17,0-5.94-.65-8.3-1.94-2.36-1.29-3.71-3.3-4.06-6.02h4.2c.27,1.68,1.11,2.97,2.54,3.88,1.43.91,3.3,1.36,5.62,1.36s4.07-.41,5.34-1.24c1.27-.83,1.9-1.89,1.9-3.2,0-1.23-.47-2.14-1.42-2.74-.95-.6-2.37-1.05-4.26-1.34l-4.64-.68c-2.4-.35-4.33-1.04-5.78-2.08-1.45-1.04-2.18-2.43-2.18-4.16,0-1.36.47-2.56,1.4-3.6s2.19-1.85,3.76-2.42c1.57-.57,3.29-.86,5.16-.86s3.63.29,5.3.88c1.67.59,3.05,1.45,4.16,2.6s1.78,2.51,2.02,4.08h-4.2c-.24-1.6-1.05-2.81-2.42-3.62Z"/>
    <path class="cls-2" d="M1571.62,29.72c-.83,1.15-1.83,2.08-3,2.8-1.17.72-2.72,1.53-4.64,2.44l-1.4.68-2.2,1.08c-1.97.96-3.51,1.88-4.6,2.76s-1.91,1.89-2.44,3.04c-.53,1.15-.8,2.59-.8,4.32l-.88-1.4,20.68-.04v3.2h-24.28v-1.76c0-3.07.96-5.63,2.88-7.7s4.52-3.93,7.8-5.58l2.32-1.16c.43-.21.84-.41,1.24-.6,1.39-.69,2.48-1.29,3.28-1.78.8-.49,1.45-1.1,1.96-1.82.51-.72.76-1.6.76-2.64,0-1.84-.71-3.27-2.12-4.3-1.41-1.03-3.23-1.54-5.44-1.54s-4.18.58-5.58,1.74c-1.4,1.16-2.21,2.7-2.42,4.62h-4.56c.27-1.84.91-3.47,1.92-4.88,1.01-1.41,2.41-2.52,4.18-3.32s3.89-1.2,6.34-1.2,4.45.37,6.3,1.12c1.85.75,3.31,1.79,4.36,3.14,1.05,1.35,1.58,2.91,1.58,4.7,0,1.57-.41,2.93-1.24,4.08Z"/>
    <path class="cls-2" d="M1584.34,47.14c-2.13-1.45-3.78-3.42-4.94-5.9-1.16-2.48-1.74-5.21-1.74-8.2s.58-5.72,1.74-8.2c1.16-2.48,2.81-4.45,4.94-5.9,2.13-1.45,4.61-2.18,7.44-2.18s5.29.73,7.4,2.18c2.11,1.45,3.73,3.41,4.86,5.88,1.13,2.47,1.7,5.21,1.7,8.22s-.57,5.75-1.7,8.22c-1.13,2.47-2.75,4.43-4.86,5.88-2.11,1.45-4.57,2.18-7.4,2.18s-5.31-.73-7.44-2.18ZM1596.9,44.46c1.41-1.16,2.48-2.73,3.2-4.72.72-1.99,1.08-4.22,1.08-6.7s-.36-4.71-1.08-6.7c-.72-1.99-1.79-3.56-3.2-4.72-1.41-1.16-3.12-1.74-5.12-1.74s-3.76.58-5.2,1.74c-1.44,1.16-2.53,2.73-3.26,4.72-.73,1.99-1.1,4.22-1.1,6.7s.37,4.71,1.12,6.7c.75,1.99,1.84,3.56,3.28,4.72,1.44,1.16,3.16,1.74,5.16,1.74s3.71-.58,5.12-1.74Z"/>
    <path class="cls-2" d="M1634.18,29.72c-.83,1.15-1.83,2.08-3,2.8-1.17.72-2.72,1.53-4.64,2.44l-1.4.68-2.2,1.08c-1.97.96-3.51,1.88-4.6,2.76-1.09.88-1.91,1.89-2.44,3.04s-.8,2.59-.8,4.32l-.88-1.4,20.68-.04v3.2h-24.28v-1.76c0-3.07.96-5.63,2.88-7.7s4.52-3.93,7.8-5.58l2.32-1.16c.43-.21.84-.41,1.24-.6,1.39-.69,2.48-1.29,3.28-1.78.8-.49,1.45-1.1,1.96-1.82.51-.72.76-1.6.76-2.64,0-1.84-.71-3.27-2.12-4.3s-3.23-1.54-5.44-1.54-4.18.58-5.58,1.74c-1.4,1.16-2.21,2.7-2.42,4.62h-4.56c.27-1.84.91-3.47,1.92-4.88,1.01-1.41,2.41-2.52,4.18-3.32s3.89-1.2,6.34-1.2,4.45.37,6.3,1.12c1.85.75,3.31,1.79,4.36,3.14,1.05,1.35,1.58,2.91,1.58,4.7,0,1.57-.41,2.93-1.24,4.08Z"/>
    <path class="cls-2" d="M1662.62,17.4v3.2h-17.24v8.6h2.24l-2.28.6c.59-1.28,1.64-2.33,3.16-3.16,1.52-.83,3.28-1.24,5.28-1.24,2.19,0,4.19.51,6,1.54,1.81,1.03,3.25,2.44,4.32,4.24s1.6,3.79,1.6,5.98-.57,4.25-1.7,6.12c-1.13,1.87-2.7,3.34-4.7,4.42s-4.24,1.62-6.72,1.62c-2.29,0-4.37-.39-6.22-1.18-1.85-.79-3.35-1.9-4.5-3.34-1.15-1.44-1.85-3.13-2.12-5.08h4.56c.56,2.32,1.59,3.99,3.1,5.02,1.51,1.03,3.23,1.54,5.18,1.54,1.68,0,3.17-.39,4.48-1.18,1.31-.79,2.33-1.87,3.06-3.26s1.1-2.95,1.1-4.68-.35-3.19-1.04-4.52c-.69-1.33-1.66-2.37-2.9-3.1-1.24-.73-2.63-1.1-4.18-1.1-1.41,0-2.67.31-3.76.94s-1.96,1.44-2.6,2.44c-.64,1-1.04,2.07-1.2,3.22h-4.16v-17.64h21.24Z"/>
  </g>
  <g>
    <path class="cls-2" d="M1136.78,96.6h-4.16v-26.56l.8.12-14.4,26.44h-4l-14.52-26.44.8-.12v26.56h-4.16v-31.2h5.12l15.72,28.48-1.56.16,15.68-28.64h4.68v31.2Z"/>
    <path class="cls-2" d="M1149.3,95.64c-1.92-1.12-3.42-2.63-4.5-4.54-1.08-1.91-1.62-4.01-1.62-6.3s.54-4.39,1.62-6.3,2.58-3.42,4.5-4.54,4.09-1.68,6.52-1.68,4.6.56,6.52,1.68,3.42,2.63,4.5,4.54,1.62,4.01,1.62,6.3-.54,4.39-1.62,6.3c-1.08,1.91-2.58,3.42-4.5,4.54s-4.09,1.68-6.52,1.68-4.6-.56-6.52-1.68ZM1160.36,93.28c1.27-.88,2.23-2.06,2.88-3.54.65-1.48.98-3.13.98-4.94s-.33-3.46-.98-4.94c-.65-1.48-1.61-2.66-2.88-3.54-1.27-.88-2.78-1.32-4.54-1.32s-3.27.44-4.54,1.32c-1.27.88-2.23,2.06-2.88,3.54-.65,1.48-.98,3.13-.98,4.94s.33,3.46.98,4.94c.65,1.48,1.61,2.66,2.88,3.54,1.27.88,2.78,1.32,4.54,1.32s3.27-.44,4.54-1.32Z"/>
    <path class="cls-2" d="M1174.3,73h4v3l.84.56-1.72,1.6c.61-1.87,1.76-3.26,3.44-4.18,1.68-.92,3.56-1.38,5.64-1.38.69,0,1.39.05,2.08.16.69.11,1.36.27,2,.48l.08.04v3.04c-1.12-.4-2.45-.6-4-.6-1.95,0-3.7.38-5.26,1.14-1.56.76-2.59,1.94-3.1,3.54v16.2h-4v-23.6Z"/>
    <path class="cls-2" d="M1199.18,95.64c-1.92-1.12-3.41-2.63-4.48-4.54-1.07-1.91-1.6-4.01-1.6-6.3s.53-4.39,1.6-6.3c1.07-1.91,2.55-3.42,4.46-4.54,1.91-1.12,4.07-1.68,6.5-1.68s4.59.56,6.5,1.68c1.91,1.12,3.39,2.63,4.46,4.54,1.07,1.91,1.6,3.99,1.6,6.26v.08h-4.16v-.08c0-1.79-.32-3.42-.96-4.9-.64-1.48-1.59-2.66-2.86-3.54-1.27-.88-2.79-1.32-4.58-1.32s-3.31.44-4.58,1.32c-1.27.88-2.22,2.07-2.86,3.56s-.96,3.13-.96,4.92.32,3.43.96,4.92,1.6,2.68,2.88,3.56,2.83,1.32,4.64,1.32c2.24,0,4.19-.61,5.84-1.82,1.65-1.21,2.8-2.82,3.44-4.82h2.88c-.43,1.92-1.25,3.59-2.48,5s-2.69,2.49-4.4,3.24c-1.71.75-3.47,1.12-5.28,1.12-2.45,0-4.64-.56-6.56-1.68ZM1196.26,82.12h19.8v2.72h-19.8v-2.72Z"/>
    <path class="cls-2" d="M1238.78,68.06c-.51-.52-.76-1.14-.76-1.86s.25-1.33.76-1.82c.51-.49,1.12-.74,1.84-.74s1.33.25,1.84.74c.51.49.76,1.1.76,1.82s-.25,1.34-.76,1.86c-.51.52-1.12.78-1.84.78s-1.33-.26-1.84-.78ZM1238.54,73h4v23.6h-4v-23.6Z"/>
    <path class="cls-2" d="M1249.74,73h4v2.24l2.12.64-2.2.2c.61-1.09,1.64-2,3.08-2.72,1.44-.72,3.19-1.08,5.24-1.08s3.79.35,5.36,1.04c1.57.69,2.82,1.73,3.74,3.12.92,1.39,1.38,3.08,1.38,5.08v15.08h-4v-15.08c0-2.16-.65-3.79-1.96-4.88-1.31-1.09-3-1.64-5.08-1.64-1.73,0-3.31.41-4.74,1.22-1.43.81-2.41,1.77-2.94,2.86v17.52h-4v-23.6Z"/>
    <path class="cls-2" d="M1291.14,73v2.72h-14.28v-2.72h14.28ZM1282.86,66.82c1.41-1.43,3.57-2.14,6.48-2.14.91,0,1.63.05,2.16.16v2.88c-.53-.11-1.19-.16-1.96-.16-1.12,0-2.01.17-2.66.5-.65.33-1.15.98-1.48,1.94s-.5,2.35-.5,4.16v22.44h-4.16v-22.44c0-3.47.71-5.91,2.12-7.34Z"/>
    <path class="cls-2" d="M1299.58,95.64c-1.92-1.12-3.42-2.63-4.5-4.54-1.08-1.91-1.62-4.01-1.62-6.3s.54-4.39,1.62-6.3,2.58-3.42,4.5-4.54,4.09-1.68,6.52-1.68,4.6.56,6.52,1.68,3.42,2.63,4.5,4.54,1.62,4.01,1.62,6.3-.54,4.39-1.62,6.3c-1.08,1.91-2.58,3.42-4.5,4.54s-4.09,1.68-6.52,1.68-4.6-.56-6.52-1.68ZM1310.64,93.28c1.27-.88,2.23-2.06,2.88-3.54.65-1.48.98-3.13.98-4.94s-.33-3.46-.98-4.94c-.65-1.48-1.61-2.66-2.88-3.54-1.27-.88-2.78-1.32-4.54-1.32s-3.27.44-4.54,1.32c-1.27.88-2.23,2.06-2.88,3.54-.65,1.48-.98,3.13-.98,4.94s.33,3.46.98,4.94c.65,1.48,1.61,2.66,2.88,3.54,1.27.88,2.78,1.32,4.54,1.32s3.27-.44,4.54-1.32Z"/>
    <path class="cls-2" d="M1339.3,68.06c-.51-.52-.76-1.14-.76-1.86s.25-1.33.76-1.82c.51-.49,1.12-.74,1.84-.74s1.33.25,1.84.74c.51.49.76,1.1.76,1.82s-.25,1.34-.76,1.86c-.51.52-1.12.78-1.84.78s-1.33-.26-1.84-.78ZM1339.06,73h4v23.6h-4v-23.6Z"/>
    <path class="cls-2" d="M1350.26,73h4v2.24l2.12.64-2.2.2c.61-1.09,1.64-2,3.08-2.72,1.44-.72,3.19-1.08,5.24-1.08s3.79.35,5.36,1.04c1.57.69,2.82,1.73,3.74,3.12.92,1.39,1.38,3.08,1.38,5.08v15.08h-4v-15.08c0-2.16-.65-3.79-1.96-4.88-1.31-1.09-3-1.64-5.08-1.64-1.73,0-3.31.41-4.74,1.22-1.43.81-2.41,1.77-2.94,2.86v17.52h-4v-23.6Z"/>
    <path class="cls-2" d="M1394,95.44c-1.85-1.25-2.78-3.05-2.78-5.4h4.4c0,1.25.48,2.33,1.44,3.22s2.29,1.34,4,1.34c1.84,0,3.21-.57,4.1-1.72s1.34-2.84,1.34-5.08v-22.4h4.4v22.4c0,3.23-.85,5.62-2.54,7.18-1.69,1.56-4.13,2.34-7.3,2.34-2.85,0-5.21-.63-7.06-1.88Z"/>
    <path class="cls-2" d="M1423.38,96.26c-1.6-.71-2.88-1.75-3.84-3.14-.96-1.39-1.44-3.07-1.44-5.04v-15.08h4v15.08c0,2,.66,3.61,1.98,4.82,1.32,1.21,3.06,1.82,5.22,1.82,1.76,0,3.28-.4,4.56-1.2s2.24-1.8,2.88-3v-17.52h4v23.6h-4v-2.24l-.4-.12c-.72.91-1.74,1.65-3.06,2.22-1.32.57-2.86.86-4.62.86-1.92,0-3.68-.35-5.28-1.06Z"/>
    <path class="cls-2" d="M1447.78,73h4v2.24l2.12.64-2.2.2c.61-1.09,1.64-2,3.08-2.72,1.44-.72,3.19-1.08,5.24-1.08s3.79.35,5.36,1.04c1.57.69,2.82,1.73,3.74,3.12.92,1.39,1.38,3.08,1.38,5.08v15.08h-4v-15.08c0-2.16-.65-3.79-1.96-4.88-1.31-1.09-3-1.64-5.08-1.64-1.73,0-3.31.41-4.74,1.22s-2.41,1.77-2.94,2.86v17.52h-4v-23.6Z"/>
    <path class="cls-2" d="M1482.18,95.64c-1.92-1.12-3.41-2.63-4.48-4.54-1.07-1.91-1.6-4.01-1.6-6.3s.53-4.39,1.6-6.3,2.55-3.42,4.46-4.54,4.07-1.68,6.5-1.68,4.59.56,6.5,1.68,3.39,2.63,4.46,4.54,1.6,3.99,1.6,6.26v.08h-4.16v-.08c0-1.79-.32-3.42-.96-4.9-.64-1.48-1.59-2.66-2.86-3.54s-2.79-1.32-4.58-1.32-3.31.44-4.58,1.32-2.22,2.07-2.86,3.56c-.64,1.49-.96,3.13-.96,4.92s.32,3.43.96,4.92c.64,1.49,1.6,2.68,2.88,3.56,1.28.88,2.83,1.32,4.64,1.32,2.24,0,4.19-.61,5.84-1.82,1.65-1.21,2.8-2.82,3.44-4.82h2.88c-.43,1.92-1.25,3.59-2.48,5s-2.69,2.49-4.4,3.24c-1.71.75-3.47,1.12-5.28,1.12-2.45,0-4.64-.56-6.56-1.68ZM1479.26,82.12h19.8v2.72h-19.8v-2.72Z"/>
    <path class="cls-2" d="M1544.46,77.72c-.83,1.15-1.83,2.08-3,2.8-1.17.72-2.72,1.53-4.64,2.44l-1.4.68-2.2,1.08c-1.97.96-3.51,1.88-4.6,2.76-1.09.88-1.91,1.89-2.44,3.04s-.8,2.59-.8,4.32l-.88-1.4,20.68-.04v3.2h-24.28v-1.76c0-3.07.96-5.63,2.88-7.7s4.52-3.93,7.8-5.58l2.32-1.16c.43-.21.84-.41,1.24-.6,1.39-.69,2.48-1.29,3.28-1.78.8-.49,1.45-1.1,1.96-1.82.51-.72.76-1.6.76-2.64,0-1.84-.71-3.27-2.12-4.3s-3.23-1.54-5.44-1.54-4.18.58-5.58,1.74c-1.4,1.16-2.21,2.7-2.42,4.62h-4.56c.27-1.84.91-3.47,1.92-4.88,1.01-1.41,2.41-2.52,4.18-3.32s3.89-1.2,6.34-1.2,4.45.37,6.3,1.12c1.85.75,3.31,1.79,4.36,3.14,1.05,1.35,1.58,2.91,1.58,4.7,0,1.57-.41,2.93-1.24,4.08Z"/>
    <path class="cls-2" d="M1557.18,95.14c-2.13-1.45-3.78-3.42-4.94-5.9-1.16-2.48-1.74-5.21-1.74-8.2s.58-5.72,1.74-8.2c1.16-2.48,2.81-4.45,4.94-5.9,2.13-1.45,4.61-2.18,7.44-2.18s5.29.73,7.4,2.18c2.11,1.45,3.73,3.41,4.86,5.88,1.13,2.47,1.7,5.21,1.7,8.22s-.57,5.75-1.7,8.22c-1.13,2.47-2.75,4.43-4.86,5.88-2.11,1.45-4.57,2.18-7.4,2.18s-5.31-.73-7.44-2.18ZM1569.74,92.46c1.41-1.16,2.48-2.73,3.2-4.72.72-1.99,1.08-4.22,1.08-6.7s-.36-4.71-1.08-6.7c-.72-1.99-1.79-3.56-3.2-4.72-1.41-1.16-3.12-1.74-5.12-1.74s-3.76.58-5.2,1.74c-1.44,1.16-2.53,2.73-3.26,4.72-.73,1.99-1.1,4.22-1.1,6.7s.37,4.71,1.12,6.7c.75,1.99,1.84,3.56,3.28,4.72,1.44,1.16,3.16,1.74,5.16,1.74s3.71-.58,5.12-1.74Z"/>
    <path class="cls-2" d="M1607.02,77.72c-.83,1.15-1.83,2.08-3,2.8-1.17.72-2.72,1.53-4.64,2.44l-1.4.68-2.2,1.08c-1.97.96-3.51,1.88-4.6,2.76s-1.91,1.89-2.44,3.04c-.53,1.15-.8,2.59-.8,4.32l-.88-1.4,20.68-.04v3.2h-24.28v-1.76c0-3.07.96-5.63,2.88-7.7s4.52-3.93,7.8-5.58l2.32-1.16c.43-.21.84-.41,1.24-.6,1.39-.69,2.48-1.29,3.28-1.78.8-.49,1.45-1.1,1.96-1.82.51-.72.76-1.6.76-2.64,0-1.84-.71-3.27-2.12-4.3-1.41-1.03-3.23-1.54-5.44-1.54s-4.18.58-5.58,1.74c-1.4,1.16-2.21,2.7-2.42,4.62h-4.56c.27-1.84.91-3.47,1.92-4.88,1.01-1.41,2.41-2.52,4.18-3.32s3.89-1.2,6.34-1.2,4.45.37,6.3,1.12c1.85.75,3.31,1.79,4.36,3.14,1.05,1.35,1.58,2.91,1.58,4.7,0,1.57-.41,2.93-1.24,4.08Z"/>
    <path class="cls-2" d="M1635.46,65.4v3.2h-17.24v8.6h2.24l-2.28.6c.59-1.28,1.64-2.33,3.16-3.16,1.52-.83,3.28-1.24,5.28-1.24,2.19,0,4.19.51,6,1.54,1.81,1.03,3.25,2.44,4.32,4.24s1.6,3.79,1.6,5.98-.57,4.25-1.7,6.12c-1.13,1.87-2.7,3.34-4.7,4.42s-4.24,1.62-6.72,1.62c-2.29,0-4.37-.39-6.22-1.18-1.85-.79-3.35-1.9-4.5-3.34-1.15-1.44-1.85-3.13-2.12-5.08h4.56c.56,2.32,1.59,3.99,3.1,5.02,1.51,1.03,3.23,1.54,5.18,1.54,1.68,0,3.17-.39,4.48-1.18,1.31-.79,2.33-1.87,3.06-3.26s1.1-2.95,1.1-4.68-.35-3.19-1.04-4.52c-.69-1.33-1.66-2.37-2.9-3.1-1.24-.73-2.63-1.1-4.18-1.1-1.41,0-2.67.31-3.76.94s-1.96,1.44-2.6,2.44c-.64,1-1.04,2.07-1.2,3.22h-4.16v-17.64h21.24Z"/>
  </g>
  <rect class="cls-1" x="1059.42" y="-.08" width="615.16" height="96.68"/>
</svg>