<?xml version="1.0" encoding="UTF-8"?>
<svg id="Layer_1" data-name="Layer 1" xmlns="http://www.w3.org/2000/svg" viewBox="0 0 639 127.5">
  <defs>
    <style>
      .cls-1 {
        fill: #fff;
      }
    </style>
  </defs>
  <g>
    <path d="M52.72,65.82h-4.76c-4.08,0-7.88-2.08-10.09-5.51-.16-.24-.31-.49-.45-.74-2.04,3.72-5.99,6.25-10.53,6.25h-4.4c-6.63,0-12-5.37-12-12v-31.2c0-6.63,5.37-12,12-12h17.56c3.84,0,7.38.73,10.52,2.18,3.64,1.68,6.54,4.16,8.64,7.37,2.1,3.22,3.22,7.03,3.23,11.01.03,3.05-.57,5.94-1.75,8.54.31.98.58,2.03.81,3.15.53,2.52.87,3.52.96,3.76.08.22.14.36.18.44,2.46,3.63,2.76,8.32.75,12.23-2.06,4-6.18,6.51-10.67,6.51ZM62.69,47.15h0ZM62.69,47.15h0ZM62.48,46.84s0,0,0,0c0,0,0,0,0,0Z"/>
    <path d="M69.28,66.54c-4.57,0-8.8-1.11-12.56-3.31h0c-3.77-2.2-6.76-5.22-8.9-8.99-2.11-3.72-3.18-7.83-3.18-12.22s1.07-8.49,3.18-12.21c2.13-3.76,5.12-6.79,8.89-8.99,3.78-2.2,8.01-3.32,12.57-3.32s8.79,1.11,12.56,3.31c3.77,2.2,6.76,5.23,8.9,8.99,2.11,3.72,3.18,7.83,3.18,12.21s-1.07,8.49-3.18,12.22c-2.14,3.77-5.13,6.79-8.9,8.99-3.76,2.2-7.99,3.31-12.56,3.31Z"/>
    <path d="M110.48,65.82h-4c-2.77,0-5.33-.94-7.36-2.52-2.03,1.58-4.59,2.52-7.36,2.52h-4c-6.63,0-12-5.37-12-12v-31.2c0-6.63,5.37-12,12-12h4c4.85,0,9.02,2.87,10.92,7.01,2.66.26,5.18.9,7.51,1.92,3.72,1.64,6.71,4.15,8.91,7.46,2.25,3.39,3.39,7.33,3.39,11.72v15.08c0,6.63-5.37,12-12,12Z"/>
    <path d="M140.36,65.82h-4.92c-2.56,0-5.01-.81-7.04-2.28-1.98,1.44-4.41,2.28-7.04,2.28h-4c-6.63,0-12-5.37-12-12v-31.2c0-6.63,5.37-12,12-12h4c5.13,0,9.5,3.22,11.22,7.74.6-.09,1.21-.14,1.82-.14h4.72c4.93,0,9.36,3.02,11.17,7.61,1.81,4.59.62,9.82-2.99,13.18l-1.95,1.82,4.4,5.51c2.88,3.6,3.43,8.54,1.43,12.69-2,4.15-6.2,6.79-10.81,6.79Z"/>
    <path d="M154.16,66.54c-4.59,0-8.84-1.11-12.6-3.31h0c-3.79-2.21-6.79-5.25-8.91-9.05-2.07-3.7-3.13-7.8-3.13-12.16s1.05-8.45,3.13-12.16c2.11-3.78,5.09-6.81,8.85-9.02,3.77-2.21,8-3.33,12.58-3.33s8.81,1.12,12.57,3.33c3.77,2.22,6.75,5.25,8.86,9.03,2.07,3.71,3.13,7.79,3.13,12.12,0,.96-.11,1.9-.33,2.79.03,1-.06,2.01-.28,3.01-.86,3.88-2.59,7.34-5.14,10.27-2.39,2.76-5.31,4.9-8.65,6.37-3.23,1.41-6.62,2.12-10.09,2.12Z"/>
    <path d="M209.52,65.82h-4c-2.31,0-4.47-.65-6.3-1.79-1.83,1.13-3.99,1.79-6.3,1.79h-4c-2.31,0-4.47-.65-6.3-1.79-1.83,1.13-3.99,1.79-6.3,1.79h-4c-6.63,0-12-5.37-12-12v-23.6c0-6.63,5.37-12,12-12h4c.45,0,.9.03,1.34.07,1.94-.53,4.01-.79,6.18-.79,2.8,0,5.47.47,7.97,1.41,2.51-.94,5.29-1.41,8.27-1.41,3.35,0,6.54.65,9.5,1.93,3.54,1.54,6.41,3.9,8.55,7.01,2.25,3.27,3.4,7.1,3.4,11.38v16c0,6.63-5.37,12-12,12Z"/>
    <path d="M234.72,65.82h-4c-6.63,0-12-5.37-12-12v-23.6c0-.76.07-1.51.21-2.23-.48-1.46-.73-3-.73-4.57,0-3.96,1.56-7.66,4.38-10.41,2.75-2.68,6.38-4.15,10.22-4.15s7.46,1.47,10.2,4.13c2.84,2.77,4.4,6.47,4.4,10.43,0,1.69-.29,3.33-.83,4.88.1.62.15,1.26.15,1.92v23.6c0,6.63-5.37,12-12,12Z"/>
    <path d="M264.6,65.82h-4c-2.77,0-5.33-.94-7.36-2.52-2.03,1.58-4.59,2.52-7.36,2.52h-4c-6.63,0-12-5.37-12-12v-23.6c0-6.63,5.37-12,12-12h4c.56,0,1.1.04,1.64.11,2.06-.55,4.27-.83,6.6-.83,3.66,0,7.09.69,10.19,2.05,3.72,1.64,6.71,4.15,8.91,7.47,2.25,3.39,3.38,7.33,3.38,11.72v15.08c0,6.63-5.37,12-12,12Z"/>
    <path d="M277.04,65.82h-4.16c-6.63,0-12-5.37-12-12v-12.05c-2.39-2.19-3.88-5.34-3.88-8.83v-2.72c0-4.67,2.66-8.71,6.55-10.69.8-1.46,1.77-2.77,2.92-3.93h0c2.57-2.6,7.26-5.69,15-5.69,1.72,0,3.21.13,4.53.4,5.6,1.13,9.63,6.05,9.63,11.76v2.88c0,1.18-.17,2.33-.5,3.43.09.6.14,1.22.14,1.85v2.72c0,4.54-2.52,8.49-6.24,10.53v10.35c0,6.63-5.37,12-12,12Z"/>
    <path d="M298.24,66.54c-4.57,0-8.8-1.11-12.56-3.31h0c-3.77-2.2-6.76-5.22-8.9-8.99-2.11-3.72-3.18-7.83-3.18-12.22s1.07-8.49,3.18-12.21c2.13-3.76,5.12-6.79,8.89-8.99,3.78-2.2,8.01-3.32,12.57-3.32s8.79,1.11,12.56,3.31c3.77,2.2,6.76,5.23,8.9,8.99,2.11,3.72,3.18,7.83,3.18,12.21s-1.07,8.49-3.18,12.22c-2.14,3.77-5.13,6.79-8.9,8.99-3.76,2.2-7.99,3.31-12.56,3.31ZM296.93,43.93s0,0,0,0l.58-1h0s-.58.99-.58.99ZM297.52,42.91h0s.25-.42.25-.42c0,0,0,0,0,0l-.25.42Z"/>
    <path d="M323.16,66.54c-6.7,0-10.8-2.92-13.05-5.38-2.07-2.25-4.55-6.21-4.55-12.22v-7.43c-2.22-2.18-3.6-5.21-3.6-8.57v-2.72c0-3.7,1.67-7,4.3-9.2,1.65-4.6,6.02-7.9,11.18-7.96l4-.04c3.2-.05,6.29,1.22,8.56,3.47.85.84,1.55,1.79,2.11,2.81,4.14,1.89,7.01,6.07,7.01,10.92v2.72c0,3.66-1.63,6.93-4.21,9.13,1.4,1.24,2.5,2.79,3.21,4.57l.92,2.32c2.27,5.72-.15,12.23-5.61,15.07-1.54.8-3.19,1.43-4.9,1.86-1.77.44-3.57.66-5.37.66Z"/>
    <path d="M344.6,73.82c-2.2,0-4.26-.44-6.13-1.3-4.5-2.07-7.27-6.7-6.96-11.64l.16-2.6c.2-3.21,1.67-6.18,4.06-8.28v-19.78c0-.65.05-1.29.15-1.92-.55-1.55-.83-3.2-.83-4.88,0-3.96,1.56-7.66,4.38-10.41,2.75-2.68,6.38-4.15,10.22-4.15s7.46,1.47,10.2,4.13c2.84,2.77,4.4,6.47,4.4,10.43,0,1.58-.25,3.11-.73,4.57.14.72.21,1.47.21,2.23v25.44c0,3.24-.88,6.43-2.55,9.21-1.69,2.82-4.07,5.06-7.06,6.66-2.81,1.52-6.02,2.29-9.51,2.29Z"/>
    <path d="M368.8,66.54c-3.59,0-6.99-.7-10.12-2.08,0,0,0,0-.01,0-3.64-1.61-6.62-4.06-8.86-7.29-2.34-3.38-3.57-7.48-3.57-11.87v-15.08c0-6.63,5.37-12,12-12h4c2.76,0,5.29.93,7.32,2.49,2.03-1.56,4.56-2.49,7.32-2.49h4c6.63,0,12,5.37,12,12v23.6c0,6.63-5.37,12-12,12h-4c-.55,0-1.09-.04-1.61-.11-2.03.55-4.19.83-6.47.83Z"/>
    <path d="M398.32,66.54c-3.59,0-6.99-.7-10.12-2.08,0,0,0,0-.01,0-3.64-1.61-6.62-4.06-8.86-7.29-2.34-3.38-3.57-7.48-3.57-11.87v-15.08c0-6.63,5.37-12,12-12h4c2.76,0,5.29.93,7.32,2.49,2.03-1.56,4.56-2.49,7.32-2.49h4c6.63,0,12,5.37,12,12v23.6c0,6.63-5.37,12-12,12h-4c-.55,0-1.09-.04-1.61-.11-2.03.55-4.19.83-6.47.83Z"/>
    <path d="M440.16,65.82h-4c-2.77,0-5.33-.94-7.36-2.52-2.03,1.58-4.59,2.52-7.36,2.52h-4c-6.63,0-12-5.37-12-12v-23.6c0-6.63,5.37-12,12-12h4c.56,0,1.1.04,1.64.11,2.06-.55,4.27-.83,6.6-.83,3.66,0,7.09.69,10.19,2.05,3.72,1.64,6.71,4.15,8.91,7.47,2.25,3.39,3.38,7.33,3.38,11.72v15.08c0,6.63-5.37,12-12,12Z"/>
    <path d="M451.08,65.82h-4c-6.63,0-12-5.37-12-12v-23.6c0-.76.07-1.51.21-2.23-.48-1.46-.73-3-.73-4.57,0-3.96,1.56-7.66,4.38-10.41,2.75-2.68,6.38-4.15,10.22-4.15s7.46,1.47,10.2,4.13c2.84,2.77,4.4,6.47,4.4,10.43,0,1.69-.29,3.33-.83,4.88.1.62.15,1.26.15,1.92v23.6c0,6.63-5.37,12-12,12Z"/>
    <path d="M469.24,66.54c-5.2,0-9.93-1.15-14.07-3.42-5.74-3.14-9.36-8.48-10.2-15.03-.35-2.73.26-5.48,1.67-7.79-.3-1.27-.45-2.58-.45-3.93,0-4.34,1.55-8.36,4.47-11.62,2.26-2.51,5.14-4.42,8.58-5.68,2.9-1.05,6.01-1.59,9.27-1.59s6.34.52,9.28,1.56c3.44,1.22,6.4,3.09,8.81,5.59,2.83,2.93,4.64,6.6,5.25,10.61.29,1.92.11,3.86-.5,5.66.73,1.99,1.11,4.14,1.11,6.39,0,4.75-1.8,9.18-5.06,12.49-2.47,2.5-5.55,4.34-9.16,5.44-2.83.87-5.86,1.31-9.02,1.31Z"/>
    <path d="M524.84,65.82h-24.28c-6.63,0-12-5.37-12-12v-1.76c0-4.58,1.19-8.81,3.46-12.45-.14-.15-.28-.3-.41-.45-2.28-2.63-3.3-6.12-2.81-9.57.54-3.75,1.9-7.17,4.04-10.16,2.25-3.14,5.28-5.59,8.99-7.27,3.34-1.5,7.13-2.26,11.28-2.26,3.88,0,7.5.67,10.78,1.99,3.83,1.55,6.96,3.86,9.33,6.87,2.7,3.46,4.13,7.64,4.13,12.1,0,4.08-1.21,7.91-3.5,11.1-.1.14-.2.28-.3.41,2.11,2.23,3.29,5.18,3.29,8.25v3.2c0,6.63-5.37,12-12,12Z"/>
    <path d="M544.28,66.54c-5.27,0-10.05-1.43-14.19-4.26h0c-3.93-2.67-6.97-6.29-9.05-10.74-1.9-4.07-2.87-8.54-2.87-13.28s.97-9.21,2.87-13.29c2.08-4.45,5.13-8.06,9.05-10.73,4.15-2.83,8.93-4.26,14.19-4.26s10.07,1.45,14.21,4.3c3.9,2.69,6.91,6.3,8.95,10.74,1.86,4.05,2.8,8.5,2.8,13.24s-.94,9.19-2.79,13.23c-2.04,4.44-5.05,8.06-8.95,10.75-4.14,2.86-8.92,4.3-14.22,4.3Z"/>
    <path d="M587.4,65.82h-24.28c-6.63,0-12-5.37-12-12v-1.76c0-4.58,1.19-8.81,3.46-12.45-.14-.15-.28-.3-.41-.45-2.28-2.63-3.3-6.12-2.81-9.57.54-3.75,1.9-7.17,4.04-10.16,2.25-3.14,5.28-5.59,8.99-7.27,3.34-1.5,7.13-2.26,11.28-2.26,3.88,0,7.5.67,10.78,1.99,3.83,1.55,6.96,3.86,9.33,6.87,2.7,3.46,4.13,7.64,4.13,12.1,0,4.08-1.21,7.91-3.5,11.1-.1.14-.2.28-.3.41,2.11,2.23,3.29,5.18,3.29,8.25v3.2c0,6.63-5.37,12-12,12Z"/>
    <path d="M605.08,66.54c-3.91,0-7.58-.72-10.91-2.14-3.69-1.56-6.79-3.89-9.19-6.91-2.5-3.14-4.06-6.82-4.62-10.93-.37-2.68.19-5.38,1.53-7.68v-16.27c0-6.63,5.37-12,12-12h21.24c6.63,0,12,5.37,12,12v3.2c0,1.32-.21,2.6-.61,3.79.14.22.28.45.41.67,2.18,3.67,3.28,7.74,3.28,12.1s-1.16,8.59-3.44,12.35c-2.25,3.7-5.36,6.65-9.26,8.75-3.76,2.03-7.94,3.06-12.42,3.06Z"/>
  </g>
  <g>
    <path d="M22.48,22.62h17.56c2.11,0,3.94.36,5.5,1.08,1.56.72,2.77,1.73,3.62,3.04.85,1.31,1.28,2.81,1.28,4.52.03,1.97-.5,3.63-1.58,4.96-1.08,1.33-2.63,2.31-4.66,2.92l1.4-2.4v3.92l-.84-1.96c1.39.21,2.45.83,3.2,1.86.75,1.03,1.35,2.62,1.8,4.78.51,2.4.99,4.23,1.46,5.48.47,1.25.97,2.25,1.5,3h-4.76c-.48-.75-.87-1.64-1.16-2.68-.29-1.04-.73-2.89-1.32-5.56-.4-1.84-1.06-3.25-1.98-4.22-.92-.97-2.25-1.46-3.98-1.46h-12.6l-.04,13.92h-4.4v-31.2ZM44.34,35.3c1.05-.99,1.57-2.33,1.54-4.04-.03-1.71-.57-3.05-1.62-4.04-1.05-.99-2.46-1.48-4.22-1.48h-13.16l.04,11.04h13.16c1.79,0,3.21-.49,4.26-1.48Z"/>
    <path d="M62.76,52.86c-1.92-1.12-3.42-2.63-4.5-4.54s-1.62-4.01-1.62-6.3.54-4.39,1.62-6.3,2.58-3.42,4.5-4.54c1.92-1.12,4.09-1.68,6.52-1.68s4.6.56,6.52,1.68c1.92,1.12,3.42,2.63,4.5,4.54s1.62,4.01,1.62,6.3-.54,4.39-1.62,6.3-2.58,3.42-4.5,4.54c-1.92,1.12-4.09,1.68-6.52,1.68s-4.6-.56-6.52-1.68ZM73.82,50.5c1.27-.88,2.23-2.06,2.88-3.54.65-1.48.98-3.12.98-4.94s-.33-3.46-.98-4.94c-.65-1.48-1.61-2.66-2.88-3.54-1.27-.88-2.78-1.32-4.54-1.32s-3.27.44-4.54,1.32c-1.27.88-2.23,2.06-2.88,3.54-.65,1.48-.98,3.13-.98,4.94s.33,3.46.98,4.94c.65,1.48,1.61,2.66,2.88,3.54,1.27.88,2.78,1.32,4.54,1.32s3.27-.44,4.54-1.32Z"/>
    <path d="M87.76,22.62h4v9.84l2.12.64-2.2.2c.61-1.09,1.64-2,3.08-2.72s3.19-1.08,5.24-1.08,3.79.35,5.36,1.04c1.57.7,2.82,1.73,3.74,3.12.92,1.39,1.38,3.08,1.38,5.08v15.08h-4v-15.08c0-2.16-.65-3.79-1.96-4.88-1.31-1.09-3-1.64-5.08-1.64-1.73,0-3.31.41-4.74,1.22-1.43.81-2.41,1.77-2.94,2.86v17.52h-4v-31.2Z"/>
    <path d="M117.36,22.62h4v31.2h-4v-31.2ZM120.4,43.22l14-13h4.72l-18.36,17.08-.36-4.08ZM125.52,41.42l2.68-2.84,12.16,15.24h-4.92l-9.92-12.4Z"/>
    <path d="M147.6,52.86c-1.92-1.12-3.41-2.63-4.48-4.54-1.07-1.91-1.6-4.01-1.6-6.3s.53-4.39,1.6-6.3c1.07-1.91,2.55-3.42,4.46-4.54,1.91-1.12,4.07-1.68,6.5-1.68s4.59.56,6.5,1.68c1.91,1.12,3.39,2.63,4.46,4.54s1.6,3.99,1.6,6.26v.08h-4.16v-.08c0-1.79-.32-3.42-.96-4.9-.64-1.48-1.59-2.66-2.86-3.54-1.27-.88-2.79-1.32-4.58-1.32s-3.31.44-4.58,1.32c-1.27.88-2.22,2.07-2.86,3.56-.64,1.49-.96,3.13-.96,4.92s.32,3.43.96,4.92c.64,1.49,1.6,2.68,2.88,3.56,1.28.88,2.83,1.32,4.64,1.32,2.24,0,4.19-.61,5.84-1.82s2.8-2.82,3.44-4.82h2.88c-.43,1.92-1.25,3.59-2.48,5-1.23,1.41-2.69,2.49-4.4,3.24-1.71.75-3.47,1.12-5.28,1.12-2.45,0-4.64-.56-6.56-1.68ZM144.68,39.34h19.8v2.72h-19.8v-2.72Z"/>
    <path d="M172.32,30.22h4v2.24l.4.12c.61-.91,1.53-1.65,2.76-2.22,1.23-.57,2.68-.86,4.36-.86s3.21.33,4.58,1c1.37.67,2.43,1.69,3.18,3.08l-1.96-.24h4.64l-2.56.08c.99-1.28,2.15-2.25,3.48-2.92,1.33-.67,2.96-1,4.88-1,1.71,0,3.28.31,4.72.94,1.44.63,2.59,1.56,3.44,2.8s1.28,2.77,1.28,4.58v16h-4v-16c0-1.63-.55-2.97-1.64-4.02-1.09-1.05-2.52-1.58-4.28-1.58-1.47,0-2.77.37-3.92,1.1-1.15.73-2.07,1.67-2.76,2.82v17.68h-4v-16c0-1.63-.52-2.97-1.56-4.02-1.04-1.05-2.39-1.58-4.04-1.58-1.41,0-2.77.38-4.06,1.14-1.29.76-2.27,1.69-2.94,2.78v17.68h-4v-23.6Z"/>
    <path d="M230.96,25.28c-.51-.52-.76-1.14-.76-1.86s.25-1.33.76-1.82c.51-.49,1.12-.74,1.84-.74s1.33.25,1.84.74c.51.49.76,1.1.76,1.82s-.25,1.34-.76,1.86c-.51.52-1.12.78-1.84.78s-1.33-.26-1.84-.78ZM230.72,30.22h4v23.6h-4v-23.6Z"/>
    <path d="M241.88,30.22h4v2.24l2.12.64-2.2.2c.61-1.09,1.64-2,3.08-2.72,1.44-.72,3.19-1.08,5.24-1.08s3.79.35,5.36,1.04c1.57.7,2.82,1.73,3.74,3.12.92,1.39,1.38,3.08,1.38,5.08v15.08h-4v-15.08c0-2.16-.65-3.79-1.96-4.88-1.31-1.09-3-1.64-5.08-1.64-1.73,0-3.31.41-4.74,1.22-1.43.81-2.41,1.77-2.94,2.86v17.52h-4v-23.6Z"/>
    <path d="M283.28,30.22v2.72h-14.28v-2.72h14.28ZM275,24.04c1.41-1.43,3.57-2.14,6.48-2.14.91,0,1.63.05,2.16.16v2.88c-.53-.11-1.19-.16-1.96-.16-1.12,0-2.01.17-2.66.5-.65.33-1.15.98-1.48,1.94-.33.96-.5,2.35-.5,4.16v22.44h-4.16v-22.44c0-3.46.71-5.91,2.12-7.34Z"/>
    <path d="M291.72,52.86c-1.92-1.12-3.42-2.63-4.5-4.54s-1.62-4.01-1.62-6.3.54-4.39,1.62-6.3,2.58-3.42,4.5-4.54c1.92-1.12,4.09-1.68,6.52-1.68s4.6.56,6.52,1.68c1.92,1.12,3.42,2.63,4.5,4.54s1.62,4.01,1.62,6.3-.54,4.39-1.62,6.3-2.58,3.42-4.5,4.54c-1.92,1.12-4.09,1.68-6.52,1.68s-4.6-.56-6.52-1.68ZM302.78,50.5c1.27-.88,2.23-2.06,2.88-3.54.65-1.48.98-3.12.98-4.94s-.33-3.46-.98-4.94-1.61-2.66-2.88-3.54c-1.27-.88-2.78-1.32-4.54-1.32s-3.27.44-4.54,1.32c-1.27.88-2.23,2.06-2.88,3.54-.65,1.48-.98,3.13-.98,4.94s.33,3.46.98,4.94c.65,1.48,1.61,2.66,2.88,3.54,1.27.88,2.78,1.32,4.54,1.32s3.27-.44,4.54-1.32Z"/>
    <path d="M318.94,53.04c-.92-1-1.38-2.37-1.38-4.1v-16h-3.6v-2.72h3.6v-5.16l4-.04v5.2h5.56v2.72h-5.56v16.2c0,.8.2,1.44.6,1.92.4.48,1.05.72,1.96.72s1.85-.24,2.84-.72l.92,2.32c-.72.38-1.48.66-2.28.86-.8.2-1.61.3-2.44.3-1.89,0-3.3-.5-4.22-1.5Z"/>
    <path d="M351.72,30.22v25.44c0,1.09-.28,2.11-.84,3.04-.56.93-1.37,1.69-2.44,2.26-1.07.57-2.35.86-3.84.86-.45,0-.83-.07-1.12-.2l.16-2.6c.19.05.51.08.96.08.99,0,1.75-.29,2.3-.86.55-.57.82-1.45.82-2.62v-25.4h4ZM347.8,25.28c-.51-.52-.76-1.14-.76-1.86s.25-1.33.76-1.82c.51-.49,1.12-.74,1.84-.74s1.33.25,1.84.74c.51.49.76,1.1.76,1.82s-.25,1.34-.76,1.86c-.51.52-1.12.78-1.84.78s-1.33-.26-1.84-.78Z"/>
    <path d="M363.52,53.48c-1.6-.71-2.88-1.75-3.84-3.14s-1.44-3.07-1.44-5.04v-15.08h4v15.08c0,2,.66,3.61,1.98,4.82,1.32,1.21,3.06,1.82,5.22,1.82,1.76,0,3.28-.4,4.56-1.2,1.28-.8,2.24-1.8,2.88-3v-17.52h4v23.6h-4v-2.24l-.4-.12c-.72.91-1.74,1.65-3.06,2.22-1.32.57-2.86.86-4.62.86-1.92,0-3.68-.35-5.28-1.06Z"/>
    <path d="M393.04,53.48c-1.6-.71-2.88-1.75-3.84-3.14s-1.44-3.07-1.44-5.04v-15.08h4v15.08c0,2,.66,3.61,1.98,4.82,1.32,1.21,3.06,1.82,5.22,1.82,1.76,0,3.28-.4,4.56-1.2,1.28-.8,2.24-1.8,2.88-3v-17.52h4v23.6h-4v-2.24l-.4-.12c-.72.91-1.74,1.65-3.06,2.22-1.32.57-2.86.86-4.62.86-1.92,0-3.68-.35-5.28-1.06Z"/>
    <path d="M417.44,30.22h4v2.24l2.12.64-2.2.2c.61-1.09,1.64-2,3.08-2.72,1.44-.72,3.19-1.08,5.24-1.08s3.79.35,5.36,1.04c1.57.7,2.82,1.73,3.74,3.12.92,1.39,1.38,3.08,1.38,5.08v15.08h-4v-15.08c0-2.16-.65-3.79-1.96-4.88-1.31-1.09-3-1.64-5.08-1.64-1.73,0-3.31.41-4.74,1.22-1.43.81-2.41,1.77-2.94,2.86v17.52h-4v-23.6Z"/>
    <path d="M447.32,25.28c-.51-.52-.76-1.14-.76-1.86s.25-1.33.76-1.82c.51-.49,1.12-.74,1.84-.74s1.33.25,1.84.74c.51.49.76,1.1.76,1.82s-.25,1.34-.76,1.86c-.51.52-1.12.78-1.84.78s-1.33-.26-1.84-.78ZM447.08,30.22h4v23.6h-4v-23.6Z"/>
    <path d="M473.38,33.44c-1.37-.81-3.01-1.22-4.9-1.22s-3.45.35-4.58,1.04c-1.13.69-1.7,1.6-1.7,2.72,0,.85.35,1.57,1.04,2.16.69.59,1.87,1.01,3.52,1.28l4.68.72c2.99.45,5.24,1.26,6.76,2.42,1.52,1.16,2.28,2.74,2.28,4.74,0,1.62-.53,2.98-1.6,4.06s-2.45,1.88-4.14,2.4-3.53.78-5.5.78c-3.17,0-5.94-.65-8.3-1.94-2.36-1.29-3.71-3.3-4.06-6.02h4.2c.27,1.68,1.11,2.97,2.54,3.88,1.43.91,3.3,1.36,5.62,1.36s4.07-.41,5.34-1.24,1.9-1.89,1.9-3.2c0-1.22-.47-2.14-1.42-2.74-.95-.6-2.37-1.05-4.26-1.34l-4.64-.68c-2.4-.35-4.33-1.04-5.78-2.08-1.45-1.04-2.18-2.43-2.18-4.16,0-1.36.47-2.56,1.4-3.6.93-1.04,2.19-1.85,3.76-2.42,1.57-.57,3.29-.86,5.16-.86s3.63.29,5.3.88c1.67.59,3.05,1.46,4.16,2.6,1.11,1.15,1.78,2.51,2.02,4.08h-4.2c-.24-1.6-1.05-2.81-2.42-3.62Z"/>
    <path d="M524.12,34.94c-.83,1.15-1.83,2.08-3,2.8-1.17.72-2.72,1.53-4.64,2.44l-1.4.68-2.2,1.08c-1.97.96-3.51,1.88-4.6,2.76-1.09.88-1.91,1.89-2.44,3.04-.53,1.15-.8,2.59-.8,4.32l-.88-1.4,20.68-.04v3.2h-24.28v-1.76c0-3.07.96-5.63,2.88-7.7s4.52-3.93,7.8-5.58l2.32-1.16c.43-.21.84-.41,1.24-.6,1.39-.69,2.48-1.29,3.28-1.78s1.45-1.1,1.96-1.82.76-1.6.76-2.64c0-1.84-.71-3.27-2.12-4.3-1.41-1.03-3.23-1.54-5.44-1.54s-4.18.58-5.58,1.74c-1.4,1.16-2.21,2.7-2.42,4.62h-4.56c.27-1.84.91-3.47,1.92-4.88,1.01-1.41,2.41-2.52,4.18-3.32,1.77-.8,3.89-1.2,6.34-1.2s4.45.37,6.3,1.12c1.85.75,3.31,1.79,4.36,3.14,1.05,1.35,1.58,2.91,1.58,4.7,0,1.57-.41,2.93-1.24,4.08Z"/>
    <path d="M536.84,52.36c-2.13-1.45-3.78-3.42-4.94-5.9-1.16-2.48-1.74-5.21-1.74-8.2s.58-5.72,1.74-8.2c1.16-2.48,2.81-4.45,4.94-5.9s4.61-2.18,7.44-2.18,5.29.73,7.4,2.18c2.11,1.45,3.73,3.41,4.86,5.88,1.13,2.47,1.7,5.21,1.7,8.22s-.57,5.75-1.7,8.22c-1.13,2.47-2.75,4.43-4.86,5.88-2.11,1.46-4.57,2.18-7.4,2.18s-5.31-.72-7.44-2.18ZM549.4,49.68c1.41-1.16,2.48-2.73,3.2-4.72.72-1.99,1.08-4.22,1.08-6.7s-.36-4.71-1.08-6.7c-.72-1.99-1.79-3.56-3.2-4.72-1.41-1.16-3.12-1.74-5.12-1.74s-3.76.58-5.2,1.74c-1.44,1.16-2.53,2.73-3.26,4.72s-1.1,4.22-1.1,6.7.37,4.71,1.12,6.7c.75,1.99,1.84,3.56,3.28,4.72,1.44,1.16,3.16,1.74,5.16,1.74s3.71-.58,5.12-1.74Z"/>
    <path d="M586.68,34.94c-.83,1.15-1.83,2.08-3,2.8-1.17.72-2.72,1.53-4.64,2.44l-1.4.68-2.2,1.08c-1.97.96-3.51,1.88-4.6,2.76-1.09.88-1.91,1.89-2.44,3.04-.53,1.15-.8,2.59-.8,4.32l-.88-1.4,20.68-.04v3.2h-24.28v-1.76c0-3.07.96-5.63,2.88-7.7s4.52-3.93,7.8-5.58l2.32-1.16c.43-.21.84-.41,1.24-.6,1.39-.69,2.48-1.29,3.28-1.78s1.45-1.1,1.96-1.82.76-1.6.76-2.64c0-1.84-.71-3.27-2.12-4.3-1.41-1.03-3.23-1.54-5.44-1.54s-4.18.58-5.58,1.74c-1.4,1.16-2.21,2.7-2.42,4.62h-4.56c.27-1.84.91-3.47,1.92-4.88,1.01-1.41,2.41-2.52,4.18-3.32,1.77-.8,3.89-1.2,6.34-1.2s4.45.37,6.3,1.12c1.85.75,3.31,1.79,4.36,3.14,1.05,1.35,1.58,2.91,1.58,4.7,0,1.57-.41,2.93-1.24,4.08Z"/>
    <path d="M615.12,22.62v3.2h-17.24v8.6h2.24l-2.28.6c.59-1.28,1.64-2.33,3.16-3.16,1.52-.83,3.28-1.24,5.28-1.24,2.19,0,4.19.51,6,1.54s3.25,2.44,4.32,4.24c1.07,1.8,1.6,3.79,1.6,5.98s-.57,4.25-1.7,6.12-2.7,3.34-4.7,4.42-4.24,1.62-6.72,1.62c-2.29,0-4.37-.39-6.22-1.18-1.85-.79-3.35-1.9-4.5-3.34-1.15-1.44-1.85-3.13-2.12-5.08h4.56c.56,2.32,1.59,3.99,3.1,5.02,1.51,1.03,3.23,1.54,5.18,1.54,1.68,0,3.17-.39,4.48-1.18,1.31-.79,2.33-1.87,3.06-3.26s1.1-2.95,1.1-4.68-.35-3.19-1.04-4.52c-.69-1.33-1.66-2.37-2.9-3.1-1.24-.73-2.63-1.1-4.18-1.1-1.41,0-2.67.31-3.76.94s-1.96,1.44-2.6,2.44-1.04,2.07-1.2,3.22h-4.16v-17.64h21.24Z"/>
  </g>
  <g>
    <path d="M89.29,113.82h-4.16c-2.52,0-4.87-.78-6.8-2.11-1.97,1.35-4.33,2.11-6.8,2.11h-4c-2.5,0-4.88-.78-6.86-2.15-1.94,1.36-4.31,2.15-6.86,2.15h-4.16c-6.63,0-12-5.37-12-12v-31.2c0-6.63,5.37-12,12-12h5.12c4.37,0,8.39,2.38,10.51,6.2l4.43,8.03,4.38-7.99c2.11-3.85,6.14-6.24,10.53-6.24h4.68c6.63,0,12,5.37,12,12v31.2c0,6.63-5.37,12-12,12Z"/>
    <path d="M108.33,114.54c-4.57,0-8.8-1.11-12.56-3.31h0c-3.77-2.2-6.76-5.22-8.9-8.99-2.11-3.73-3.18-7.83-3.18-12.22s1.07-8.49,3.18-12.21c2.13-3.77,5.13-6.79,8.89-8.99,3.78-2.2,8.01-3.32,12.57-3.32s8.79,1.11,12.56,3.31c3.77,2.2,6.76,5.23,8.9,8.99,2.11,3.72,3.18,7.83,3.18,12.21s-1.07,8.49-3.18,12.22c-2.14,3.77-5.13,6.79-8.9,8.99-3.76,2.2-7.99,3.31-12.56,3.31ZM107.01,91.93s0,0,0,0l.58-1h0s-.58.99-.58.99ZM107.6,90.91h0s.25-.42.25-.42c0,0,0,0,0,0l-.25.42Z"/>
    <path d="M130.76,113.82h-4c-6.63,0-12-5.37-12-12v-23.6c0-6.63,5.37-12,12-12h4c.85,0,1.69.09,2.49.26,3.05-.73,6.39-.86,9.63-.36,1.33.2,2.67.52,3.95.95.58.19,1.14.43,1.68.71,4.01,2.05,6.61,6.22,6.61,10.72v3.04c0,3.9-1.9,7.56-5.08,9.8-2.15,1.52-4.7,2.26-7.28,2.19v8.29c0,6.63-5.37,12-12,12ZM138.89,92.95h0,0ZM139.1,92.84s0,0,0,0c0,0,0,0,0,0Z"/>
    <path d="M158.21,114.54c-4.59,0-8.84-1.11-12.6-3.31h0c-3.79-2.21-6.79-5.25-8.91-9.05-2.07-3.7-3.13-7.8-3.13-12.16s1.05-8.45,3.13-12.16c2.11-3.78,5.09-6.81,8.85-9.02,3.77-2.21,8-3.33,12.58-3.33s8.81,1.12,12.57,3.33c3.77,2.22,6.75,5.25,8.86,9.03,2.07,3.71,3.13,7.79,3.13,12.12,0,.96-.11,1.9-.33,2.79.03,1-.06,2.01-.28,3.01-.86,3.88-2.59,7.34-5.14,10.27-2.39,2.76-5.31,4.9-8.65,6.37-3.23,1.41-6.62,2.12-10.09,2.12Z"/>
    <path d="M195,113.82h-4c-6.63,0-12-5.37-12-12v-23.6c0-.76.07-1.51.21-2.23-.48-1.46-.73-3-.73-4.57,0-3.96,1.56-7.66,4.38-10.41,2.75-2.68,6.38-4.15,10.22-4.15s7.46,1.47,10.2,4.13c2.84,2.77,4.4,6.47,4.4,10.43,0,1.69-.29,3.33-.83,4.88.1.62.15,1.26.15,1.92v23.6c0,6.63-5.37,12-12,12Z"/>
    <path d="M224.92,113.82h-4c-2.77,0-5.33-.94-7.36-2.52-2.03,1.58-4.59,2.52-7.36,2.52h-4c-6.63,0-12-5.37-12-12v-23.6c0-6.63,5.37-12,12-12h4c.56,0,1.1.04,1.64.11,2.06-.55,4.27-.83,6.6-.83,3.66,0,7.09.69,10.19,2.05,3.72,1.64,6.71,4.15,8.91,7.47,2.25,3.39,3.38,7.33,3.38,11.72v15.08c0,6.63-5.37,12-12,12Z"/>
    <path d="M237.36,113.82h-4.16c-6.63,0-12-5.37-12-12v-12.05c-2.39-2.19-3.88-5.34-3.88-8.83v-2.72c0-4.67,2.66-8.71,6.55-10.69.8-1.46,1.77-2.77,2.92-3.93h0c2.57-2.6,7.26-5.69,15-5.69,1.72,0,3.21.13,4.53.4,5.6,1.13,9.63,6.05,9.63,11.76v2.88c0,1.18-.17,2.33-.5,3.43.09.6.14,1.22.14,1.85v2.72c0,4.54-2.52,8.49-6.24,10.53v10.35c0,6.63-5.37,12-12,12Z"/>
    <path d="M258.56,114.54c-4.57,0-8.8-1.11-12.56-3.31h0c-3.77-2.2-6.76-5.22-8.9-8.99-2.11-3.72-3.18-7.83-3.18-12.22s1.07-8.49,3.18-12.21c2.13-3.76,5.12-6.79,8.89-8.99,3.78-2.2,8.01-3.32,12.57-3.32s8.79,1.11,12.56,3.31c3.77,2.2,6.76,5.23,8.9,8.99,2.11,3.72,3.18,7.83,3.18,12.21s-1.07,8.49-3.18,12.22c-2.14,3.77-5.13,6.79-8.9,8.99-3.76,2.2-7.99,3.31-12.56,3.31ZM257.25,91.93s0,0,0,0l.58-1h0s-.58.99-.58.99ZM257.84,90.91h0s.25-.42.25-.42c0,0,0,0,0,0l-.25.42Z"/>
    <path d="M295.52,113.82h-4c-6.63,0-12-5.37-12-12v-23.6c0-.76.07-1.51.21-2.23-.48-1.46-.73-3-.73-4.57,0-3.96,1.56-7.66,4.38-10.41,2.75-2.68,6.38-4.15,10.22-4.15s7.46,1.47,10.2,4.13c2.84,2.77,4.4,6.47,4.4,10.43,0,1.69-.29,3.33-.83,4.88.1.62.15,1.26.15,1.92v23.6c0,6.63-5.37,12-12,12Z"/>
    <path d="M325.44,113.82h-4c-2.77,0-5.33-.94-7.36-2.52-2.03,1.58-4.59,2.52-7.36,2.52h-4c-6.63,0-12-5.37-12-12v-23.6c0-6.63,5.37-12,12-12h4c.56,0,1.1.04,1.64.11,2.06-.55,4.27-.83,6.6-.83,3.66,0,7.09.69,10.19,2.05,3.72,1.64,6.71,4.15,8.91,7.47,2.25,3.39,3.38,7.33,3.38,11.72v15.08c0,6.63-5.37,12-12,12Z"/>
    <path d="M353.52,114.54c-5.28,0-9.91-1.32-13.78-3.94,0,0,0,0,0,0-5.12-3.46-8.06-9.05-8.06-15.34,0-6.63,5.37-12,12-12h3.28v-12.64c0-6.63,5.37-12,12-12h4.4c6.63,0,12,5.37,12,12v22.4c0,8.35-3.49,13.32-6.41,16.01-2.72,2.51-7.62,5.51-15.43,5.51ZM346.95,93.24h0Z"/>
    <path d="M381.12,114.54c-3.59,0-6.99-.7-10.12-2.08,0,0,0,0-.01,0-3.64-1.61-6.62-4.06-8.86-7.29-2.34-3.38-3.57-7.48-3.57-11.87v-15.08c0-6.63,5.37-12,12-12h4c2.76,0,5.29.93,7.32,2.49,2.03-1.56,4.56-2.49,7.32-2.49h4c6.63,0,12,5.37,12,12v23.6c0,6.63-5.37,12-12,12h-4c-.55,0-1.09-.04-1.61-.11-2.03.55-4.19.83-6.47.83Z"/>
    <path d="M422.96,113.82h-4c-2.77,0-5.33-.94-7.36-2.52-2.03,1.58-4.59,2.52-7.36,2.52h-4c-6.63,0-12-5.37-12-12v-23.6c0-6.63,5.37-12,12-12h4c.56,0,1.1.04,1.64.11,2.06-.55,4.27-.83,6.6-.83,3.66,0,7.09.69,10.19,2.05,3.72,1.64,6.71,4.15,8.91,7.47,2.25,3.39,3.38,7.33,3.38,11.72v15.08c0,6.63-5.37,12-12,12Z"/>
    <path d="M441.2,114.54c-4.59,0-8.84-1.11-12.6-3.31h0c-3.79-2.21-6.79-5.25-8.91-9.05-2.07-3.7-3.13-7.8-3.13-12.16s1.05-8.45,3.13-12.16c2.11-3.78,5.09-6.81,8.85-9.02,3.77-2.21,8-3.33,12.58-3.33s8.81,1.12,12.57,3.33c3.77,2.22,6.75,5.25,8.86,9.03,2.07,3.71,3.13,7.79,3.13,12.12,0,.96-.11,1.9-.33,2.79.03,1-.06,2.01-.28,3.01-.86,3.88-2.59,7.34-5.14,10.27-2.39,2.76-5.31,4.9-8.65,6.37-3.23,1.41-6.62,2.12-10.09,2.12Z"/>
    <path d="M497.64,113.82h-24.28c-6.63,0-12-5.37-12-12v-1.76c0-4.58,1.19-8.81,3.46-12.45-.14-.15-.28-.3-.41-.45-2.28-2.63-3.3-6.12-2.81-9.57.54-3.75,1.9-7.17,4.04-10.16,2.25-3.14,5.28-5.59,8.99-7.27,3.34-1.5,7.13-2.26,11.28-2.26,3.88,0,7.5.67,10.78,1.99,3.83,1.55,6.96,3.86,9.33,6.87,2.7,3.46,4.13,7.64,4.13,12.1,0,4.08-1.21,7.91-3.5,11.1-.1.14-.2.28-.3.41,2.11,2.23,3.29,5.18,3.29,8.25v3.2c0,6.63-5.37,12-12,12Z"/>
    <path d="M517.08,114.54c-5.27,0-10.05-1.43-14.19-4.26h0c-3.93-2.67-6.97-6.29-9.05-10.74-1.9-4.07-2.87-8.54-2.87-13.28s.97-9.21,2.87-13.29c2.08-4.45,5.13-8.06,9.05-10.73,4.15-2.83,8.93-4.26,14.19-4.26s10.07,1.45,14.21,4.3c3.9,2.69,6.91,6.3,8.95,10.74,1.86,4.05,2.8,8.5,2.8,13.24s-.94,9.19-2.79,13.23c-2.04,4.44-5.05,8.06-8.95,10.75-4.14,2.86-8.92,4.3-14.22,4.3Z"/>
    <path d="M560.2,113.82h-24.28c-6.63,0-12-5.37-12-12v-1.76c0-4.58,1.19-8.81,3.46-12.45-.14-.15-.28-.3-.41-.45-2.28-2.63-3.3-6.12-2.81-9.57.54-3.75,1.9-7.17,4.04-10.16,2.25-3.14,5.28-5.59,8.99-7.27,3.34-1.5,7.13-2.26,11.28-2.26,3.88,0,7.5.67,10.78,1.99,3.83,1.55,6.96,3.86,9.33,6.87,2.7,3.46,4.13,7.64,4.13,12.1,0,4.08-1.21,7.91-3.5,11.1-.1.14-.2.28-.3.41,2.11,2.23,3.29,5.18,3.29,8.25v3.2c0,6.63-5.37,12-12,12Z"/>
    <path d="M577.88,114.54c-3.91,0-7.58-.72-10.91-2.14-3.69-1.56-6.79-3.89-9.19-6.91-2.5-3.14-4.06-6.82-4.62-10.93-.37-2.68.19-5.38,1.53-7.68v-16.27c0-6.63,5.37-12,12-12h21.24c6.63,0,12,5.37,12,12v3.2c0,1.32-.21,2.6-.61,3.79.14.22.28.45.41.67,2.18,3.67,3.28,7.74,3.28,12.1s-1.16,8.59-3.44,12.35c-2.25,3.7-5.36,6.65-9.26,8.75-3.76,2.03-7.94,3.06-12.42,3.06Z"/>
  </g>
  <g>
    <path d="M89.29,101.82h-4.16v-26.56l.8.12-14.4,26.44h-4l-14.52-26.44.8-.12v26.56h-4.16v-31.2h5.12l15.72,28.48-1.56.16,15.68-28.64h4.68v31.2Z"/>
    <path d="M101.8,100.86c-1.92-1.12-3.42-2.63-4.5-4.54-1.08-1.91-1.62-4.01-1.62-6.3s.54-4.39,1.62-6.3c1.08-1.91,2.58-3.42,4.5-4.54,1.92-1.12,4.09-1.68,6.52-1.68s4.6.56,6.52,1.68c1.92,1.12,3.42,2.63,4.5,4.54s1.62,4.01,1.62,6.3-.54,4.39-1.62,6.3-2.58,3.42-4.5,4.54c-1.92,1.12-4.09,1.68-6.52,1.68s-4.6-.56-6.52-1.68ZM112.87,98.5c1.27-.88,2.23-2.06,2.88-3.54.65-1.48.98-3.12.98-4.94s-.33-3.46-.98-4.94-1.61-2.66-2.88-3.54c-1.27-.88-2.78-1.32-4.54-1.32s-3.27.44-4.54,1.32c-1.27.88-2.23,2.06-2.88,3.54-.65,1.48-.98,3.13-.98,4.94s.33,3.46.98,4.94c.65,1.48,1.61,2.66,2.88,3.54,1.27.88,2.78,1.32,4.54,1.32s3.27-.44,4.54-1.32Z"/>
    <path d="M126.76,78.22h4v3l.84.56-1.72,1.6c.61-1.87,1.76-3.26,3.44-4.18s3.56-1.38,5.64-1.38c.69,0,1.39.05,2.08.16.69.11,1.36.27,2,.48l.08.04v3.04c-1.12-.4-2.45-.6-4-.6-1.95,0-3.7.38-5.26,1.14-1.56.76-2.59,1.94-3.1,3.54v16.2h-4v-23.6Z"/>
    <path d="M151.64,100.86c-1.92-1.12-3.41-2.63-4.48-4.54-1.07-1.91-1.6-4.01-1.6-6.3s.53-4.39,1.6-6.3c1.07-1.91,2.55-3.42,4.46-4.54,1.91-1.12,4.07-1.68,6.5-1.68s4.59.56,6.5,1.68c1.91,1.12,3.39,2.63,4.46,4.54s1.6,3.99,1.6,6.26v.08h-4.16v-.08c0-1.79-.32-3.42-.96-4.9-.64-1.48-1.59-2.66-2.86-3.54-1.27-.88-2.79-1.32-4.58-1.32s-3.31.44-4.58,1.32c-1.27.88-2.22,2.07-2.86,3.56-.64,1.49-.96,3.13-.96,4.92s.32,3.43.96,4.92c.64,1.49,1.6,2.68,2.88,3.56,1.28.88,2.83,1.32,4.64,1.32,2.24,0,4.19-.61,5.84-1.82s2.8-2.82,3.44-4.82h2.88c-.43,1.92-1.25,3.59-2.48,5-1.23,1.41-2.69,2.49-4.4,3.24-1.71.75-3.47,1.12-5.28,1.12-2.45,0-4.64-.56-6.56-1.68ZM148.72,87.34h19.8v2.72h-19.8v-2.72Z"/>
    <path d="M191.24,73.28c-.51-.52-.76-1.14-.76-1.86s.25-1.33.76-1.82c.51-.49,1.12-.74,1.84-.74s1.33.25,1.84.74c.51.49.76,1.1.76,1.82s-.25,1.34-.76,1.86c-.51.52-1.12.78-1.84.78s-1.33-.26-1.84-.78ZM191,78.22h4v23.6h-4v-23.6Z"/>
    <path d="M202.2,78.22h4v2.24l2.12.64-2.2.2c.61-1.09,1.64-2,3.08-2.72,1.44-.72,3.19-1.08,5.24-1.08s3.79.35,5.36,1.04c1.57.7,2.82,1.73,3.74,3.12.92,1.39,1.38,3.08,1.38,5.08v15.08h-4v-15.08c0-2.16-.65-3.79-1.96-4.88-1.31-1.09-3-1.64-5.08-1.64-1.73,0-3.31.41-4.74,1.22-1.43.81-2.41,1.77-2.94,2.86v17.52h-4v-23.6Z"/>
    <path d="M243.6,78.22v2.72h-14.28v-2.72h14.28ZM235.32,72.04c1.41-1.43,3.57-2.14,6.48-2.14.91,0,1.63.05,2.16.16v2.88c-.53-.11-1.19-.16-1.96-.16-1.12,0-2.01.17-2.66.5-.65.33-1.15.98-1.48,1.94-.33.96-.5,2.35-.5,4.16v22.44h-4.16v-22.44c0-3.46.71-5.91,2.12-7.34Z"/>
    <path d="M252.04,100.86c-1.92-1.12-3.42-2.63-4.5-4.54s-1.62-4.01-1.62-6.3.54-4.39,1.62-6.3,2.58-3.42,4.5-4.54c1.92-1.12,4.09-1.68,6.52-1.68s4.6.56,6.52,1.68c1.92,1.12,3.42,2.63,4.5,4.54s1.62,4.01,1.62,6.3-.54,4.39-1.62,6.3-2.58,3.42-4.5,4.54c-1.92,1.12-4.09,1.68-6.52,1.68s-4.6-.56-6.52-1.68ZM263.1,98.5c1.27-.88,2.23-2.06,2.88-3.54.65-1.48.98-3.12.98-4.94s-.33-3.46-.98-4.94-1.61-2.66-2.88-3.54c-1.27-.88-2.78-1.32-4.54-1.32s-3.27.44-4.54,1.32c-1.27.88-2.23,2.06-2.88,3.54-.65,1.48-.98,3.13-.98,4.94s.33,3.46.98,4.94c.65,1.48,1.61,2.66,2.88,3.54,1.27.88,2.78,1.32,4.54,1.32s3.27-.44,4.54-1.32Z"/>
    <path d="M291.76,73.28c-.51-.52-.76-1.14-.76-1.86s.25-1.33.76-1.82c.51-.49,1.12-.74,1.84-.74s1.33.25,1.84.74c.51.49.76,1.1.76,1.82s-.25,1.34-.76,1.86c-.51.52-1.12.78-1.84.78s-1.33-.26-1.84-.78ZM291.52,78.22h4v23.6h-4v-23.6Z"/>
    <path d="M302.72,78.22h4v2.24l2.12.64-2.2.2c.61-1.09,1.64-2,3.08-2.72,1.44-.72,3.19-1.08,5.24-1.08s3.79.35,5.36,1.04c1.57.7,2.82,1.73,3.74,3.12.92,1.39,1.38,3.08,1.38,5.08v15.08h-4v-15.08c0-2.16-.65-3.79-1.96-4.88-1.31-1.09-3-1.64-5.08-1.64-1.73,0-3.31.41-4.74,1.22-1.43.81-2.41,1.77-2.94,2.86v17.52h-4v-23.6Z"/>
    <path d="M346.46,100.66c-1.85-1.25-2.78-3.05-2.78-5.4h4.4c0,1.25.48,2.33,1.44,3.22.96.89,2.29,1.34,4,1.34,1.84,0,3.21-.57,4.1-1.72.89-1.15,1.34-2.84,1.34-5.08v-22.4h4.4v22.4c0,3.23-.85,5.62-2.54,7.18-1.69,1.56-4.13,2.34-7.3,2.34-2.85,0-5.21-.63-7.06-1.88Z"/>
    <path d="M375.84,101.48c-1.6-.71-2.88-1.75-3.84-3.14s-1.44-3.07-1.44-5.04v-15.08h4v15.08c0,2,.66,3.61,1.98,4.82,1.32,1.21,3.06,1.82,5.22,1.82,1.76,0,3.28-.4,4.56-1.2,1.28-.8,2.24-1.8,2.88-3v-17.52h4v23.6h-4v-2.24l-.4-.12c-.72.91-1.74,1.65-3.06,2.22-1.32.57-2.86.86-4.62.86-1.92,0-3.68-.35-5.28-1.06Z"/>
    <path d="M400.24,78.22h4v2.24l2.12.64-2.2.2c.61-1.09,1.64-2,3.08-2.72,1.44-.72,3.19-1.08,5.24-1.08s3.79.35,5.36,1.04c1.57.7,2.82,1.73,3.74,3.12.92,1.39,1.38,3.08,1.38,5.08v15.08h-4v-15.08c0-2.16-.65-3.79-1.96-4.88-1.31-1.09-3-1.64-5.08-1.64-1.73,0-3.31.41-4.74,1.22-1.43.81-2.41,1.77-2.94,2.86v17.52h-4v-23.6Z"/>
    <path d="M434.64,100.86c-1.92-1.12-3.41-2.63-4.48-4.54-1.07-1.91-1.6-4.01-1.6-6.3s.53-4.39,1.6-6.3c1.07-1.91,2.55-3.42,4.46-4.54,1.91-1.12,4.07-1.68,6.5-1.68s4.59.56,6.5,1.68c1.91,1.12,3.39,2.63,4.46,4.54s1.6,3.99,1.6,6.26v.08h-4.16v-.08c0-1.79-.32-3.42-.96-4.9-.64-1.48-1.59-2.66-2.86-3.54-1.27-.88-2.79-1.32-4.58-1.32s-3.31.44-4.58,1.32c-1.27.88-2.22,2.07-2.86,3.56-.64,1.49-.96,3.13-.96,4.92s.32,3.43.96,4.92c.64,1.49,1.6,2.68,2.88,3.56,1.28.88,2.83,1.32,4.64,1.32,2.24,0,4.19-.61,5.84-1.82s2.8-2.82,3.44-4.82h2.88c-.43,1.92-1.25,3.59-2.48,5-1.23,1.41-2.69,2.49-4.4,3.24-1.71.75-3.47,1.12-5.28,1.12-2.45,0-4.64-.56-6.56-1.68ZM431.72,87.34h19.8v2.72h-19.8v-2.72Z"/>
    <path d="M496.92,82.94c-.83,1.15-1.83,2.08-3,2.8-1.17.72-2.72,1.53-4.64,2.44l-1.4.68-2.2,1.08c-1.97.96-3.51,1.88-4.6,2.76-1.09.88-1.91,1.89-2.44,3.04-.53,1.15-.8,2.59-.8,4.32l-.88-1.4,20.68-.04v3.2h-24.28v-1.76c0-3.07.96-5.63,2.88-7.7s4.52-3.93,7.8-5.58l2.32-1.16c.43-.21.84-.41,1.24-.6,1.39-.69,2.48-1.29,3.28-1.78s1.45-1.1,1.96-1.82.76-1.6.76-2.64c0-1.84-.71-3.27-2.12-4.3-1.41-1.03-3.23-1.54-5.44-1.54s-4.18.58-5.58,1.74c-1.4,1.16-2.21,2.7-2.42,4.62h-4.56c.27-1.84.91-3.47,1.92-4.88,1.01-1.41,2.41-2.52,4.18-3.32,1.77-.8,3.89-1.2,6.34-1.2s4.45.37,6.3,1.12c1.85.75,3.31,1.79,4.36,3.14,1.05,1.35,1.58,2.91,1.58,4.7,0,1.57-.41,2.93-1.24,4.08Z"/>
    <path d="M509.64,100.36c-2.13-1.45-3.78-3.42-4.94-5.9-1.16-2.48-1.74-5.21-1.74-8.2s.58-5.72,1.74-8.2c1.16-2.48,2.81-4.45,4.94-5.9s4.61-2.18,7.44-2.18,5.29.73,7.4,2.18c2.11,1.45,3.73,3.41,4.86,5.88,1.13,2.47,1.7,5.21,1.7,8.22s-.57,5.75-1.7,8.22c-1.13,2.47-2.75,4.43-4.86,5.88-2.11,1.46-4.57,2.18-7.4,2.18s-5.31-.72-7.44-2.18ZM522.2,97.68c1.41-1.16,2.48-2.73,3.2-4.72.72-1.99,1.08-4.22,1.08-6.7s-.36-4.71-1.08-6.7c-.72-1.99-1.79-3.56-3.2-4.72-1.41-1.16-3.12-1.74-5.12-1.74s-3.76.58-5.2,1.74c-1.44,1.16-2.53,2.73-3.26,4.72s-1.1,4.22-1.1,6.7.37,4.71,1.12,6.7c.75,1.99,1.84,3.56,3.28,4.72,1.44,1.16,3.16,1.74,5.16,1.74s3.71-.58,5.12-1.74Z"/>
    <path d="M559.48,82.94c-.83,1.15-1.83,2.08-3,2.8-1.17.72-2.72,1.53-4.64,2.44l-1.4.68-2.2,1.08c-1.97.96-3.51,1.88-4.6,2.76-1.09.88-1.91,1.89-2.44,3.04-.53,1.15-.8,2.59-.8,4.32l-.88-1.4,20.68-.04v3.2h-24.28v-1.76c0-3.07.96-5.63,2.88-7.7s4.52-3.93,7.8-5.58l2.32-1.16c.43-.21.84-.41,1.24-.6,1.39-.69,2.48-1.29,3.28-1.78s1.45-1.1,1.96-1.82.76-1.6.76-2.64c0-1.84-.71-3.27-2.12-4.3-1.41-1.03-3.23-1.54-5.44-1.54s-4.18.58-5.58,1.74c-1.4,1.16-2.21,2.7-2.42,4.62h-4.56c.27-1.84.91-3.47,1.92-4.88,1.01-1.41,2.41-2.52,4.18-3.32,1.77-.8,3.89-1.2,6.34-1.2s4.45.37,6.3,1.12c1.85.75,3.31,1.79,4.36,3.14,1.05,1.35,1.58,2.91,1.58,4.7,0,1.57-.41,2.93-1.24,4.08Z"/>
    <path d="M587.92,70.62v3.2h-17.24v8.6h2.24l-2.28.6c.59-1.28,1.64-2.33,3.16-3.16,1.52-.83,3.28-1.24,5.28-1.24,2.19,0,4.19.51,6,1.54s3.25,2.44,4.32,4.24c1.07,1.8,1.6,3.79,1.6,5.98s-.57,4.25-1.7,6.12-2.7,3.34-4.7,4.42-4.24,1.62-6.72,1.62c-2.29,0-4.37-.39-6.22-1.18-1.85-.79-3.35-1.9-4.5-3.34-1.15-1.44-1.85-3.13-2.12-5.08h4.56c.56,2.32,1.59,3.99,3.1,5.02,1.51,1.03,3.23,1.54,5.18,1.54,1.68,0,3.17-.39,4.48-1.18,1.31-.79,2.33-1.87,3.06-3.26s1.1-2.95,1.1-4.68-.35-3.19-1.04-4.52c-.69-1.33-1.66-2.37-2.9-3.1-1.24-.73-2.63-1.1-4.18-1.1-1.41,0-2.67.31-3.76.94s-1.96,1.44-2.6,2.44-1.04,2.07-1.2,3.22h-4.16v-17.64h21.24Z"/>
  </g>
  <g>
    <path class="cls-1" d="M22.48,22.62h17.56c2.11,0,3.94.36,5.5,1.08,1.56.72,2.77,1.73,3.62,3.04.85,1.31,1.28,2.81,1.28,4.52.03,1.97-.5,3.63-1.58,4.96-1.08,1.33-2.63,2.31-4.66,2.92l1.4-2.4v3.92l-.84-1.96c1.39.21,2.45.83,3.2,1.86.75,1.03,1.35,2.62,1.8,4.78.51,2.4.99,4.23,1.46,5.48.47,1.25.97,2.25,1.5,3h-4.76c-.48-.75-.87-1.64-1.16-2.68-.29-1.04-.73-2.89-1.32-5.56-.4-1.84-1.06-3.25-1.98-4.22-.92-.97-2.25-1.46-3.98-1.46h-12.6l-.04,13.92h-4.4v-31.2ZM44.34,35.3c1.05-.99,1.57-2.33,1.54-4.04-.03-1.71-.57-3.05-1.62-4.04-1.05-.99-2.46-1.48-4.22-1.48h-13.16l.04,11.04h13.16c1.79,0,3.21-.49,4.26-1.48Z"/>
    <path class="cls-1" d="M62.76,52.86c-1.92-1.12-3.42-2.63-4.5-4.54s-1.62-4.01-1.62-6.3.54-4.39,1.62-6.3,2.58-3.42,4.5-4.54c1.92-1.12,4.09-1.68,6.52-1.68s4.6.56,6.52,1.68c1.92,1.12,3.42,2.63,4.5,4.54s1.62,4.01,1.62,6.3-.54,4.39-1.62,6.3-2.58,3.42-4.5,4.54c-1.92,1.12-4.09,1.68-6.52,1.68s-4.6-.56-6.52-1.68ZM73.82,50.5c1.27-.88,2.23-2.06,2.88-3.54.65-1.48.98-3.12.98-4.94s-.33-3.46-.98-4.94c-.65-1.48-1.61-2.66-2.88-3.54-1.27-.88-2.78-1.32-4.54-1.32s-3.27.44-4.54,1.32c-1.27.88-2.23,2.06-2.88,3.54-.65,1.48-.98,3.13-.98,4.94s.33,3.46.98,4.94c.65,1.48,1.61,2.66,2.88,3.54,1.27.88,2.78,1.32,4.54,1.32s3.27-.44,4.54-1.32Z"/>
    <path class="cls-1" d="M87.76,22.62h4v9.84l2.12.64-2.2.2c.61-1.09,1.64-2,3.08-2.72s3.19-1.08,5.24-1.08,3.79.35,5.36,1.04c1.57.7,2.82,1.73,3.74,3.12.92,1.39,1.38,3.08,1.38,5.08v15.08h-4v-15.08c0-2.16-.65-3.79-1.96-4.88-1.31-1.09-3-1.64-5.08-1.64-1.73,0-3.31.41-4.74,1.22-1.43.81-2.41,1.77-2.94,2.86v17.52h-4v-31.2Z"/>
    <path class="cls-1" d="M117.36,22.62h4v31.2h-4v-31.2ZM120.4,43.22l14-13h4.72l-18.36,17.08-.36-4.08ZM125.52,41.42l2.68-2.84,12.16,15.24h-4.92l-9.92-12.4Z"/>
    <path class="cls-1" d="M147.6,52.86c-1.92-1.12-3.41-2.63-4.48-4.54-1.07-1.91-1.6-4.01-1.6-6.3s.53-4.39,1.6-6.3c1.07-1.91,2.55-3.42,4.46-4.54,1.91-1.12,4.07-1.68,6.5-1.68s4.59.56,6.5,1.68c1.91,1.12,3.39,2.63,4.46,4.54s1.6,3.99,1.6,6.26v.08h-4.16v-.08c0-1.79-.32-3.42-.96-4.9-.64-1.48-1.59-2.66-2.86-3.54-1.27-.88-2.79-1.32-4.58-1.32s-3.31.44-4.58,1.32c-1.27.88-2.22,2.07-2.86,3.56-.64,1.49-.96,3.13-.96,4.92s.32,3.43.96,4.92c.64,1.49,1.6,2.68,2.88,3.56,1.28.88,2.83,1.32,4.64,1.32,2.24,0,4.19-.61,5.84-1.82s2.8-2.82,3.44-4.82h2.88c-.43,1.92-1.25,3.59-2.48,5-1.23,1.41-2.69,2.49-4.4,3.24-1.71.75-3.47,1.12-5.28,1.12-2.45,0-4.64-.56-6.56-1.68ZM144.68,39.34h19.8v2.72h-19.8v-2.72Z"/>
    <path class="cls-1" d="M172.32,30.22h4v2.24l.4.12c.61-.91,1.53-1.65,2.76-2.22,1.23-.57,2.68-.86,4.36-.86s3.21.33,4.58,1c1.37.67,2.43,1.69,3.18,3.08l-1.96-.24h4.64l-2.56.08c.99-1.28,2.15-2.25,3.48-2.92,1.33-.67,2.96-1,4.88-1,1.71,0,3.28.31,4.72.94,1.44.63,2.59,1.56,3.44,2.8s1.28,2.77,1.28,4.58v16h-4v-16c0-1.63-.55-2.97-1.64-4.02-1.09-1.05-2.52-1.58-4.28-1.58-1.47,0-2.77.37-3.92,1.1-1.15.73-2.07,1.67-2.76,2.82v17.68h-4v-16c0-1.63-.52-2.97-1.56-4.02-1.04-1.05-2.39-1.58-4.04-1.58-1.41,0-2.77.38-4.06,1.14-1.29.76-2.27,1.69-2.94,2.78v17.68h-4v-23.6Z"/>
    <path class="cls-1" d="M230.96,25.28c-.51-.52-.76-1.14-.76-1.86s.25-1.33.76-1.82c.51-.49,1.12-.74,1.84-.74s1.33.25,1.84.74c.51.49.76,1.1.76,1.82s-.25,1.34-.76,1.86c-.51.52-1.12.78-1.84.78s-1.33-.26-1.84-.78ZM230.72,30.22h4v23.6h-4v-23.6Z"/>
    <path class="cls-1" d="M241.88,30.22h4v2.24l2.12.64-2.2.2c.61-1.09,1.64-2,3.08-2.72,1.44-.72,3.19-1.08,5.24-1.08s3.79.35,5.36,1.04c1.57.7,2.82,1.73,3.74,3.12.92,1.39,1.38,3.08,1.38,5.08v15.08h-4v-15.08c0-2.16-.65-3.79-1.96-4.88-1.31-1.09-3-1.64-5.08-1.64-1.73,0-3.31.41-4.74,1.22-1.43.81-2.41,1.77-2.94,2.86v17.52h-4v-23.6Z"/>
    <path class="cls-1" d="M283.28,30.22v2.72h-14.28v-2.72h14.28ZM275,24.04c1.41-1.43,3.57-2.14,6.48-2.14.91,0,1.63.05,2.16.16v2.88c-.53-.11-1.19-.16-1.96-.16-1.12,0-2.01.17-2.66.5-.65.33-1.15.98-1.48,1.94-.33.96-.5,2.35-.5,4.16v22.44h-4.16v-22.44c0-3.46.71-5.91,2.12-7.34Z"/>
    <path class="cls-1" d="M291.72,52.86c-1.92-1.12-3.42-2.63-4.5-4.54s-1.62-4.01-1.62-6.3.54-4.39,1.62-6.3,2.58-3.42,4.5-4.54c1.92-1.12,4.09-1.68,6.52-1.68s4.6.56,6.52,1.68c1.92,1.12,3.42,2.63,4.5,4.54s1.62,4.01,1.62,6.3-.54,4.39-1.62,6.3-2.58,3.42-4.5,4.54c-1.92,1.12-4.09,1.68-6.52,1.68s-4.6-.56-6.52-1.68ZM302.78,50.5c1.27-.88,2.23-2.06,2.88-3.54.65-1.48.98-3.12.98-4.94s-.33-3.46-.98-4.94-1.61-2.66-2.88-3.54c-1.27-.88-2.78-1.32-4.54-1.32s-3.27.44-4.54,1.32c-1.27.88-2.23,2.06-2.88,3.54-.65,1.48-.98,3.13-.98,4.94s.33,3.46.98,4.94c.65,1.48,1.61,2.66,2.88,3.54,1.27.88,2.78,1.32,4.54,1.32s3.27-.44,4.54-1.32Z"/>
    <path class="cls-1" d="M318.94,53.04c-.92-1-1.38-2.37-1.38-4.1v-16h-3.6v-2.72h3.6v-5.16l4-.04v5.2h5.56v2.72h-5.56v16.2c0,.8.2,1.44.6,1.92.4.48,1.05.72,1.96.72s1.85-.24,2.84-.72l.92,2.32c-.72.38-1.48.66-2.28.86-.8.2-1.61.3-2.44.3-1.89,0-3.3-.5-4.22-1.5Z"/>
    <path class="cls-1" d="M351.72,30.22v25.44c0,1.09-.28,2.11-.84,3.04-.56.93-1.37,1.69-2.44,2.26-1.07.57-2.35.86-3.84.86-.45,0-.83-.07-1.12-.2l.16-2.6c.19.05.51.08.96.08.99,0,1.75-.29,2.3-.86.55-.57.82-1.45.82-2.62v-25.4h4ZM347.8,25.28c-.51-.52-.76-1.14-.76-1.86s.25-1.33.76-1.82c.51-.49,1.12-.74,1.84-.74s1.33.25,1.84.74c.51.49.76,1.1.76,1.82s-.25,1.34-.76,1.86c-.51.52-1.12.78-1.84.78s-1.33-.26-1.84-.78Z"/>
    <path class="cls-1" d="M363.52,53.48c-1.6-.71-2.88-1.75-3.84-3.14s-1.44-3.07-1.44-5.04v-15.08h4v15.08c0,2,.66,3.61,1.98,4.82,1.32,1.21,3.06,1.82,5.22,1.82,1.76,0,3.28-.4,4.56-1.2,1.28-.8,2.24-1.8,2.88-3v-17.52h4v23.6h-4v-2.24l-.4-.12c-.72.91-1.74,1.65-3.06,2.22-1.32.57-2.86.86-4.62.86-1.92,0-3.68-.35-5.28-1.06Z"/>
    <path class="cls-1" d="M393.04,53.48c-1.6-.71-2.88-1.75-3.84-3.14s-1.44-3.07-1.44-5.04v-15.08h4v15.08c0,2,.66,3.61,1.98,4.82,1.32,1.21,3.06,1.82,5.22,1.82,1.76,0,3.28-.4,4.56-1.2,1.28-.8,2.24-1.8,2.88-3v-17.52h4v23.6h-4v-2.24l-.4-.12c-.72.91-1.74,1.65-3.06,2.22-1.32.57-2.86.86-4.62.86-1.92,0-3.68-.35-5.28-1.06Z"/>
    <path class="cls-1" d="M417.44,30.22h4v2.24l2.12.64-2.2.2c.61-1.09,1.64-2,3.08-2.72,1.44-.72,3.19-1.08,5.24-1.08s3.79.35,5.36,1.04c1.57.7,2.82,1.73,3.74,3.12.92,1.39,1.38,3.08,1.38,5.08v15.08h-4v-15.08c0-2.16-.65-3.79-1.96-4.88-1.31-1.09-3-1.64-5.08-1.64-1.73,0-3.31.41-4.74,1.22-1.43.81-2.41,1.77-2.94,2.86v17.52h-4v-23.6Z"/>
    <path class="cls-1" d="M447.32,25.28c-.51-.52-.76-1.14-.76-1.86s.25-1.33.76-1.82c.51-.49,1.12-.74,1.84-.74s1.33.25,1.84.74c.51.49.76,1.1.76,1.82s-.25,1.34-.76,1.86c-.51.52-1.12.78-1.84.78s-1.33-.26-1.84-.78ZM447.08,30.22h4v23.6h-4v-23.6Z"/>
    <path class="cls-1" d="M473.38,33.44c-1.37-.81-3.01-1.22-4.9-1.22s-3.45.35-4.58,1.04c-1.13.69-1.7,1.6-1.7,2.72,0,.85.35,1.57,1.04,2.16.69.59,1.87,1.01,3.52,1.28l4.68.72c2.99.45,5.24,1.26,6.76,2.42,1.52,1.16,2.28,2.74,2.28,4.74,0,1.62-.53,2.98-1.6,4.06s-2.45,1.88-4.14,2.4-3.53.78-5.5.78c-3.17,0-5.94-.65-8.3-1.94-2.36-1.29-3.71-3.3-4.06-6.02h4.2c.27,1.68,1.11,2.97,2.54,3.88,1.43.91,3.3,1.36,5.62,1.36s4.07-.41,5.34-1.24,1.9-1.89,1.9-3.2c0-1.22-.47-2.14-1.42-2.74-.95-.6-2.37-1.05-4.26-1.34l-4.64-.68c-2.4-.35-4.33-1.04-5.78-2.08-1.45-1.04-2.18-2.43-2.18-4.16,0-1.36.47-2.56,1.4-3.6.93-1.04,2.19-1.85,3.76-2.42,1.57-.57,3.29-.86,5.16-.86s3.63.29,5.3.88c1.67.59,3.05,1.46,4.16,2.6,1.11,1.15,1.78,2.51,2.02,4.08h-4.2c-.24-1.6-1.05-2.81-2.42-3.62Z"/>
    <path class="cls-1" d="M524.12,34.94c-.83,1.15-1.83,2.08-3,2.8-1.17.72-2.72,1.53-4.64,2.44l-1.4.68-2.2,1.08c-1.97.96-3.51,1.88-4.6,2.76-1.09.88-1.91,1.89-2.44,3.04-.53,1.15-.8,2.59-.8,4.32l-.88-1.4,20.68-.04v3.2h-24.28v-1.76c0-3.07.96-5.63,2.88-7.7s4.52-3.93,7.8-5.58l2.32-1.16c.43-.21.84-.41,1.24-.6,1.39-.69,2.48-1.29,3.28-1.78s1.45-1.1,1.96-1.82.76-1.6.76-2.64c0-1.84-.71-3.27-2.12-4.3-1.41-1.03-3.23-1.54-5.44-1.54s-4.18.58-5.58,1.74c-1.4,1.16-2.21,2.7-2.42,4.62h-4.56c.27-1.84.91-3.47,1.92-4.88,1.01-1.41,2.41-2.52,4.18-3.32,1.77-.8,3.89-1.2,6.34-1.2s4.45.37,6.3,1.12c1.85.75,3.31,1.79,4.36,3.14,1.05,1.35,1.58,2.91,1.58,4.7,0,1.57-.41,2.93-1.24,4.08Z"/>
    <path class="cls-1" d="M536.84,52.36c-2.13-1.45-3.78-3.42-4.94-5.9-1.16-2.48-1.74-5.21-1.74-8.2s.58-5.72,1.74-8.2c1.16-2.48,2.81-4.45,4.94-5.9s4.61-2.18,7.44-2.18,5.29.73,7.4,2.18c2.11,1.45,3.73,3.41,4.86,5.88,1.13,2.47,1.7,5.21,1.7,8.22s-.57,5.75-1.7,8.22c-1.13,2.47-2.75,4.43-4.86,5.88-2.11,1.46-4.57,2.18-7.4,2.18s-5.31-.72-7.44-2.18ZM549.4,49.68c1.41-1.16,2.48-2.73,3.2-4.72.72-1.99,1.08-4.22,1.08-6.7s-.36-4.71-1.08-6.7c-.72-1.99-1.79-3.56-3.2-4.72-1.41-1.16-3.12-1.74-5.12-1.74s-3.76.58-5.2,1.74c-1.44,1.16-2.53,2.73-3.26,4.72s-1.1,4.22-1.1,6.7.37,4.71,1.12,6.7c.75,1.99,1.84,3.56,3.28,4.72,1.44,1.16,3.16,1.74,5.16,1.74s3.71-.58,5.12-1.74Z"/>
    <path class="cls-1" d="M586.68,34.94c-.83,1.15-1.83,2.08-3,2.8-1.17.72-2.72,1.53-4.64,2.44l-1.4.68-2.2,1.08c-1.97.96-3.51,1.88-4.6,2.76-1.09.88-1.91,1.89-2.44,3.04-.53,1.15-.8,2.59-.8,4.32l-.88-1.4,20.68-.04v3.2h-24.28v-1.76c0-3.07.96-5.63,2.88-7.7s4.52-3.93,7.8-5.58l2.32-1.16c.43-.21.84-.41,1.24-.6,1.39-.69,2.48-1.29,3.28-1.78s1.45-1.1,1.96-1.82.76-1.6.76-2.64c0-1.84-.71-3.27-2.12-4.3-1.41-1.03-3.23-1.54-5.44-1.54s-4.18.58-5.58,1.74c-1.4,1.16-2.21,2.7-2.42,4.62h-4.56c.27-1.84.91-3.47,1.92-4.88,1.01-1.41,2.41-2.52,4.18-3.32,1.77-.8,3.89-1.2,6.34-1.2s4.45.37,6.3,1.12c1.85.75,3.31,1.79,4.36,3.14,1.05,1.35,1.58,2.91,1.58,4.7,0,1.57-.41,2.93-1.24,4.08Z"/>
    <path class="cls-1" d="M615.12,22.62v3.2h-17.24v8.6h2.24l-2.28.6c.59-1.28,1.64-2.33,3.16-3.16,1.52-.83,3.28-1.24,5.28-1.24,2.19,0,4.19.51,6,1.54s3.25,2.44,4.32,4.24c1.07,1.8,1.6,3.79,1.6,5.98s-.57,4.25-1.7,6.12-2.7,3.34-4.7,4.42-4.24,1.62-6.72,1.62c-2.29,0-4.37-.39-6.22-1.18-1.85-.79-3.35-1.9-4.5-3.34-1.15-1.44-1.85-3.13-2.12-5.08h4.56c.56,2.32,1.59,3.99,3.1,5.02,1.51,1.03,3.23,1.54,5.18,1.54,1.68,0,3.17-.39,4.48-1.18,1.31-.79,2.33-1.87,3.06-3.26s1.1-2.95,1.1-4.68-.35-3.19-1.04-4.52c-.69-1.33-1.66-2.37-2.9-3.1-1.24-.73-2.63-1.1-4.18-1.1-1.41,0-2.67.31-3.76.94s-1.96,1.44-2.6,2.44-1.04,2.07-1.2,3.22h-4.16v-17.64h21.24Z"/>
  </g>
  <g>
    <path class="cls-1" d="M89.29,101.82h-4.16v-26.56l.8.12-14.4,26.44h-4l-14.52-26.44.8-.12v26.56h-4.16v-31.2h5.12l15.72,28.48-1.56.16,15.68-28.64h4.68v31.2Z"/>
    <path class="cls-1" d="M101.8,100.86c-1.92-1.12-3.42-2.63-4.5-4.54-1.08-1.91-1.62-4.01-1.62-6.3s.54-4.39,1.62-6.3c1.08-1.91,2.58-3.42,4.5-4.54,1.92-1.12,4.09-1.68,6.52-1.68s4.6.56,6.52,1.68c1.92,1.12,3.42,2.63,4.5,4.54s1.62,4.01,1.62,6.3-.54,4.39-1.62,6.3-2.58,3.42-4.5,4.54c-1.92,1.12-4.09,1.68-6.52,1.68s-4.6-.56-6.52-1.68ZM112.87,98.5c1.27-.88,2.23-2.06,2.88-3.54.65-1.48.98-3.12.98-4.94s-.33-3.46-.98-4.94-1.61-2.66-2.88-3.54c-1.27-.88-2.78-1.32-4.54-1.32s-3.27.44-4.54,1.32c-1.27.88-2.23,2.06-2.88,3.54-.65,1.48-.98,3.13-.98,4.94s.33,3.46.98,4.94c.65,1.48,1.61,2.66,2.88,3.54,1.27.88,2.78,1.32,4.54,1.32s3.27-.44,4.54-1.32Z"/>
    <path class="cls-1" d="M126.76,78.22h4v3l.84.56-1.72,1.6c.61-1.87,1.76-3.26,3.44-4.18s3.56-1.38,5.64-1.38c.69,0,1.39.05,2.08.16.69.11,1.36.27,2,.48l.08.04v3.04c-1.12-.4-2.45-.6-4-.6-1.95,0-3.7.38-5.26,1.14-1.56.76-2.59,1.94-3.1,3.54v16.2h-4v-23.6Z"/>
    <path class="cls-1" d="M151.64,100.86c-1.92-1.12-3.41-2.63-4.48-4.54-1.07-1.91-1.6-4.01-1.6-6.3s.53-4.39,1.6-6.3c1.07-1.91,2.55-3.42,4.46-4.54,1.91-1.12,4.07-1.68,6.5-1.68s4.59.56,6.5,1.68c1.91,1.12,3.39,2.63,4.46,4.54s1.6,3.99,1.6,6.26v.08h-4.16v-.08c0-1.79-.32-3.42-.96-4.9-.64-1.48-1.59-2.66-2.86-3.54-1.27-.88-2.79-1.32-4.58-1.32s-3.31.44-4.58,1.32c-1.27.88-2.22,2.07-2.86,3.56-.64,1.49-.96,3.13-.96,4.92s.32,3.43.96,4.92c.64,1.49,1.6,2.68,2.88,3.56,1.28.88,2.83,1.32,4.64,1.32,2.24,0,4.19-.61,5.84-1.82s2.8-2.82,3.44-4.82h2.88c-.43,1.92-1.25,3.59-2.48,5-1.23,1.41-2.69,2.49-4.4,3.24-1.71.75-3.47,1.12-5.28,1.12-2.45,0-4.64-.56-6.56-1.68ZM148.72,87.34h19.8v2.72h-19.8v-2.72Z"/>
    <path class="cls-1" d="M191.24,73.28c-.51-.52-.76-1.14-.76-1.86s.25-1.33.76-1.82c.51-.49,1.12-.74,1.84-.74s1.33.25,1.84.74c.51.49.76,1.1.76,1.82s-.25,1.34-.76,1.86c-.51.52-1.12.78-1.84.78s-1.33-.26-1.84-.78ZM191,78.22h4v23.6h-4v-23.6Z"/>
    <path class="cls-1" d="M202.2,78.22h4v2.24l2.12.64-2.2.2c.61-1.09,1.64-2,3.08-2.72,1.44-.72,3.19-1.08,5.24-1.08s3.79.35,5.36,1.04c1.57.7,2.82,1.73,3.74,3.12.92,1.39,1.38,3.08,1.38,5.08v15.08h-4v-15.08c0-2.16-.65-3.79-1.96-4.88-1.31-1.09-3-1.64-5.08-1.64-1.73,0-3.31.41-4.74,1.22-1.43.81-2.41,1.77-2.94,2.86v17.52h-4v-23.6Z"/>
    <path class="cls-1" d="M243.6,78.22v2.72h-14.28v-2.72h14.28ZM235.32,72.04c1.41-1.43,3.57-2.14,6.48-2.14.91,0,1.63.05,2.16.16v2.88c-.53-.11-1.19-.16-1.96-.16-1.12,0-2.01.17-2.66.5-.65.33-1.15.98-1.48,1.94-.33.96-.5,2.35-.5,4.16v22.44h-4.16v-22.44c0-3.46.71-5.91,2.12-7.34Z"/>
    <path class="cls-1" d="M252.04,100.86c-1.92-1.12-3.42-2.63-4.5-4.54s-1.62-4.01-1.62-6.3.54-4.39,1.62-6.3,2.58-3.42,4.5-4.54c1.92-1.12,4.09-1.68,6.52-1.68s4.6.56,6.52,1.68c1.92,1.12,3.42,2.63,4.5,4.54s1.62,4.01,1.62,6.3-.54,4.39-1.62,6.3-2.58,3.42-4.5,4.54c-1.92,1.12-4.09,1.68-6.52,1.68s-4.6-.56-6.52-1.68ZM263.1,98.5c1.27-.88,2.23-2.06,2.88-3.54.65-1.48.98-3.12.98-4.94s-.33-3.46-.98-4.94-1.61-2.66-2.88-3.54c-1.27-.88-2.78-1.32-4.54-1.32s-3.27.44-4.54,1.32c-1.27.88-2.23,2.06-2.88,3.54-.65,1.48-.98,3.13-.98,4.94s.33,3.46.98,4.94c.65,1.48,1.61,2.66,2.88,3.54,1.27.88,2.78,1.32,4.54,1.32s3.27-.44,4.54-1.32Z"/>
    <path class="cls-1" d="M291.76,73.28c-.51-.52-.76-1.14-.76-1.86s.25-1.33.76-1.82c.51-.49,1.12-.74,1.84-.74s1.33.25,1.84.74c.51.49.76,1.1.76,1.82s-.25,1.34-.76,1.86c-.51.52-1.12.78-1.84.78s-1.33-.26-1.84-.78ZM291.52,78.22h4v23.6h-4v-23.6Z"/>
    <path class="cls-1" d="M302.72,78.22h4v2.24l2.12.64-2.2.2c.61-1.09,1.64-2,3.08-2.72,1.44-.72,3.19-1.08,5.24-1.08s3.79.35,5.36,1.04c1.57.7,2.82,1.73,3.74,3.12.92,1.39,1.38,3.08,1.38,5.08v15.08h-4v-15.08c0-2.16-.65-3.79-1.96-4.88-1.31-1.09-3-1.64-5.08-1.64-1.73,0-3.31.41-4.74,1.22-1.43.81-2.41,1.77-2.94,2.86v17.52h-4v-23.6Z"/>
    <path class="cls-1" d="M346.46,100.66c-1.85-1.25-2.78-3.05-2.78-5.4h4.4c0,1.25.48,2.33,1.44,3.22.96.89,2.29,1.34,4,1.34,1.84,0,3.21-.57,4.1-1.72.89-1.15,1.34-2.84,1.34-5.08v-22.4h4.4v22.4c0,3.23-.85,5.62-2.54,7.18-1.69,1.56-4.13,2.34-7.3,2.34-2.85,0-5.21-.63-7.06-1.88Z"/>
    <path class="cls-1" d="M375.84,101.48c-1.6-.71-2.88-1.75-3.84-3.14s-1.44-3.07-1.44-5.04v-15.08h4v15.08c0,2,.66,3.61,1.98,4.82,1.32,1.21,3.06,1.82,5.22,1.82,1.76,0,3.28-.4,4.56-1.2,1.28-.8,2.24-1.8,2.88-3v-17.52h4v23.6h-4v-2.24l-.4-.12c-.72.91-1.74,1.65-3.06,2.22-1.32.57-2.86.86-4.62.86-1.92,0-3.68-.35-5.28-1.06Z"/>
    <path class="cls-1" d="M400.24,78.22h4v2.24l2.12.64-2.2.2c.61-1.09,1.64-2,3.08-2.72,1.44-.72,3.19-1.08,5.24-1.08s3.79.35,5.36,1.04c1.57.7,2.82,1.73,3.74,3.12.92,1.39,1.38,3.08,1.38,5.08v15.08h-4v-15.08c0-2.16-.65-3.79-1.96-4.88-1.31-1.09-3-1.64-5.08-1.64-1.73,0-3.31.41-4.74,1.22-1.43.81-2.41,1.77-2.94,2.86v17.52h-4v-23.6Z"/>
    <path class="cls-1" d="M434.64,100.86c-1.92-1.12-3.41-2.63-4.48-4.54-1.07-1.91-1.6-4.01-1.6-6.3s.53-4.39,1.6-6.3c1.07-1.91,2.55-3.42,4.46-4.54,1.91-1.12,4.07-1.68,6.5-1.68s4.59.56,6.5,1.68c1.91,1.12,3.39,2.63,4.46,4.54s1.6,3.99,1.6,6.26v.08h-4.16v-.08c0-1.79-.32-3.42-.96-4.9-.64-1.48-1.59-2.66-2.86-3.54-1.27-.88-2.79-1.32-4.58-1.32s-3.31.44-4.58,1.32c-1.27.88-2.22,2.07-2.86,3.56-.64,1.49-.96,3.13-.96,4.92s.32,3.43.96,4.92c.64,1.49,1.6,2.68,2.88,3.56,1.28.88,2.83,1.32,4.64,1.32,2.24,0,4.19-.61,5.84-1.82s2.8-2.82,3.44-4.82h2.88c-.43,1.92-1.25,3.59-2.48,5-1.23,1.41-2.69,2.49-4.4,3.24-1.71.75-3.47,1.12-5.28,1.12-2.45,0-4.64-.56-6.56-1.68ZM431.72,87.34h19.8v2.72h-19.8v-2.72Z"/>
    <path class="cls-1" d="M496.92,82.94c-.83,1.15-1.83,2.08-3,2.8-1.17.72-2.72,1.53-4.64,2.44l-1.4.68-2.2,1.08c-1.97.96-3.51,1.88-4.6,2.76-1.09.88-1.91,1.89-2.44,3.04-.53,1.15-.8,2.59-.8,4.32l-.88-1.4,20.68-.04v3.2h-24.28v-1.76c0-3.07.96-5.63,2.88-7.7s4.52-3.93,7.8-5.58l2.32-1.16c.43-.21.84-.41,1.24-.6,1.39-.69,2.48-1.29,3.28-1.78s1.45-1.1,1.96-1.82.76-1.6.76-2.64c0-1.84-.71-3.27-2.12-4.3-1.41-1.03-3.23-1.54-5.44-1.54s-4.18.58-5.58,1.74c-1.4,1.16-2.21,2.7-2.42,4.62h-4.56c.27-1.84.91-3.47,1.92-4.88,1.01-1.41,2.41-2.52,4.18-3.32,1.77-.8,3.89-1.2,6.34-1.2s4.45.37,6.3,1.12c1.85.75,3.31,1.79,4.36,3.14,1.05,1.35,1.58,2.91,1.58,4.7,0,1.57-.41,2.93-1.24,4.08Z"/>
    <path class="cls-1" d="M509.64,100.36c-2.13-1.45-3.78-3.42-4.94-5.9-1.16-2.48-1.74-5.21-1.74-8.2s.58-5.72,1.74-8.2c1.16-2.48,2.81-4.45,4.94-5.9s4.61-2.18,7.44-2.18,5.29.73,7.4,2.18c2.11,1.45,3.73,3.41,4.86,5.88,1.13,2.47,1.7,5.21,1.7,8.22s-.57,5.75-1.7,8.22c-1.13,2.47-2.75,4.43-4.86,5.88-2.11,1.46-4.57,2.18-7.4,2.18s-5.31-.72-7.44-2.18ZM522.2,97.68c1.41-1.16,2.48-2.73,3.2-4.72.72-1.99,1.08-4.22,1.08-6.7s-.36-4.71-1.08-6.7c-.72-1.99-1.79-3.56-3.2-4.72-1.41-1.16-3.12-1.74-5.12-1.74s-3.76.58-5.2,1.74c-1.44,1.16-2.53,2.73-3.26,4.72s-1.1,4.22-1.1,6.7.37,4.71,1.12,6.7c.75,1.99,1.84,3.56,3.28,4.72,1.44,1.16,3.16,1.74,5.16,1.74s3.71-.58,5.12-1.74Z"/>
    <path class="cls-1" d="M559.48,82.94c-.83,1.15-1.83,2.08-3,2.8-1.17.72-2.72,1.53-4.64,2.44l-1.4.68-2.2,1.08c-1.97.96-3.51,1.88-4.6,2.76-1.09.88-1.91,1.89-2.44,3.04-.53,1.15-.8,2.59-.8,4.32l-.88-1.4,20.68-.04v3.2h-24.28v-1.76c0-3.07.96-5.63,2.88-7.7s4.52-3.93,7.8-5.58l2.32-1.16c.43-.21.84-.41,1.24-.6,1.39-.69,2.48-1.29,3.28-1.78s1.45-1.1,1.96-1.82.76-1.6.76-2.64c0-1.84-.71-3.27-2.12-4.3-1.41-1.03-3.23-1.54-5.44-1.54s-4.18.58-5.58,1.74c-1.4,1.16-2.21,2.7-2.42,4.62h-4.56c.27-1.84.91-3.47,1.92-4.88,1.01-1.41,2.41-2.52,4.18-3.32,1.77-.8,3.89-1.2,6.34-1.2s4.45.37,6.3,1.12c1.85.75,3.31,1.79,4.36,3.14,1.05,1.35,1.58,2.91,1.58,4.7,0,1.57-.41,2.93-1.24,4.08Z"/>
    <path class="cls-1" d="M587.92,70.62v3.2h-17.24v8.6h2.24l-2.28.6c.59-1.28,1.64-2.33,3.16-3.16,1.52-.83,3.28-1.24,5.28-1.24,2.19,0,4.19.51,6,1.54s3.25,2.44,4.32,4.24c1.07,1.8,1.6,3.79,1.6,5.98s-.57,4.25-1.7,6.12-2.7,3.34-4.7,4.42-4.24,1.62-6.72,1.62c-2.29,0-4.37-.39-6.22-1.18-1.85-.79-3.35-1.9-4.5-3.34-1.15-1.44-1.85-3.13-2.12-5.08h4.56c.56,2.32,1.59,3.99,3.1,5.02,1.51,1.03,3.23,1.54,5.18,1.54,1.68,0,3.17-.39,4.48-1.18,1.31-.79,2.33-1.87,3.06-3.26s1.1-2.95,1.1-4.68-.35-3.19-1.04-4.52c-.69-1.33-1.66-2.37-2.9-3.1-1.24-.73-2.63-1.1-4.18-1.1-1.41,0-2.67.31-3.76.94s-1.96,1.44-2.6,2.44-1.04,2.07-1.2,3.22h-4.16v-17.64h21.24Z"/>
  </g>
</svg>