<?xml version="1.0" encoding="UTF-8"?>
<svg id="Layer_1" data-name="Layer 1" xmlns="http://www.w3.org/2000/svg" viewBox="0 0 1594 195">
  <defs>
    <style>
      .cls-1 {
        fill: #fff;
      }
    </style>
  </defs>
  <g>
    <path d="M378.49,100.74h-7.28c-5.2,0-10.04-2.64-12.85-7.01-1.56-2.42-2.78-5.19-3.64-8.23-.14-.48-.28-1.04-.45-1.67v1.67c-.03,8.42-6.87,15.24-15.29,15.24h-6.72c-8.44,0-15.29-6.84-15.29-15.29v-47.69c0-8.44,6.84-15.29,15.29-15.29h26.84c5.43,0,10.42,1.03,14.81,3.06,5.02,2.32,9.03,5.74,11.92,10.17,2.93,4.49,4.43,9.6,4.45,15.17.04,4.63-.95,8.97-2.91,12.82.6,1.73,1.11,3.61,1.54,5.66.83,3.95,1.4,5.64,1.6,6.19.25.68.43,1.04.5,1.16,3.25,4.64,3.66,10.7,1.07,15.75-2.62,5.09-7.87,8.3-13.59,8.3ZM384.25,77.5h0,0ZM391.04,76.74h0s0,0,0,0ZM390.92,76.56l.03.05-.03-.05Z"/>
    <path d="M405.88,101.84c-6.43,0-12.38-1.56-17.67-4.65-5.29-3.08-9.49-7.33-12.48-12.61-2.96-5.22-4.46-10.99-4.46-17.16s1.5-11.94,4.46-17.16c2.99-5.28,7.19-9.53,12.47-12.61,5.29-3.08,11.23-4.65,17.67-4.65s12.38,1.56,17.67,4.65c5.28,3.08,9.48,7.32,12.47,12.61,2.96,5.23,4.46,11,4.46,17.17s-1.5,11.94-4.46,17.17c-2.99,5.28-7.19,9.52-12.47,12.6-5.29,3.09-11.24,4.65-17.67,4.65Z"/>
    <path d="M469.22,100.74h-6.11c-4.45,0-8.46-1.9-11.25-4.94-2.79,3.04-6.8,4.94-11.25,4.94h-6.11c-8.44,0-15.29-6.84-15.29-15.29v-47.69c0-8.44,6.84-15.29,15.29-15.29h6.11c6.79,0,12.55,4.43,14.54,10.56,4.44.21,8.61,1.17,12.41,2.84,5.11,2.25,9.25,5.72,12.29,10.31,3.09,4.66,4.66,10.12,4.66,16.22v23.05c0,8.44-6.84,15.29-15.29,15.29Z"/>
    <path d="M515.02,100.74h-7.52c-4.05,0-7.92-1.61-10.76-4.43-2.76,2.74-6.56,4.43-10.76,4.43h-6.11c-8.44,0-15.29-6.84-15.29-15.29v-47.69c0-8.44,6.84-15.29,15.29-15.29h6.11c7.46,0,13.68,5.35,15.02,12.43,1.57-.53,3.23-.81,4.91-.81h7.21c6.28,0,11.93,3.84,14.22,9.69,2.3,5.85.79,12.51-3.81,16.79l-5.06,4.71,8.49,10.64c3.66,4.59,4.37,10.87,1.82,16.16-2.55,5.29-7.9,8.66-13.77,8.66Z"/>
    <path d="M538.86,101.84c-6.47,0-12.44-1.56-17.73-4.65h0c-5.31-3.1-9.52-7.37-12.49-12.68-2.91-5.2-4.39-10.95-4.39-17.09s1.48-11.88,4.39-17.09c2.97-5.3,7.14-9.56,12.41-12.66,5.28-3.1,11.23-4.67,17.68-4.67s12.4,1.57,17.68,4.67c5.27,3.09,9.45,7.35,12.41,12.65,2.92,5.22,4.39,10.95,4.39,17.04v.12c0,1.36-.18,2.68-.51,3.94.07,1.38-.04,2.77-.34,4.14-1.21,5.43-3.62,10.26-7.17,14.35-3.37,3.88-7.45,6.88-12.14,8.94-4.54,1.99-9.32,2.99-14.2,2.99Z"/>
    <path d="M624.09,100.74h-6.11c-3.65,0-7-1.28-9.63-3.41-2.63,2.13-5.98,3.41-9.63,3.41h-6.12c-3.65,0-7-1.28-9.63-3.41-2.63,2.13-5.98,3.41-9.63,3.41h-6.11c-8.44,0-15.29-6.84-15.29-15.29v-36.07c0-8.44,6.84-15.29,15.29-15.29h6.11c.78,0,1.54.06,2.29.17,2.87-.84,5.95-1.27,9.21-1.27,4.31,0,8.4.8,12.18,2.39,3.78-1.58,8.02-2.39,12.65-2.39s9.18.91,13.31,2.7c4.85,2.11,8.81,5.35,11.75,9.63,3.09,4.49,4.65,9.76,4.65,15.67v24.46c0,8.44-6.84,15.29-15.29,15.29Z"/>
    <path d="M662.06,100.74h-6.12c-8.44,0-15.29-6.84-15.29-15.29v-36.07c0-1.24.15-2.45.43-3.61-.8-2.15-1.22-4.44-1.22-6.79,0-5.22,2.05-10.1,5.78-13.73,3.63-3.53,8.41-5.47,13.48-5.47s9.85,1.94,13.47,5.46c3.74,3.65,5.79,8.53,5.79,13.74,0,2.5-.47,4.93-1.38,7.18.22,1.04.34,2.11.34,3.21v36.07c0,8.44-6.84,15.29-15.29,15.29Z"/>
    <path d="M708.16,100.74h-6.11c-4.45,0-8.46-1.9-11.25-4.94-2.79,3.04-6.8,4.94-11.25,4.94h-6.11c-8.44,0-15.29-6.84-15.29-15.29v-36.07c0-8.44,6.84-15.29,15.29-15.29h6.11c.92,0,1.82.08,2.69.24,3.06-.89,6.37-1.34,9.9-1.34,5.18,0,10.01.97,14.36,2.89,5.11,2.25,9.25,5.72,12.29,10.31,3.09,4.66,4.66,10.12,4.66,16.22v23.05c0,8.44-6.84,15.29-15.29,15.29Z"/>
    <path d="M729.01,100.74h-6.36c-8.44,0-15.29-6.84-15.29-15.29v-19.83c-3.61-2.8-5.93-7.17-5.93-12.09v-4.16c0-6.28,3.79-11.67,9.2-14.03,1.16-2.33,2.63-4.39,4.4-6.18h0c3.53-3.56,9.99-7.8,20.76-7.8,2.41,0,4.46.18,6.28.54,7.15,1.42,12.31,7.7,12.31,14.99v4.4c0,1.73-.29,3.43-.85,5.03.2.98.3,2,.3,3.04v4.16c0,6.41-3.94,11.9-9.54,14.17v17.75c0,8.44-6.84,15.29-15.29,15.29Z"/>
    <path d="M763.74,101.84c-6.43,0-12.38-1.56-17.67-4.65-5.29-3.08-9.49-7.33-12.48-12.61-2.96-5.22-4.46-10.99-4.46-17.16s1.5-11.94,4.46-17.16c2.99-5.28,7.19-9.53,12.47-12.61,5.29-3.08,11.23-4.65,17.67-4.65s12.38,1.56,17.67,4.65c5.28,3.08,9.48,7.32,12.47,12.61,2.96,5.23,4.46,11,4.46,17.17s-1.5,11.94-4.46,17.17c-2.99,5.28-7.19,9.52-12.47,12.6-5.29,3.09-11.24,4.65-17.67,4.65Z"/>
    <path d="M803.67,101.84c-9.13,0-14.66-3.93-17.7-7.22h0c-2.8-3.05-6.15-8.41-6.15-16.62v-12.71c-3.36-2.8-5.5-7.02-5.5-11.74v-4.16c0-5.01,2.41-9.45,6.13-12.24,1.86-6.27,7.63-10.86,14.5-10.93l6.11-.06c.05,0,.1,0,.15,0,4.03,0,7.89,1.59,10.75,4.42,1.33,1.31,2.39,2.84,3.15,4.51,5.77,2.18,9.88,7.76,9.88,14.3v4.16c0,6-3.46,11.2-8.5,13.7v.43c3.25,1.69,5.81,4.5,7.18,7.94l1.41,3.55c2.89,7.29-.2,15.59-7.17,19.2-2.15,1.12-4.45,1.98-6.82,2.58-2.43.61-4.93.92-7.43.92Z"/>
    <path d="M835.95,112.97c-2.88,0-5.59-.56-8.03-1.67-5.77-2.62-9.32-8.53-8.94-14.85l.24-3.97c.28-4.53,2.56-8.7,6.21-11.38v-31.7c0-1.1.12-2.17.34-3.21-.9-2.26-1.38-4.69-1.38-7.19,0-5.22,2.05-10.1,5.79-13.73,3.62-3.52,8.4-5.46,13.47-5.46s9.84,1.94,13.46,5.45c3.75,3.66,5.8,8.53,5.8,13.75,0,2.35-.42,4.64-1.22,6.79.28,1.16.43,2.37.43,3.61v38.89c0,4.47-1.17,8.68-3.46,12.51-2.28,3.8-5.51,6.85-9.59,9.05-3.88,2.09-8.29,3.14-13.12,3.14Z"/>
    <path d="M872.94,101.84c-5.06,0-9.85-.98-14.24-2.92,0,0,0,0,0,0-5.05-2.23-9.18-5.62-12.26-10.08-3.26-4.71-4.92-10.23-4.92-16.4v-23.05c0-8.44,6.84-15.29,15.29-15.29h6.11c4.42,0,8.4,1.88,11.19,4.87,2.79-3,6.77-4.87,11.19-4.87h6.11c8.44,0,15.29,6.84,15.29,15.29v36.07c0,8.44-6.84,15.29-15.29,15.29h-6.11c-.91,0-1.79-.08-2.66-.23-3.02.88-6.26,1.33-9.7,1.33Z"/>
    <path d="M918.18,101.84c-5.06,0-9.85-.98-14.24-2.92,0,0,0,0,0,0-5.05-2.23-9.18-5.62-12.26-10.08-3.26-4.71-4.92-10.23-4.92-16.4v-23.05c0-8.44,6.84-15.29,15.29-15.29h6.11c4.42,0,8.4,1.88,11.19,4.87,2.79-3,6.77-4.87,11.19-4.87h6.11c8.44,0,15.29,6.84,15.29,15.29v36.07c0,8.44-6.84,15.29-15.29,15.29h-6.11c-.91,0-1.79-.08-2.66-.23-3.02.88-6.26,1.33-9.69,1.33Z"/>
    <path d="M982.38,100.74h-6.11c-4.45,0-8.46-1.9-11.25-4.94-2.79,3.04-6.8,4.94-11.25,4.94h-6.11c-8.44,0-15.29-6.84-15.29-15.29v-36.07c0-8.44,6.84-15.29,15.29-15.29h6.11c.92,0,1.82.08,2.69.24,3.06-.89,6.38-1.34,9.9-1.34,5.17,0,10,.97,14.35,2.89,5.12,2.25,9.25,5.72,12.29,10.31,3.09,4.66,4.66,10.12,4.66,16.22v23.05c0,8.44-6.84,15.29-15.29,15.29Z"/>
    <path d="M999.5,100.74h-6.11c-8.44,0-15.29-6.84-15.29-15.29v-36.07c0-1.24.15-2.45.43-3.61-.8-2.15-1.22-4.44-1.22-6.79,0-5.22,2.05-10.09,5.77-13.72,3.64-3.54,8.42-5.48,13.49-5.48s9.86,1.94,13.47,5.46c3.73,3.64,5.79,8.51,5.79,13.73,0,2.5-.47,4.93-1.38,7.18.22,1.04.34,2.11.34,3.21v36.07c0,8.44-6.84,15.29-15.29,15.29Z"/>
    <path d="M1028.42,101.84c-7.42,0-14.16-1.63-20.03-4.85-7.9-4.33-12.88-11.67-14.02-20.67-.5-3.89.52-7.8,2.81-10.94-.61-2.09-.92-4.29-.92-6.58,0-5.87,2.09-11.31,6.05-15.71,3.11-3.47,7.11-6.11,11.89-7.85,4.08-1.49,8.49-2.24,13.12-2.24s9,.74,13.17,2.21c4.8,1.69,8.93,4.31,12.28,7.77,3.88,4.02,6.37,9.05,7.21,14.55.43,2.81.06,5.65-1.02,8.22,1.27,2.99,1.93,6.27,1.93,9.73,0,6.54-2.37,12.4-6.85,16.94-3.42,3.47-7.7,6-12.72,7.54-4.03,1.24-8.37,1.87-12.9,1.87Z"/>
    <path d="M1112.85,100.74h-37.11c-8.44,0-15.29-6.84-15.29-15.29v-2.69c0-7.31,2.16-14,6.28-19.52-.86-.64-1.65-1.38-2.36-2.21-2.9-3.35-4.21-7.8-3.57-12.19.76-5.25,2.66-10.02,5.64-14.18,3.13-4.36,7.34-7.76,12.53-10.1,4.68-2.11,10.06-3.18,15.97-3.18,5.53,0,10.69.95,15.34,2.82,5.35,2.16,9.72,5.37,12.99,9.56,3.71,4.74,5.66,10.48,5.66,16.6,0,5.59-1.65,10.84-4.78,15.18-.69.96-1.43,1.87-2.21,2.74.6.45,1.17.94,1.71,1.47,2.87,2.87,4.49,6.76,4.49,10.82v4.89c0,8.44-6.84,15.29-15.29,15.29Z"/>
    <path d="M1144.28,101.84c-7.43,0-14.15-2.01-19.98-5.98h0c-5.54-3.78-9.85-8.88-12.79-15.17-2.72-5.82-4.1-12.21-4.1-19.01s1.38-13.19,4.1-19.01c2.94-6.29,7.25-11.4,12.79-15.18,5.83-3.97,12.55-5.99,19.98-5.99s14.18,2.03,19.99,6.03c5.5,3.8,9.75,8.91,12.64,15.19,2.65,5.77,4,12.15,4,18.95s-1.34,13.18-3.99,18.95c-2.89,6.29-7.14,11.39-12.64,15.19-5.81,4.01-12.53,6.04-19.99,6.04ZM1146.06,67.3h0Z"/>
    <path d="M1212.15,100.74h-37.11c-8.44,0-15.29-6.84-15.29-15.29v-2.69c0-7.31,2.16-14,6.28-19.52-.86-.64-1.65-1.38-2.36-2.21-2.9-3.35-4.21-7.8-3.57-12.19.76-5.25,2.66-10.02,5.64-14.18,3.13-4.36,7.34-7.76,12.53-10.1,4.68-2.11,10.06-3.18,15.97-3.18,5.53,0,10.69.95,15.34,2.82,5.35,2.16,9.72,5.37,13,9.56,3.7,4.73,5.66,10.47,5.66,16.6,0,5.59-1.65,10.84-4.78,15.18-.69.96-1.43,1.87-2.21,2.74.6.45,1.17.94,1.71,1.47,2.87,2.87,4.49,6.76,4.49,10.82v4.89c0,8.44-6.84,15.29-15.29,15.29Z"/>
    <path d="M1241.68,101.84c-5.55,0-10.76-1.02-15.48-3.02-5.19-2.2-9.52-5.45-12.87-9.66-3.48-4.37-5.64-9.49-6.43-15.22-.5-3.68.35-7.39,2.37-10.45v-25.73c0-8.44,6.84-15.29,15.29-15.29h32.47c8.44,0,15.29,6.84,15.29,15.29v4.89c0,2.2-.46,4.29-1.3,6.17.5.71.97,1.45,1.42,2.21,3.04,5.13,4.58,10.83,4.58,16.93s-1.62,12.02-4.82,17.29c-3.15,5.19-7.52,9.32-12.99,12.27-5.3,2.86-11.2,4.31-17.54,4.31Z"/>
  </g>
  <g>
    <path d="M332.27,37.77h26.84c3.22,0,6.02.55,8.41,1.65s4.23,2.65,5.53,4.65c1.3,2,1.96,4.3,1.96,6.91.04,3.02-.77,5.54-2.42,7.58-1.65,2.04-4.03,3.53-7.12,4.46l2.14-3.67v5.99l-1.28-3c2.12.33,3.75,1.27,4.89,2.84,1.14,1.57,2.06,4,2.75,7.31.77,3.67,1.52,6.46,2.23,8.38.71,1.92,1.48,3.45,2.29,4.59h-7.28c-.73-1.14-1.33-2.51-1.77-4.1-.45-1.59-1.12-4.42-2.02-8.5-.61-2.81-1.62-4.96-3.03-6.45-1.41-1.49-3.43-2.23-6.08-2.23h-19.26l-.06,21.28h-6.72v-47.69ZM365.68,57.15c1.61-1.51,2.39-3.57,2.35-6.18-.04-2.61-.87-4.67-2.48-6.17-1.61-1.51-3.76-2.26-6.45-2.26h-20.12l.06,16.88h20.12c2.73,0,4.9-.75,6.51-2.26Z"/>
    <path d="M395.92,83.99c-2.93-1.71-5.23-4.02-6.88-6.94-1.65-2.91-2.48-6.12-2.48-9.63s.83-6.71,2.48-9.63c1.65-2.91,3.94-5.23,6.88-6.94s6.26-2.57,9.97-2.57,7.03.86,9.97,2.57c2.93,1.71,5.23,4.03,6.88,6.94,1.65,2.92,2.48,6.12,2.48,9.63s-.82,6.72-2.48,9.63c-1.65,2.92-3.94,5.23-6.88,6.94-2.94,1.71-6.26,2.57-9.97,2.57s-7.03-.86-9.97-2.57ZM412.82,80.38c1.94-1.34,3.4-3.15,4.4-5.41,1-2.26,1.5-4.78,1.5-7.55s-.5-5.29-1.5-7.55c-1-2.26-2.47-4.07-4.4-5.41-1.94-1.34-4.25-2.02-6.94-2.02s-5,.67-6.94,2.02c-1.94,1.35-3.4,3.15-4.4,5.41-1,2.26-1.5,4.78-1.5,7.55s.5,5.29,1.5,7.55c1,2.26,2.47,4.07,4.4,5.41,1.94,1.35,4.25,2.02,6.94,2.02s5-.67,6.94-2.02Z"/>
    <path d="M434.5,37.77h6.11v15.04l3.24.98-3.36.31c.94-1.67,2.51-3.06,4.71-4.16s4.87-1.65,8.01-1.65,5.79.53,8.19,1.59c2.4,1.06,4.31,2.65,5.72,4.77,1.41,2.12,2.11,4.71,2.11,7.76v23.05h-6.11v-23.05c0-3.3-1-5.79-3-7.46-2-1.67-4.59-2.51-7.77-2.51-2.65,0-5.06.62-7.24,1.87-2.18,1.24-3.68,2.7-4.49,4.37v26.78h-6.11v-47.69Z"/>
    <path d="M479.86,37.77h6.11v47.69h-6.11v-47.69ZM484.51,69.25l21.4-19.87h7.21l-28.06,26.11-.55-6.24ZM492.33,66.5l4.1-4.34,18.59,23.29h-7.52l-15.16-18.95Z"/>
    <path d="M528.84,83.99c-2.94-1.71-5.22-4.02-6.85-6.94-1.63-2.91-2.45-6.12-2.45-9.63s.81-6.71,2.45-9.63c1.63-2.91,3.9-5.23,6.82-6.94s6.23-2.57,9.94-2.57,7.02.86,9.94,2.57,5.19,4.03,6.82,6.94c1.63,2.92,2.45,6.11,2.45,9.57v.12h-6.36v-.12c0-2.73-.49-5.23-1.47-7.49-.98-2.26-2.44-4.07-4.37-5.41-1.94-1.34-4.27-2.02-7-2.02s-5.07.67-7,2.02c-1.94,1.35-3.39,3.16-4.37,5.44-.98,2.28-1.47,4.79-1.47,7.52s.49,5.24,1.47,7.52c.98,2.28,2.45,4.1,4.4,5.44,1.96,1.35,4.32,2.02,7.09,2.02,3.42,0,6.4-.93,8.93-2.78,2.53-1.85,4.28-4.31,5.26-7.37h4.4c-.65,2.94-1.92,5.48-3.79,7.64s-4.12,3.81-6.72,4.95c-2.61,1.14-5.3,1.71-8.07,1.71-3.75,0-7.09-.86-10.03-2.57ZM524.37,63.32h30.26v4.16h-30.26v-4.16Z"/>
    <path d="M567.23,49.38h6.11v3.42l.61.18c.94-1.39,2.34-2.52,4.22-3.39,1.87-.88,4.1-1.31,6.66-1.31s4.9.51,7,1.53c2.1,1.02,3.72,2.59,4.86,4.71l-3-.37h7.09l-3.91.12c1.51-1.96,3.28-3.44,5.32-4.46,2.04-1.02,4.53-1.53,7.46-1.53,2.61,0,5.01.48,7.21,1.44,2.2.96,3.95,2.38,5.26,4.28,1.3,1.89,1.96,4.23,1.96,7v24.46h-6.11v-24.46c0-2.49-.84-4.53-2.51-6.14-1.67-1.61-3.85-2.42-6.54-2.42-2.24,0-4.24.56-5.99,1.68-1.75,1.12-3.16,2.56-4.22,4.31v27.02h-6.12v-24.46c0-2.49-.79-4.53-2.38-6.14-1.59-1.61-3.65-2.42-6.17-2.42-2.16,0-4.23.58-6.21,1.74-1.98,1.16-3.47,2.58-4.49,4.25v27.02h-6.11v-36.07Z"/>
    <path d="M656.32,41.83c-.77-.79-1.16-1.74-1.16-2.84s.39-2.03,1.16-2.78c.77-.75,1.71-1.13,2.81-1.13s2.04.38,2.81,1.13c.77.75,1.16,1.68,1.16,2.78s-.39,2.05-1.16,2.84c-.77.79-1.71,1.19-2.81,1.19s-2.04-.4-2.81-1.19ZM655.95,49.38h6.12v36.07h-6.12v-36.07Z"/>
    <path d="M673.43,49.38h6.11v3.42l3.24.98-3.36.31c.94-1.67,2.51-3.06,4.71-4.16s4.87-1.65,8.01-1.65,5.79.53,8.19,1.59c2.4,1.06,4.31,2.65,5.72,4.77,1.41,2.12,2.11,4.71,2.11,7.76v23.05h-6.11v-23.05c0-3.3-1-5.79-3-7.46-2-1.67-4.59-2.51-7.77-2.51-2.65,0-5.06.62-7.25,1.87s-3.68,2.7-4.49,4.37v26.78h-6.11v-36.07Z"/>
    <path d="M738.55,49.38v4.16h-21.83v-4.16h21.83ZM725.89,39.94c2.16-2.18,5.46-3.27,9.9-3.27,1.39,0,2.49.08,3.3.24v4.4c-.82-.16-1.81-.24-3-.24-1.71,0-3.07.25-4.07.76-1,.51-1.75,1.5-2.26,2.97-.51,1.47-.76,3.59-.76,6.36v34.3h-6.36v-34.3c0-5.3,1.08-9.04,3.24-11.22Z"/>
    <path d="M753.77,83.99c-2.93-1.71-5.23-4.02-6.88-6.94-1.65-2.91-2.48-6.12-2.48-9.63s.83-6.71,2.48-9.63c1.65-2.91,3.94-5.23,6.88-6.94s6.26-2.57,9.97-2.57,7.03.86,9.97,2.57c2.93,1.71,5.23,4.03,6.88,6.94,1.65,2.92,2.48,6.12,2.48,9.63s-.82,6.72-2.48,9.63c-1.65,2.92-3.94,5.23-6.88,6.94-2.94,1.71-6.26,2.57-9.97,2.57s-7.03-.86-9.97-2.57ZM770.68,80.38c1.94-1.34,3.4-3.15,4.4-5.41,1-2.26,1.5-4.78,1.5-7.55s-.5-5.29-1.5-7.55c-1-2.26-2.47-4.07-4.4-5.41-1.94-1.34-4.25-2.02-6.94-2.02s-5,.67-6.94,2.02c-1.94,1.35-3.4,3.15-4.4,5.41-1,2.26-1.5,4.78-1.5,7.55s.5,5.29,1.5,7.55c1,2.26,2.47,4.07,4.4,5.41,1.94,1.35,4.25,2.02,6.94,2.02s5-.67,6.94-2.02Z"/>
    <path d="M797.21,84.26c-1.41-1.53-2.11-3.62-2.11-6.27v-24.46h-5.5v-4.16h5.5v-7.89l6.12-.06v7.95h8.5v4.16h-8.5v24.76c0,1.22.3,2.2.92,2.93.61.73,1.61,1.1,3,1.1s2.83-.37,4.34-1.1l1.41,3.55c-1.1.57-2.26,1.01-3.49,1.31-1.22.31-2.47.46-3.73.46-2.89,0-5.04-.76-6.45-2.29Z"/>
    <path d="M846.83,49.38v38.89c0,1.67-.43,3.22-1.29,4.65-.86,1.43-2.1,2.58-3.73,3.46-1.63.88-3.59,1.31-5.87,1.31-.69,0-1.26-.1-1.71-.31l.24-3.97c.29.08.77.12,1.47.12,1.51,0,2.68-.44,3.52-1.31.83-.88,1.25-2.21,1.25-4v-38.82h6.12ZM840.84,41.83c-.78-.79-1.16-1.74-1.16-2.84s.39-2.03,1.16-2.78c.77-.75,1.71-1.13,2.81-1.13s2.04.38,2.81,1.13c.77.75,1.16,1.68,1.16,2.78s-.39,2.05-1.16,2.84c-.78.79-1.71,1.19-2.81,1.19s-2.04-.4-2.81-1.19Z"/>
    <path d="M864.87,84.94c-2.45-1.08-4.4-2.68-5.87-4.8-1.47-2.12-2.2-4.69-2.2-7.7v-23.05h6.11v23.05c0,3.06,1.01,5.51,3.03,7.37s4.68,2.78,7.98,2.78c2.69,0,5.01-.61,6.97-1.83,1.96-1.22,3.42-2.75,4.4-4.59v-26.78h6.11v36.07h-6.11v-3.42l-.61-.18c-1.1,1.39-2.66,2.52-4.68,3.39s-4.37,1.31-7.06,1.31c-2.93,0-5.62-.54-8.07-1.62Z"/>
    <path d="M910.11,84.94c-2.45-1.08-4.4-2.68-5.87-4.8-1.47-2.12-2.2-4.69-2.2-7.7v-23.05h6.11v23.05c0,3.06,1.01,5.51,3.03,7.37s4.68,2.78,7.98,2.78c2.69,0,5.01-.61,6.97-1.83s3.42-2.75,4.4-4.59v-26.78h6.11v36.07h-6.11v-3.42l-.61-.18c-1.1,1.39-2.66,2.52-4.68,3.39s-4.37,1.31-7.06,1.31c-2.93,0-5.62-.54-8.07-1.62Z"/>
    <path d="M947.65,49.38h6.11v3.42l3.24.98-3.36.31c.94-1.67,2.51-3.06,4.71-4.16s4.87-1.65,8.01-1.65,5.79.53,8.19,1.59c2.4,1.06,4.31,2.65,5.72,4.77,1.41,2.12,2.11,4.71,2.11,7.76v23.05h-6.11v-23.05c0-3.3-1-5.79-3-7.46-2-1.67-4.58-2.51-7.76-2.51-2.65,0-5.07.62-7.25,1.87s-3.68,2.7-4.49,4.37v26.78h-6.11v-36.07Z"/>
    <path d="M993.75,41.83c-.77-.79-1.16-1.74-1.16-2.84s.39-2.03,1.16-2.78c.77-.75,1.71-1.13,2.81-1.13s2.04.38,2.81,1.13c.77.75,1.16,1.68,1.16,2.78s-.39,2.05-1.16,2.84c-.77.79-1.71,1.19-2.81,1.19s-2.04-.4-2.81-1.19ZM993.38,49.38h6.11v36.07h-6.11v-36.07Z"/>
    <path d="M1034.75,54.3c-2.1-1.24-4.6-1.87-7.49-1.87s-5.27.53-7,1.59c-1.73,1.06-2.6,2.45-2.6,4.16,0,1.31.53,2.41,1.59,3.3,1.06.9,2.85,1.55,5.38,1.96l7.15,1.1c4.57.69,8.01,1.93,10.33,3.7,2.32,1.77,3.48,4.19,3.48,7.25,0,2.49-.82,4.55-2.45,6.21-1.63,1.65-3.74,2.87-6.33,3.67-2.59.79-5.39,1.19-8.41,1.19-4.85,0-9.08-.99-12.69-2.97s-5.68-5.04-6.21-9.2h6.42c.41,2.57,1.7,4.54,3.88,5.93s5.04,2.08,8.59,2.08,6.23-.63,8.16-1.9c1.94-1.26,2.9-2.89,2.9-4.89,0-1.87-.72-3.27-2.17-4.19-1.45-.92-3.62-1.6-6.51-2.05l-7.09-1.04c-3.67-.53-6.61-1.59-8.83-3.18s-3.33-3.71-3.33-6.36c0-2.08.71-3.91,2.14-5.5,1.43-1.59,3.34-2.82,5.75-3.7,2.4-.88,5.03-1.31,7.89-1.31s5.55.45,8.1,1.34c2.55.9,4.67,2.22,6.36,3.97,1.69,1.75,2.72,3.83,3.09,6.24h-6.42c-.37-2.45-1.6-4.29-3.7-5.53Z"/>
    <path d="M1111.75,56.6c-1.26,1.75-2.79,3.18-4.58,4.28-1.79,1.1-4.16,2.34-7.09,3.73l-2.14,1.04-3.36,1.65c-3.02,1.47-5.36,2.87-7.03,4.22-1.67,1.35-2.92,2.89-3.73,4.65-.82,1.75-1.22,3.95-1.22,6.6l-1.35-2.14,31.61-.06v4.89h-37.11v-2.69c0-4.69,1.47-8.61,4.4-11.77,2.93-3.16,6.91-6,11.92-8.53l3.55-1.77c.65-.33,1.28-.63,1.89-.92,2.12-1.06,3.79-1.97,5.01-2.72,1.22-.75,2.22-1.68,3-2.78s1.16-2.45,1.16-4.04c0-2.81-1.08-5-3.24-6.57-2.16-1.57-4.93-2.35-8.32-2.35s-6.39.89-8.53,2.66c-2.14,1.77-3.37,4.13-3.7,7.06h-6.97c.41-2.81,1.38-5.3,2.93-7.46,1.55-2.16,3.68-3.85,6.39-5.08,2.71-1.22,5.94-1.83,9.69-1.83s6.8.57,9.63,1.71c2.83,1.14,5.05,2.74,6.66,4.8,1.61,2.06,2.42,4.45,2.42,7.18,0,2.41-.63,4.48-1.9,6.24Z"/>
    <path d="M1132.91,83.22c-3.26-2.22-5.78-5.23-7.55-9.02-1.77-3.79-2.66-7.97-2.66-12.53s.89-8.74,2.66-12.53c1.77-3.79,4.29-6.8,7.55-9.02,3.26-2.22,7.05-3.33,11.37-3.33s8.09,1.11,11.31,3.33c3.22,2.22,5.7,5.22,7.43,8.99,1.73,3.77,2.6,7.96,2.6,12.56s-.87,8.79-2.6,12.56c-1.73,3.77-4.21,6.77-7.43,8.99-3.22,2.22-6.99,3.33-11.31,3.33s-8.11-1.11-11.37-3.33ZM1152.11,79.13c2.16-1.77,3.79-4.18,4.89-7.21,1.1-3.04,1.65-6.45,1.65-10.24s-.55-7.2-1.65-10.24c-1.1-3.04-2.73-5.44-4.89-7.21-2.16-1.77-4.77-2.66-7.83-2.66s-5.75.89-7.95,2.66-3.86,4.18-4.98,7.21c-1.12,3.04-1.68,6.45-1.68,10.24s.57,7.21,1.71,10.24c1.14,3.04,2.81,5.44,5.01,7.21s4.83,2.66,7.89,2.66,5.67-.89,7.83-2.66Z"/>
    <path d="M1211.05,56.6c-1.26,1.75-2.79,3.18-4.58,4.28-1.79,1.1-4.16,2.34-7.09,3.73l-2.14,1.04-3.36,1.65c-3.02,1.47-5.36,2.87-7.03,4.22-1.67,1.35-2.92,2.89-3.73,4.65-.82,1.75-1.22,3.95-1.22,6.6l-1.35-2.14,31.61-.06v4.89h-37.11v-2.69c0-4.69,1.47-8.61,4.4-11.77,2.93-3.16,6.91-6,11.92-8.53l3.55-1.77c.65-.33,1.28-.63,1.89-.92,2.12-1.06,3.79-1.97,5.01-2.72,1.22-.75,2.22-1.68,3-2.78.78-1.1,1.16-2.45,1.16-4.04,0-2.81-1.08-5-3.24-6.57-2.16-1.57-4.93-2.35-8.32-2.35s-6.39.89-8.53,2.66c-2.14,1.77-3.37,4.13-3.7,7.06h-6.97c.41-2.81,1.38-5.3,2.93-7.46,1.55-2.16,3.68-3.85,6.39-5.08,2.71-1.22,5.94-1.83,9.69-1.83s6.8.57,9.63,1.71c2.83,1.14,5.05,2.74,6.66,4.8,1.61,2.06,2.42,4.45,2.42,7.18,0,2.41-.63,4.48-1.9,6.24Z"/>
    <path d="M1257.02,37.77v4.89h-26.35v13.15h3.42l-3.49.92c.9-1.96,2.51-3.57,4.83-4.83,2.32-1.26,5.01-1.9,8.07-1.9,3.34,0,6.4.79,9.17,2.35,2.77,1.57,4.97,3.73,6.6,6.48,1.63,2.75,2.45,5.8,2.45,9.14s-.87,6.5-2.6,9.35c-1.73,2.85-4.13,5.11-7.18,6.76-3.06,1.65-6.48,2.48-10.27,2.48-3.51,0-6.67-.6-9.51-1.8-2.83-1.2-5.12-2.9-6.88-5.11-1.75-2.2-2.83-4.79-3.24-7.76h6.97c.86,3.55,2.44,6.1,4.74,7.67,2.3,1.57,4.94,2.35,7.92,2.35,2.57,0,4.85-.6,6.85-1.8,2-1.2,3.56-2.86,4.68-4.98,1.12-2.12,1.68-4.5,1.68-7.15s-.53-4.87-1.59-6.91c-1.06-2.04-2.54-3.62-4.43-4.74-1.9-1.12-4.03-1.68-6.39-1.68-2.16,0-4.08.48-5.75,1.44-1.67.96-3,2.2-3.97,3.73-.98,1.53-1.59,3.17-1.83,4.92h-6.36v-26.96h32.47Z"/>
  </g>
  <g>
    <path d="M436.53,174.11h-6.36c-4.01,0-7.67-1.55-10.39-4.08-2.78,2.58-6.48,4.08-10.39,4.08h-6.11c-3.96,0-7.69-1.53-10.49-4.16-2.74,2.58-6.43,4.16-10.49,4.16h-6.36c-8.44,0-15.29-6.84-15.29-15.29v-47.69c0-8.44,6.84-15.29,15.29-15.29h7.83c5.57,0,10.69,3.03,13.38,7.9l9.46,17.14,9.36-17.1c2.68-4.9,7.82-7.95,13.41-7.95h7.15c8.44,0,15.29,6.84,15.29,15.29v47.69c0,8.44-6.84,15.29-15.29,15.29Z"/>
    <path d="M466.37,175.21c-6.43,0-12.38-1.56-17.67-4.65-5.29-3.08-9.49-7.33-12.48-12.61-2.96-5.22-4.46-10.99-4.46-17.16s1.5-11.94,4.46-17.16c2.99-5.28,7.19-9.53,12.47-12.61,5.29-3.08,11.23-4.65,17.67-4.65s12.38,1.56,17.67,4.65c5.28,3.08,9.48,7.32,12.47,12.61,2.96,5.23,4.46,11,4.46,17.17s-1.5,11.94-4.46,17.17c-2.99,5.28-7.19,9.52-12.47,12.6-5.29,3.09-11.24,4.65-17.67,4.65Z"/>
    <path d="M501.1,174.11h-6.11c-8.44,0-15.29-6.84-15.29-15.29v-36.07c0-8.44,6.84-15.29,15.29-15.29h6.11c1.33,0,2.61.17,3.83.49,4.46-1.17,9.35-1.42,14.19-.68,1.91.29,3.78.74,5.57,1.34.7.23,1.39.52,2.05.85l.12.06c5.15,2.6,8.41,7.88,8.41,13.65v4.65c0,4.97-2.42,9.63-6.48,12.5-3.62,2.55-8.16,3.39-12.41,2.36v16.15c0,8.44-6.84,15.29-15.29,15.29Z"/>
    <path d="M544.45,175.21c-6.47,0-12.44-1.56-17.73-4.65h0c-5.32-3.1-9.52-7.37-12.49-12.69-2.91-5.2-4.39-10.95-4.39-17.09s1.48-11.88,4.39-17.09c2.96-5.3,7.14-9.56,12.41-12.66,5.28-3.1,11.23-4.67,17.68-4.67s12.4,1.57,17.68,4.67c5.27,3.1,9.45,7.35,12.41,12.65,2.92,5.22,4.39,10.95,4.39,17.04v.12c0,1.36-.18,2.68-.51,3.94.08,1.38-.04,2.78-.34,4.15-1.21,5.43-3.62,10.25-7.17,14.34-3.37,3.88-7.46,6.89-12.15,8.94-4.54,1.99-9.32,2.99-14.19,2.99Z"/>
    <path d="M600.7,174.11h-6.12c-8.44,0-15.29-6.84-15.29-15.29v-36.07c0-1.24.15-2.45.43-3.61-.8-2.15-1.22-4.44-1.22-6.79,0-5.22,2.05-10.1,5.78-13.73,3.63-3.53,8.41-5.47,13.48-5.47s9.85,1.94,13.47,5.46c3.74,3.65,5.79,8.53,5.79,13.74,0,2.5-.47,4.93-1.38,7.18.22,1.04.34,2.11.34,3.21v36.07c0,8.44-6.84,15.29-15.29,15.29Z"/>
    <path d="M646.8,174.11h-6.11c-4.45,0-8.46-1.9-11.25-4.94-2.79,3.04-6.8,4.94-11.25,4.94h-6.11c-8.44,0-15.29-6.84-15.29-15.29v-36.07c0-8.44,6.84-15.29,15.29-15.29h6.11c.92,0,1.82.08,2.69.24,3.06-.89,6.37-1.34,9.9-1.34,5.18,0,10.01.97,14.36,2.89,5.11,2.25,9.25,5.72,12.29,10.31,3.09,4.66,4.66,10.12,4.66,16.22v23.05c0,8.44-6.84,15.29-15.29,15.29Z"/>
    <path d="M667.64,174.11h-6.36c-8.44,0-15.29-6.84-15.29-15.29v-19.83c-3.61-2.8-5.93-7.17-5.93-12.09v-4.16c0-6.28,3.79-11.67,9.2-14.03,1.16-2.33,2.63-4.39,4.4-6.18h0c3.53-3.56,9.99-7.8,20.76-7.8,2.41,0,4.46.18,6.28.54,7.15,1.42,12.31,7.7,12.31,14.99v4.4c0,1.73-.29,3.43-.85,5.03.2.98.3,2,.3,3.04v4.16c0,6.41-3.94,11.9-9.54,14.17v17.75c0,8.44-6.84,15.29-15.29,15.29Z"/>
    <path d="M702.37,175.21c-6.43,0-12.38-1.56-17.67-4.65h0c-5.29-3.08-9.49-7.33-12.48-12.61-2.96-5.22-4.46-11-4.46-17.16s1.5-11.93,4.46-17.16c3-5.29,7.19-9.53,12.48-12.61,5.28-3.08,11.23-4.65,17.67-4.65s12.38,1.56,17.67,4.65c5.28,3.08,9.48,7.32,12.47,12.6,2.96,5.23,4.46,11.01,4.46,17.17s-1.5,11.94-4.46,17.16c-2.99,5.28-7.19,9.53-12.48,12.61-5.29,3.08-11.23,4.65-17.67,4.65ZM700.59,141.2s0,0,0,0t0,0Z"/>
    <path d="M758.87,174.11h-6.11c-8.44,0-15.29-6.84-15.29-15.29v-36.07c0-1.24.15-2.45.43-3.61-.8-2.14-1.22-4.44-1.22-6.79,0-5.22,2.05-10.1,5.78-13.73,3.63-3.53,8.42-5.47,13.48-5.47s9.85,1.94,13.47,5.46c3.74,3.65,5.79,8.52,5.79,13.74,0,2.5-.47,4.93-1.38,7.19.22,1.03.34,2.11.34,3.21v36.07c0,8.44-6.84,15.29-15.29,15.29Z"/>
    <path d="M804.97,174.11h-6.12c-4.45,0-8.46-1.9-11.25-4.94-2.79,3.04-6.8,4.94-11.25,4.94h-6.11c-8.44,0-15.29-6.84-15.29-15.29v-36.07c0-8.44,6.84-15.29,15.29-15.29h6.11c.92,0,1.82.08,2.69.24,3.06-.89,6.38-1.34,9.9-1.34,5.17,0,10,.97,14.35,2.89,5.12,2.25,9.25,5.72,12.29,10.31,3.09,4.66,4.66,10.12,4.66,16.22v23.05c0,8.44-6.84,15.29-15.29,15.29Z"/>
    <path d="M847.89,175.21c-7.45,0-13.96-1.85-19.36-5.5-7.07-4.78-10.97-12.21-10.97-20.92s6.84-15.29,15.29-15.29h6.73c.45,0,.9.02,1.34.06v-22.44c0-8.44,6.84-15.29,15.29-15.29h6.73c8.44,0,15.29,6.84,15.29,15.29v34.24c0,11.65-4.79,18.51-8.81,22.22-5.49,5.06-12.73,7.62-21.51,7.62ZM840.88,146.12h0ZM845.59,144.35h0Z"/>
    <path d="M890.32,175.21c-5.06,0-9.85-.98-14.24-2.92,0,0,0,0,0,0-5.05-2.23-9.18-5.62-12.26-10.08-3.26-4.71-4.92-10.23-4.92-16.4v-23.05c0-8.44,6.84-15.29,15.29-15.29h6.11c4.42,0,8.4,1.88,11.19,4.87,2.79-3,6.77-4.87,11.19-4.87h6.11c8.44,0,15.29,6.84,15.29,15.29v36.07c0,8.44-6.84,15.29-15.29,15.29h-6.11c-.91,0-1.79-.08-2.66-.23-3.02.88-6.26,1.33-9.7,1.33Z"/>
    <path d="M954.52,174.11h-6.12c-4.45,0-8.46-1.9-11.25-4.94-2.79,3.04-6.8,4.94-11.25,4.94h-6.11c-8.44,0-15.29-6.84-15.29-15.29v-36.07c0-8.44,6.84-15.29,15.29-15.29h6.11c.92,0,1.82.08,2.69.24,3.06-.89,6.38-1.34,9.9-1.34,5.17,0,10,.97,14.35,2.89,5.12,2.25,9.25,5.72,12.29,10.31,3.09,4.66,4.66,10.12,4.66,16.22v23.05c0,8.44-6.84,15.29-15.29,15.29Z"/>
    <path d="M982.76,175.21c-6.47,0-12.44-1.56-17.73-4.65h0c-5.32-3.1-9.52-7.37-12.49-12.69-2.91-5.2-4.39-10.95-4.39-17.09s1.48-11.88,4.39-17.09c2.96-5.3,7.14-9.56,12.41-12.66,5.28-3.1,11.23-4.67,17.68-4.67s12.4,1.57,17.68,4.67c5.27,3.1,9.45,7.35,12.41,12.65,2.92,5.22,4.39,10.95,4.39,17.04v.12c0,1.36-.18,2.68-.51,3.94.08,1.38-.04,2.78-.34,4.15-1.21,5.43-3.62,10.25-7.17,14.34-3.37,3.88-7.46,6.89-12.15,8.94-4.54,1.99-9.32,2.99-14.19,2.99Z"/>
    <path d="M1069.04,174.11h-37.11c-8.44,0-15.29-6.84-15.29-15.29v-2.69c0-7.31,2.16-13.99,6.28-19.52-.86-.64-1.65-1.38-2.37-2.21-2.9-3.35-4.21-7.8-3.57-12.19.76-5.24,2.66-10.01,5.64-14.17,3.13-4.37,7.35-7.77,12.53-10.11,4.68-2.11,10.06-3.18,15.97-3.18,5.53,0,10.69.95,15.34,2.82,5.34,2.15,9.71,5.37,12.99,9.56,3.71,4.74,5.67,10.48,5.67,16.61,0,5.59-1.65,10.84-4.78,15.18-.69.96-1.43,1.87-2.21,2.74.6.45,1.17.94,1.71,1.47,2.87,2.87,4.49,6.76,4.49,10.82v4.89c0,8.44-6.84,15.29-15.29,15.29Z"/>
    <path d="M1100.46,175.21c-7.43,0-14.15-2.01-19.98-5.99-5.54-3.78-9.85-8.88-12.79-15.18-2.72-5.81-4.1-12.21-4.1-19.01s1.38-13.2,4.1-19.01c2.94-6.29,7.24-11.39,12.79-15.17,5.83-3.97,12.55-5.99,19.98-5.99s14.18,2.03,19.99,6.03c5.5,3.8,9.75,8.91,12.64,15.19,2.65,5.78,4,12.15,4,18.95s-1.34,13.17-3.99,18.94c-2.89,6.29-7.14,11.39-12.64,15.19-5.81,4.01-12.54,6.04-19.99,6.04ZM1102.24,140.67h0Z"/>
    <path d="M1168.33,174.11h-37.11c-8.44,0-15.29-6.84-15.29-15.29v-2.69c0-7.31,2.16-13.99,6.28-19.52-.86-.65-1.65-1.38-2.37-2.21-2.9-3.36-4.21-7.81-3.57-12.2.76-5.25,2.66-10.01,5.64-14.17,3.13-4.37,7.34-7.76,12.53-10.1,4.69-2.11,10.06-3.19,15.98-3.19,5.53,0,10.69.95,15.34,2.82,5.34,2.15,9.71,5.37,12.99,9.55,3.71,4.74,5.67,10.48,5.67,16.61,0,5.59-1.65,10.83-4.78,15.17,0,0,0,0,0,0-.69.96-1.43,1.87-2.21,2.73.6.45,1.17.94,1.71,1.47,2.87,2.87,4.49,6.76,4.49,10.82v4.89c0,8.44-6.84,15.29-15.29,15.29Z"/>
    <path d="M1197.86,175.21c-5.55,0-10.76-1.02-15.48-3.02-5.19-2.2-9.52-5.45-12.87-9.66-3.48-4.37-5.64-9.49-6.42-15.21-.5-3.68.35-7.39,2.37-10.46v-25.73c0-8.44,6.84-15.29,15.29-15.29h32.47c8.44,0,15.29,6.84,15.29,15.29v4.89c0,2.2-.46,4.28-1.3,6.17.5.71.97,1.45,1.42,2.21,3.04,5.14,4.58,10.83,4.58,16.93s-1.62,12.02-4.82,17.29c-3.15,5.19-7.52,9.32-12.99,12.27-5.29,2.86-11.19,4.31-17.53,4.31Z"/>
  </g>
  <g>
    <path d="M436.53,158.82h-6.36v-40.6l1.22.18-22.01,40.42h-6.11l-22.2-40.42,1.22-.18v40.6h-6.36v-47.69h7.83l24.03,43.53-2.38.24,23.97-43.78h7.15v47.69Z"/>
    <path d="M456.4,157.36c-2.93-1.71-5.23-4.02-6.88-6.94-1.65-2.91-2.48-6.12-2.48-9.63s.83-6.71,2.48-9.63c1.65-2.91,3.94-5.23,6.88-6.94s6.26-2.57,9.97-2.57,7.03.86,9.97,2.57c2.93,1.71,5.23,4.03,6.88,6.94,1.65,2.92,2.48,6.12,2.48,9.63s-.82,6.72-2.48,9.63c-1.65,2.92-3.94,5.23-6.88,6.94-2.94,1.71-6.26,2.57-9.97,2.57s-7.03-.86-9.97-2.57ZM473.31,153.75c1.94-1.34,3.4-3.15,4.4-5.41,1-2.26,1.5-4.78,1.5-7.55s-.5-5.29-1.5-7.55c-1-2.26-2.47-4.07-4.4-5.41-1.94-1.34-4.25-2.02-6.94-2.02s-5,.67-6.94,2.02c-1.94,1.35-3.4,3.15-4.4,5.41-1,2.26-1.5,4.78-1.5,7.55s.5,5.29,1.5,7.55c1,2.26,2.47,4.07,4.4,5.41,1.94,1.35,4.25,2.02,6.94,2.02s5-.67,6.94-2.02Z"/>
    <path d="M494.98,122.75h6.11v4.58l1.28.86-2.63,2.45c.94-2.85,2.69-4.98,5.26-6.39,2.57-1.41,5.44-2.11,8.62-2.11,1.06,0,2.12.08,3.18.24,1.06.16,2.08.41,3.06.73l.12.06v4.65c-1.71-.61-3.75-.92-6.11-.92-2.98,0-5.66.58-8.04,1.74-2.38,1.16-3.96,2.97-4.74,5.41v24.76h-6.11v-36.07Z"/>
    <path d="M534.42,157.36c-2.94-1.71-5.22-4.02-6.85-6.94-1.63-2.91-2.45-6.12-2.45-9.63s.81-6.71,2.45-9.63c1.63-2.91,3.9-5.23,6.82-6.94s6.23-2.57,9.94-2.57,7.02.86,9.94,2.57,5.19,4.03,6.82,6.94c1.63,2.92,2.45,6.11,2.45,9.57v.12h-6.36v-.12c0-2.73-.49-5.23-1.47-7.49-.98-2.26-2.44-4.07-4.37-5.41-1.94-1.34-4.27-2.02-7-2.02s-5.06.67-7,2.02c-1.94,1.35-3.39,3.16-4.37,5.44-.98,2.28-1.47,4.79-1.47,7.52s.49,5.24,1.47,7.52c.98,2.28,2.45,4.1,4.4,5.44,1.96,1.35,4.32,2.02,7.09,2.02,3.42,0,6.4-.93,8.93-2.78,2.53-1.85,4.28-4.31,5.26-7.37h4.4c-.65,2.94-1.92,5.48-3.79,7.64-1.88,2.16-4.12,3.81-6.73,4.95-2.61,1.14-5.3,1.71-8.07,1.71-3.75,0-7.09-.86-10.03-2.57ZM529.96,136.69h30.26v4.16h-30.26v-4.16Z"/>
    <path d="M594.95,115.2c-.77-.79-1.16-1.74-1.16-2.84s.39-2.03,1.16-2.78c.77-.75,1.71-1.13,2.81-1.13s2.04.38,2.81,1.13c.77.75,1.16,1.68,1.16,2.78s-.39,2.05-1.16,2.84c-.77.79-1.71,1.19-2.81,1.19s-2.04-.4-2.81-1.19ZM594.58,122.75h6.12v36.07h-6.12v-36.07Z"/>
    <path d="M612.07,122.75h6.11v3.42l3.24.98-3.36.31c.94-1.67,2.51-3.06,4.71-4.16s4.87-1.65,8.01-1.65,5.79.53,8.19,1.59c2.4,1.06,4.31,2.65,5.72,4.77,1.41,2.12,2.11,4.71,2.11,7.76v23.05h-6.11v-23.05c0-3.3-1-5.79-3-7.46-2-1.67-4.59-2.51-7.77-2.51-2.65,0-5.06.62-7.25,1.87s-3.68,2.7-4.49,4.37v26.78h-6.11v-36.07Z"/>
    <path d="M677.18,122.75v4.16h-21.83v-4.16h21.83ZM664.53,113.31c2.16-2.18,5.46-3.27,9.9-3.27,1.39,0,2.49.08,3.3.24v4.4c-.82-.16-1.81-.24-3-.24-1.71,0-3.07.25-4.07.76-1,.51-1.75,1.5-2.26,2.97-.51,1.47-.76,3.59-.76,6.36v34.3h-6.36v-34.3c0-5.3,1.08-9.04,3.24-11.22Z"/>
    <path d="M692.41,157.36c-2.94-1.71-5.23-4.02-6.88-6.94-1.65-2.91-2.48-6.12-2.48-9.63s.83-6.71,2.48-9.63c1.65-2.91,3.94-5.23,6.88-6.94,2.93-1.71,6.26-2.57,9.96-2.57s7.03.86,9.97,2.57c2.94,1.71,5.23,4.03,6.88,6.94,1.65,2.92,2.48,6.12,2.48,9.63s-.83,6.72-2.48,9.63c-1.65,2.92-3.94,5.23-6.88,6.94-2.93,1.71-6.26,2.57-9.97,2.57s-7.03-.86-9.96-2.57ZM709.31,153.75c1.94-1.34,3.4-3.15,4.4-5.41,1-2.26,1.5-4.78,1.5-7.55s-.5-5.29-1.5-7.55c-1-2.26-2.47-4.07-4.4-5.41-1.94-1.34-4.25-2.02-6.94-2.02s-5,.67-6.94,2.02c-1.94,1.35-3.4,3.15-4.4,5.41-1,2.26-1.5,4.78-1.5,7.55s.5,5.29,1.5,7.55c1,2.26,2.47,4.07,4.4,5.41,1.94,1.35,4.25,2.02,6.94,2.02s5-.67,6.94-2.02Z"/>
    <path d="M753.12,115.2c-.77-.79-1.16-1.74-1.16-2.84s.39-2.03,1.16-2.78c.77-.75,1.71-1.13,2.81-1.13s2.04.38,2.81,1.13c.77.75,1.16,1.68,1.16,2.78s-.39,2.05-1.16,2.84-1.71,1.19-2.81,1.19-2.04-.4-2.81-1.19ZM752.75,122.75h6.11v36.07h-6.11v-36.07Z"/>
    <path d="M770.24,122.75h6.11v3.42l3.24.98-3.36.31c.94-1.67,2.51-3.06,4.71-4.16s4.87-1.65,8.01-1.65,5.79.53,8.19,1.59c2.4,1.06,4.31,2.65,5.72,4.77,1.41,2.12,2.11,4.71,2.11,7.76v23.05h-6.12v-23.05c0-3.3-1-5.79-3-7.46-2-1.67-4.58-2.51-7.76-2.51-2.65,0-5.07.62-7.25,1.87-2.18,1.24-3.68,2.7-4.49,4.37v26.78h-6.11v-36.07Z"/>
    <path d="M837.1,157.05c-2.83-1.92-4.25-4.67-4.25-8.25h6.73c0,1.92.73,3.56,2.2,4.92,1.47,1.37,3.5,2.05,6.11,2.05,2.81,0,4.9-.88,6.27-2.63,1.37-1.75,2.05-4.34,2.05-7.76v-34.24h6.73v34.24c0,4.93-1.29,8.59-3.88,10.97-2.59,2.38-6.31,3.58-11.16,3.58-4.36,0-7.96-.96-10.79-2.87Z"/>
    <path d="M882.25,158.31c-2.45-1.08-4.4-2.68-5.87-4.8-1.47-2.12-2.2-4.69-2.2-7.7v-23.05h6.11v23.05c0,3.06,1.01,5.51,3.03,7.37s4.68,2.78,7.98,2.78c2.69,0,5.01-.61,6.97-1.83,1.96-1.22,3.42-2.75,4.4-4.59v-26.78h6.11v36.07h-6.11v-3.42l-.61-.18c-1.1,1.39-2.66,2.52-4.68,3.39s-4.37,1.31-7.06,1.31c-2.93,0-5.62-.54-8.07-1.62Z"/>
    <path d="M919.79,122.75h6.11v3.42l3.24.98-3.36.31c.94-1.67,2.51-3.06,4.71-4.16s4.87-1.65,8.01-1.65,5.79.53,8.19,1.59c2.4,1.06,4.31,2.65,5.72,4.77,1.41,2.12,2.11,4.71,2.11,7.76v23.05h-6.12v-23.05c0-3.3-1-5.79-3-7.46-2-1.67-4.58-2.51-7.76-2.51-2.65,0-5.07.62-7.25,1.87-2.18,1.24-3.68,2.7-4.49,4.37v26.78h-6.11v-36.07Z"/>
    <path d="M972.74,157.36c-2.94-1.71-5.22-4.02-6.85-6.94-1.63-2.91-2.45-6.12-2.45-9.63s.81-6.71,2.45-9.63c1.63-2.91,3.9-5.23,6.82-6.94s6.23-2.57,9.94-2.57,7.02.86,9.94,2.57,5.19,4.03,6.82,6.94c1.63,2.92,2.45,6.11,2.45,9.57v.12h-6.36v-.12c0-2.73-.49-5.23-1.47-7.49-.98-2.26-2.44-4.07-4.37-5.41-1.94-1.34-4.27-2.02-7-2.02s-5.06.67-7,2.02c-1.94,1.35-3.39,3.16-4.37,5.44-.98,2.28-1.47,4.79-1.47,7.52s.49,5.24,1.47,7.52c.98,2.28,2.45,4.1,4.4,5.44,1.96,1.35,4.32,2.02,7.09,2.02,3.42,0,6.4-.93,8.93-2.78,2.53-1.85,4.28-4.31,5.26-7.37h4.4c-.65,2.94-1.92,5.48-3.79,7.64-1.88,2.16-4.12,3.81-6.73,4.95-2.61,1.14-5.3,1.71-8.07,1.71-3.75,0-7.09-.86-10.03-2.57ZM968.27,136.69h30.26v4.16h-30.26v-4.16Z"/>
    <path d="M1067.93,129.97c-1.26,1.75-2.79,3.18-4.59,4.28-1.79,1.1-4.16,2.34-7.09,3.73l-2.14,1.04-3.36,1.65c-3.02,1.47-5.36,2.87-7.03,4.22-1.67,1.35-2.92,2.89-3.73,4.65-.82,1.75-1.22,3.95-1.22,6.6l-1.35-2.14,31.61-.06v4.89h-37.11v-2.69c0-4.69,1.47-8.61,4.4-11.77,2.93-3.16,6.91-6,11.92-8.53l3.55-1.77c.65-.33,1.28-.63,1.9-.92,2.12-1.06,3.79-1.97,5.01-2.72,1.22-.75,2.22-1.68,3-2.78.77-1.1,1.16-2.45,1.16-4.04,0-2.81-1.08-5-3.24-6.57-2.16-1.57-4.93-2.35-8.32-2.35s-6.39.89-8.53,2.66c-2.14,1.77-3.37,4.13-3.7,7.06h-6.97c.41-2.81,1.39-5.3,2.93-7.46,1.55-2.16,3.68-3.85,6.39-5.08,2.71-1.22,5.94-1.83,9.69-1.83s6.8.57,9.63,1.71c2.83,1.14,5.05,2.74,6.66,4.8,1.61,2.06,2.42,4.45,2.42,7.18,0,2.41-.63,4.48-1.9,6.24Z"/>
    <path d="M1089.09,156.59c-3.26-2.22-5.78-5.23-7.55-9.02-1.77-3.79-2.66-7.97-2.66-12.53s.89-8.74,2.66-12.53c1.77-3.79,4.29-6.8,7.55-9.02,3.26-2.22,7.05-3.33,11.37-3.33s8.09,1.11,11.31,3.33c3.22,2.22,5.7,5.22,7.43,8.99,1.73,3.77,2.6,7.96,2.6,12.56s-.87,8.79-2.6,12.56c-1.73,3.77-4.21,6.77-7.43,8.99-3.22,2.22-6.99,3.33-11.31,3.33s-8.11-1.11-11.37-3.33ZM1108.29,152.5c2.16-1.77,3.79-4.18,4.89-7.21,1.1-3.04,1.65-6.45,1.65-10.24s-.55-7.2-1.65-10.24c-1.1-3.04-2.73-5.44-4.89-7.21-2.16-1.77-4.77-2.66-7.83-2.66s-5.75.89-7.95,2.66-3.86,4.18-4.98,7.21c-1.12,3.04-1.68,6.45-1.68,10.24s.57,7.21,1.71,10.24c1.14,3.04,2.81,5.44,5.01,7.21s4.83,2.66,7.89,2.66,5.67-.89,7.83-2.66Z"/>
    <path d="M1167.23,129.97c-1.26,1.75-2.79,3.18-4.59,4.28-1.79,1.1-4.16,2.34-7.09,3.73l-2.14,1.04-3.36,1.65c-3.02,1.47-5.36,2.87-7.03,4.22-1.67,1.35-2.91,2.89-3.73,4.65-.82,1.75-1.22,3.95-1.22,6.6l-1.34-2.14,31.61-.06v4.89h-37.11v-2.69c0-4.69,1.47-8.61,4.4-11.77,2.94-3.16,6.91-6,11.92-8.53l3.54-1.77c.65-.33,1.29-.63,1.9-.92,2.12-1.06,3.79-1.97,5.01-2.72,1.22-.75,2.22-1.68,3-2.78.77-1.1,1.16-2.45,1.16-4.04,0-2.81-1.08-5-3.24-6.57s-4.93-2.35-8.31-2.35-6.39.89-8.53,2.66c-2.14,1.77-3.37,4.13-3.7,7.06h-6.97c.41-2.81,1.39-5.3,2.94-7.46,1.55-2.16,3.68-3.85,6.39-5.08s5.94-1.83,9.69-1.83,6.8.57,9.63,1.71c2.83,1.14,5.05,2.74,6.67,4.8,1.61,2.06,2.41,4.45,2.41,7.18,0,2.41-.63,4.48-1.89,6.24Z"/>
    <path d="M1213.2,111.13v4.89h-26.35v13.15h3.42l-3.48.92c.9-1.96,2.51-3.57,4.83-4.83,2.32-1.26,5.01-1.9,8.07-1.9,3.34,0,6.4.79,9.17,2.35,2.77,1.57,4.97,3.73,6.6,6.48,1.63,2.75,2.45,5.8,2.45,9.14s-.87,6.5-2.6,9.35c-1.73,2.85-4.13,5.11-7.18,6.76-3.06,1.65-6.48,2.48-10.27,2.48-3.51,0-6.68-.6-9.51-1.8-2.83-1.2-5.13-2.9-6.88-5.11s-2.83-4.79-3.24-7.76h6.97c.86,3.55,2.43,6.1,4.74,7.67,2.3,1.57,4.94,2.35,7.92,2.35,2.57,0,4.85-.6,6.85-1.8,2-1.2,3.56-2.86,4.68-4.98,1.12-2.12,1.68-4.5,1.68-7.15s-.53-4.87-1.59-6.91c-1.06-2.04-2.54-3.62-4.43-4.74-1.89-1.12-4.03-1.68-6.39-1.68-2.16,0-4.08.48-5.75,1.44-1.67.96-3,2.2-3.97,3.73-.98,1.53-1.59,3.17-1.83,4.92h-6.36v-26.96h32.47Z"/>
  </g>
  <g>
    <path class="cls-1" d="M332.28,37.77h26.84c3.22,0,6.02.55,8.41,1.65,2.38,1.1,4.23,2.65,5.53,4.65,1.3,2,1.96,4.3,1.96,6.91.04,3.02-.76,5.54-2.42,7.58-1.65,2.04-4.03,3.53-7.12,4.46l2.14-3.67v5.99l-1.28-3c2.12.33,3.75,1.27,4.89,2.84,1.14,1.57,2.06,4,2.75,7.31.77,3.67,1.52,6.46,2.23,8.38.71,1.92,1.48,3.45,2.29,4.59h-7.28c-.73-1.14-1.32-2.51-1.77-4.1-.45-1.59-1.12-4.42-2.02-8.5-.61-2.81-1.62-4.96-3.03-6.45-1.41-1.49-3.44-2.23-6.08-2.23h-19.26l-.06,21.28h-6.73v-47.69ZM365.7,57.15c1.61-1.51,2.39-3.57,2.35-6.18-.04-2.61-.87-4.67-2.48-6.17-1.61-1.51-3.76-2.26-6.45-2.26h-20.12l.06,16.88h20.12c2.73,0,4.9-.75,6.51-2.26Z"/>
    <path class="cls-1" d="M395.93,83.99c-2.94-1.71-5.23-4.02-6.88-6.94-1.65-2.91-2.48-6.12-2.48-9.63s.83-6.71,2.48-9.63c1.65-2.91,3.94-5.23,6.88-6.94,2.93-1.71,6.26-2.57,9.97-2.57s7.03.86,9.97,2.57c2.94,1.71,5.23,4.03,6.88,6.94,1.65,2.92,2.48,6.12,2.48,9.63s-.83,6.72-2.48,9.63c-1.65,2.92-3.94,5.23-6.88,6.94-2.93,1.71-6.26,2.57-9.97,2.57s-7.03-.86-9.97-2.57ZM412.84,80.38c1.94-1.34,3.4-3.15,4.4-5.41,1-2.26,1.5-4.78,1.5-7.55s-.5-5.29-1.5-7.55c-1-2.26-2.47-4.07-4.4-5.41-1.94-1.34-4.25-2.02-6.94-2.02s-5,.67-6.94,2.02c-1.94,1.35-3.4,3.15-4.4,5.41-1,2.26-1.5,4.78-1.5,7.55s.5,5.29,1.5,7.55c1,2.26,2.46,4.07,4.4,5.41,1.94,1.35,4.25,2.02,6.94,2.02s5-.67,6.94-2.02Z"/>
    <path class="cls-1" d="M434.51,37.77h6.11v15.04l3.24.98-3.36.31c.94-1.67,2.51-3.06,4.71-4.16s4.87-1.65,8.01-1.65,5.79.53,8.19,1.59c2.4,1.06,4.31,2.65,5.72,4.77,1.41,2.12,2.11,4.71,2.11,7.76v23.05h-6.11v-23.05c0-3.3-1-5.79-3-7.46-2-1.67-4.58-2.51-7.76-2.51-2.65,0-5.07.62-7.25,1.87s-3.68,2.7-4.49,4.37v26.78h-6.11v-47.69Z"/>
    <path class="cls-1" d="M479.88,37.77h6.11v47.69h-6.11v-47.69ZM484.53,69.25l21.4-19.87h7.21l-28.06,26.11-.55-6.24ZM492.35,66.5l4.1-4.34,18.59,23.29h-7.52l-15.16-18.95Z"/>
    <path class="cls-1" d="M528.85,83.99c-2.93-1.71-5.22-4.02-6.85-6.94-1.63-2.91-2.45-6.12-2.45-9.63s.81-6.71,2.45-9.63c1.63-2.91,3.9-5.23,6.82-6.94,2.91-1.71,6.23-2.57,9.94-2.57s7.02.86,9.94,2.57c2.91,1.71,5.19,4.03,6.82,6.94,1.63,2.92,2.45,6.11,2.45,9.57v.12h-6.36v-.12c0-2.73-.49-5.23-1.47-7.49-.98-2.26-2.44-4.07-4.37-5.41-1.94-1.34-4.27-2.02-7-2.02s-5.07.67-7,2.02c-1.94,1.35-3.39,3.16-4.37,5.44-.98,2.28-1.47,4.79-1.47,7.52s.49,5.24,1.47,7.52c.98,2.28,2.45,4.1,4.4,5.44,1.96,1.35,4.32,2.02,7.09,2.02,3.42,0,6.4-.93,8.93-2.78,2.53-1.85,4.28-4.31,5.26-7.37h4.4c-.65,2.94-1.92,5.48-3.79,7.64-1.88,2.16-4.12,3.81-6.73,4.95-2.61,1.14-5.3,1.71-8.07,1.71-3.75,0-7.09-.86-10.03-2.57ZM524.39,63.32h30.27v4.16h-30.27v-4.16Z"/>
    <path class="cls-1" d="M567.25,49.38h6.11v3.42l.61.18c.94-1.39,2.34-2.52,4.22-3.39,1.87-.88,4.1-1.31,6.66-1.31s4.9.51,7,1.53c2.1,1.02,3.72,2.59,4.86,4.71l-3-.37h7.09l-3.91.12c1.51-1.96,3.28-3.44,5.32-4.46,2.04-1.02,4.52-1.53,7.46-1.53,2.61,0,5.01.48,7.21,1.44,2.2.96,3.95,2.38,5.26,4.28,1.3,1.89,1.96,4.23,1.96,7v24.46h-6.12v-24.46c0-2.49-.84-4.53-2.51-6.14-1.67-1.61-3.85-2.42-6.54-2.42-2.24,0-4.24.56-5.99,1.68s-3.16,2.56-4.22,4.31v27.02h-6.11v-24.46c0-2.49-.79-4.53-2.38-6.14-1.59-1.61-3.65-2.42-6.18-2.42-2.16,0-4.23.58-6.21,1.74-1.98,1.16-3.48,2.58-4.49,4.25v27.02h-6.11v-36.07Z"/>
    <path class="cls-1" d="M656.39,41.83c-.78-.79-1.16-1.74-1.16-2.84s.39-2.03,1.16-2.78c.77-.75,1.71-1.13,2.81-1.13s2.04.38,2.81,1.13c.77.75,1.16,1.68,1.16,2.78s-.39,2.05-1.16,2.84c-.78.79-1.71,1.19-2.81,1.19s-2.04-.4-2.81-1.19ZM656.03,49.38h6.11v36.07h-6.11v-36.07Z"/>
    <path class="cls-1" d="M673.51,49.38h6.11v3.42l3.24.98-3.36.31c.94-1.67,2.51-3.06,4.71-4.16s4.87-1.65,8.01-1.65,5.79.53,8.19,1.59c2.4,1.06,4.31,2.65,5.72,4.77,1.41,2.12,2.11,4.71,2.11,7.76v23.05h-6.11v-23.05c0-3.3-1-5.79-3-7.46-2-1.67-4.58-2.51-7.76-2.51-2.65,0-5.07.62-7.25,1.87s-3.68,2.7-4.49,4.37v26.78h-6.11v-36.07Z"/>
    <path class="cls-1" d="M738.63,49.38v4.16h-21.83v-4.16h21.83ZM725.97,39.94c2.16-2.18,5.46-3.27,9.9-3.27,1.38,0,2.49.08,3.3.24v4.4c-.82-.16-1.81-.24-3-.24-1.71,0-3.07.25-4.07.76-1,.51-1.75,1.5-2.26,2.97-.51,1.47-.76,3.59-.76,6.36v34.3h-6.36v-34.3c0-5.3,1.08-9.04,3.24-11.22Z"/>
    <path class="cls-1" d="M753.85,83.99c-2.93-1.71-5.23-4.02-6.88-6.94-1.65-2.91-2.48-6.12-2.48-9.63s.83-6.71,2.48-9.63c1.65-2.91,3.94-5.23,6.88-6.94s6.26-2.57,9.97-2.57,7.03.86,9.97,2.57c2.93,1.71,5.23,4.03,6.88,6.94,1.65,2.92,2.48,6.12,2.48,9.63s-.82,6.72-2.48,9.63c-1.65,2.92-3.94,5.23-6.88,6.94-2.94,1.71-6.26,2.57-9.97,2.57s-7.03-.86-9.97-2.57ZM770.76,80.38c1.94-1.34,3.4-3.15,4.4-5.41,1-2.26,1.5-4.78,1.5-7.55s-.5-5.29-1.5-7.55c-1-2.26-2.47-4.07-4.4-5.41-1.94-1.34-4.25-2.02-6.94-2.02s-5,.67-6.94,2.02c-1.94,1.35-3.4,3.15-4.4,5.41-1,2.26-1.5,4.78-1.5,7.55s.5,5.29,1.5,7.55c1,2.26,2.47,4.07,4.4,5.41,1.94,1.35,4.25,2.02,6.94,2.02s5-.67,6.94-2.02Z"/>
    <path class="cls-1" d="M797.29,84.26c-1.41-1.53-2.11-3.62-2.11-6.27v-24.46h-5.5v-4.16h5.5v-7.89l6.11-.06v7.95h8.5v4.16h-8.5v24.76c0,1.22.31,2.2.92,2.93s1.61,1.1,3,1.1,2.83-.37,4.34-1.1l1.41,3.55c-1.1.57-2.26,1.01-3.49,1.31-1.22.31-2.47.46-3.73.46-2.89,0-5.04-.76-6.45-2.29Z"/>
    <path class="cls-1" d="M846.91,49.38v38.89c0,1.67-.43,3.22-1.28,4.65s-2.1,2.58-3.73,3.46c-1.63.88-3.59,1.31-5.87,1.31-.69,0-1.26-.1-1.71-.31l.24-3.97c.29.08.77.12,1.47.12,1.51,0,2.68-.44,3.52-1.31.84-.88,1.25-2.21,1.25-4v-38.82h6.11ZM840.92,41.83c-.77-.79-1.16-1.74-1.16-2.84s.39-2.03,1.16-2.78c.77-.75,1.71-1.13,2.81-1.13s2.04.38,2.81,1.13c.77.75,1.16,1.68,1.16,2.78s-.39,2.05-1.16,2.84-1.71,1.19-2.81,1.19-2.04-.4-2.81-1.19Z"/>
    <path class="cls-1" d="M864.94,84.94c-2.45-1.08-4.4-2.68-5.87-4.8-1.47-2.12-2.2-4.69-2.2-7.7v-23.05h6.11v23.05c0,3.06,1.01,5.51,3.03,7.37s4.68,2.78,7.98,2.78c2.69,0,5.01-.61,6.97-1.83,1.96-1.22,3.42-2.75,4.4-4.59v-26.78h6.11v36.07h-6.11v-3.42l-.61-.18c-1.1,1.39-2.66,2.52-4.68,3.39s-4.37,1.31-7.06,1.31c-2.93,0-5.62-.54-8.07-1.62Z"/>
    <path class="cls-1" d="M910.19,84.94c-2.45-1.08-4.4-2.68-5.87-4.8-1.47-2.12-2.2-4.69-2.2-7.7v-23.05h6.11v23.05c0,3.06,1.01,5.51,3.03,7.37s4.68,2.78,7.98,2.78c2.69,0,5.01-.61,6.97-1.83,1.96-1.22,3.42-2.75,4.4-4.59v-26.78h6.11v36.07h-6.11v-3.42l-.61-.18c-1.1,1.39-2.66,2.52-4.68,3.39s-4.37,1.31-7.06,1.31c-2.93,0-5.62-.54-8.07-1.62Z"/>
    <path class="cls-1" d="M947.73,49.38h6.11v3.42l3.24.98-3.36.31c.94-1.67,2.51-3.06,4.71-4.16s4.87-1.65,8.01-1.65,5.79.53,8.19,1.59c2.4,1.06,4.31,2.65,5.72,4.77,1.41,2.12,2.11,4.71,2.11,7.76v23.05h-6.12v-23.05c0-3.3-1-5.79-3-7.46-2-1.67-4.58-2.51-7.76-2.51-2.65,0-5.07.62-7.25,1.87-2.18,1.24-3.68,2.7-4.49,4.37v26.78h-6.11v-36.07Z"/>
    <path class="cls-1" d="M993.83,41.83c-.77-.79-1.16-1.74-1.16-2.84s.39-2.03,1.16-2.78c.77-.75,1.71-1.13,2.81-1.13s2.04.38,2.81,1.13c.77.75,1.16,1.68,1.16,2.78s-.39,2.05-1.16,2.84c-.77.79-1.71,1.19-2.81,1.19s-2.04-.4-2.81-1.19ZM993.46,49.38h6.12v36.07h-6.12v-36.07Z"/>
    <path class="cls-1" d="M1034.82,54.3c-2.1-1.24-4.6-1.87-7.49-1.87s-5.27.53-7,1.59c-1.73,1.06-2.6,2.45-2.6,4.16,0,1.31.53,2.41,1.59,3.3,1.06.9,2.85,1.55,5.38,1.96l7.15,1.1c4.57.69,8.01,1.93,10.33,3.7,2.32,1.77,3.48,4.19,3.48,7.25,0,2.49-.82,4.55-2.45,6.21-1.63,1.65-3.74,2.87-6.33,3.67-2.59.79-5.39,1.19-8.41,1.19-4.85,0-9.08-.99-12.69-2.97s-5.68-5.04-6.21-9.2h6.42c.41,2.57,1.7,4.54,3.88,5.93s5.04,2.08,8.59,2.08,6.23-.63,8.16-1.9c1.94-1.26,2.9-2.89,2.9-4.89,0-1.87-.72-3.27-2.17-4.19-1.45-.92-3.62-1.6-6.51-2.05l-7.09-1.04c-3.67-.53-6.61-1.59-8.83-3.18s-3.33-3.71-3.33-6.36c0-2.08.71-3.91,2.14-5.5,1.43-1.59,3.34-2.82,5.75-3.7,2.4-.88,5.03-1.31,7.89-1.31s5.55.45,8.1,1.34c2.55.9,4.67,2.22,6.36,3.97,1.69,1.75,2.72,3.83,3.09,6.24h-6.42c-.37-2.45-1.6-4.29-3.7-5.53Z"/>
    <path class="cls-1" d="M1111.83,56.6c-1.26,1.75-2.79,3.18-4.59,4.28-1.79,1.1-4.16,2.34-7.09,3.73l-2.14,1.04-3.36,1.65c-3.02,1.47-5.36,2.87-7.03,4.22-1.67,1.35-2.92,2.89-3.73,4.65-.82,1.75-1.22,3.95-1.22,6.6l-1.35-2.14,31.61-.06v4.89h-37.11v-2.69c0-4.69,1.47-8.61,4.4-11.77,2.93-3.16,6.91-6,11.92-8.53l3.55-1.77c.65-.33,1.28-.63,1.9-.92,2.12-1.06,3.79-1.97,5.01-2.72,1.22-.75,2.22-1.68,3-2.78.77-1.1,1.16-2.45,1.16-4.04,0-2.81-1.08-5-3.24-6.57-2.16-1.57-4.93-2.35-8.32-2.35s-6.39.89-8.53,2.66c-2.14,1.77-3.37,4.13-3.7,7.06h-6.97c.41-2.81,1.39-5.3,2.93-7.46,1.55-2.16,3.68-3.85,6.39-5.08,2.71-1.22,5.94-1.83,9.69-1.83s6.8.57,9.63,1.71c2.83,1.14,5.05,2.74,6.66,4.8,1.61,2.06,2.42,4.45,2.42,7.18,0,2.41-.63,4.48-1.9,6.24Z"/>
    <path class="cls-1" d="M1132.99,83.22c-3.26-2.22-5.78-5.23-7.55-9.02s-2.66-7.97-2.66-12.53.89-8.74,2.66-12.53,4.29-6.8,7.55-9.02c3.26-2.22,7.05-3.33,11.37-3.33s8.09,1.11,11.31,3.33c3.22,2.22,5.7,5.22,7.43,8.99,1.73,3.77,2.6,7.96,2.6,12.56s-.87,8.79-2.6,12.56c-1.73,3.77-4.21,6.77-7.43,8.99-3.22,2.22-6.99,3.33-11.31,3.33s-8.11-1.11-11.37-3.33ZM1152.18,79.13c2.16-1.77,3.79-4.18,4.89-7.21,1.1-3.04,1.65-6.45,1.65-10.24s-.55-7.2-1.65-10.24c-1.1-3.04-2.73-5.44-4.89-7.21-2.16-1.77-4.77-2.66-7.83-2.66s-5.75.89-7.95,2.66-3.86,4.18-4.98,7.21c-1.12,3.04-1.68,6.45-1.68,10.24s.57,7.21,1.71,10.24c1.14,3.04,2.81,5.44,5.01,7.21s4.83,2.66,7.89,2.66,5.66-.89,7.83-2.66Z"/>
    <path class="cls-1" d="M1211.12,56.6c-1.26,1.75-2.79,3.18-4.59,4.28s-4.16,2.34-7.09,3.73l-2.14,1.04-3.36,1.65c-3.02,1.47-5.36,2.87-7.03,4.22-1.67,1.35-2.92,2.89-3.73,4.65-.82,1.75-1.22,3.95-1.22,6.6l-1.35-2.14,31.61-.06v4.89h-37.11v-2.69c0-4.69,1.47-8.61,4.4-11.77,2.93-3.16,6.91-6,11.92-8.53l3.55-1.77c.65-.33,1.28-.63,1.9-.92,2.12-1.06,3.79-1.97,5.01-2.72,1.22-.75,2.22-1.68,3-2.78.77-1.1,1.16-2.45,1.16-4.04,0-2.81-1.08-5-3.24-6.57-2.16-1.57-4.93-2.35-8.32-2.35s-6.39.89-8.53,2.66c-2.14,1.77-3.37,4.13-3.7,7.06h-6.97c.41-2.81,1.39-5.3,2.93-7.46,1.55-2.16,3.68-3.85,6.39-5.08,2.71-1.22,5.94-1.83,9.69-1.83s6.8.57,9.63,1.71c2.83,1.14,5.05,2.74,6.66,4.8,1.61,2.06,2.41,4.45,2.41,7.18,0,2.41-.63,4.48-1.89,6.24Z"/>
    <path class="cls-1" d="M1257.1,37.77v4.89h-26.35v13.15h3.42l-3.49.92c.9-1.96,2.51-3.57,4.83-4.83,2.32-1.26,5.01-1.9,8.07-1.9,3.34,0,6.4.79,9.17,2.35,2.77,1.57,4.97,3.73,6.6,6.48,1.63,2.75,2.45,5.8,2.45,9.14s-.87,6.5-2.6,9.35c-1.73,2.85-4.13,5.11-7.18,6.76-3.06,1.65-6.48,2.48-10.27,2.48-3.51,0-6.67-.6-9.51-1.8-2.83-1.2-5.12-2.9-6.88-5.11-1.75-2.2-2.83-4.79-3.24-7.76h6.97c.86,3.55,2.44,6.1,4.74,7.67,2.3,1.57,4.94,2.35,7.92,2.35,2.57,0,4.85-.6,6.85-1.8,2-1.2,3.56-2.86,4.68-4.98,1.12-2.12,1.68-4.5,1.68-7.15s-.53-4.87-1.59-6.91c-1.06-2.04-2.54-3.62-4.43-4.74-1.9-1.12-4.03-1.68-6.39-1.68-2.16,0-4.08.48-5.75,1.44-1.67.96-3,2.2-3.97,3.73-.98,1.53-1.59,3.17-1.83,4.92h-6.36v-26.96h32.47Z"/>
  </g>
  <g>
    <path class="cls-1" d="M436.53,158.82h-6.36v-40.6l1.22.18-22.01,40.42h-6.11l-22.2-40.42,1.22-.18v40.6h-6.36v-47.69h7.83l24.03,43.53-2.38.24,23.97-43.78h7.15v47.69Z"/>
    <path class="cls-1" d="M456.4,157.36c-2.93-1.71-5.23-4.02-6.88-6.94-1.65-2.91-2.48-6.12-2.48-9.63s.83-6.71,2.48-9.63c1.65-2.91,3.94-5.23,6.88-6.94s6.26-2.57,9.97-2.57,7.03.86,9.97,2.57c2.93,1.71,5.23,4.03,6.88,6.94,1.65,2.92,2.48,6.12,2.48,9.63s-.82,6.72-2.48,9.63c-1.65,2.92-3.94,5.23-6.88,6.94-2.94,1.71-6.26,2.57-9.97,2.57s-7.03-.86-9.97-2.57ZM473.31,153.75c1.94-1.34,3.4-3.15,4.4-5.41,1-2.26,1.5-4.78,1.5-7.55s-.5-5.29-1.5-7.55c-1-2.26-2.47-4.07-4.4-5.41-1.94-1.34-4.25-2.02-6.94-2.02s-5,.67-6.94,2.02c-1.94,1.35-3.4,3.15-4.4,5.41-1,2.26-1.5,4.78-1.5,7.55s.5,5.29,1.5,7.55c1,2.26,2.47,4.07,4.4,5.41,1.94,1.35,4.25,2.02,6.94,2.02s5-.67,6.94-2.02Z"/>
    <path class="cls-1" d="M494.98,122.75h6.11v4.58l1.28.86-2.63,2.45c.94-2.85,2.69-4.98,5.26-6.39,2.57-1.41,5.44-2.11,8.62-2.11,1.06,0,2.12.08,3.18.24,1.06.16,2.08.41,3.06.73l.12.06v4.65c-1.71-.61-3.75-.92-6.11-.92-2.98,0-5.66.58-8.04,1.74-2.38,1.16-3.96,2.97-4.74,5.41v24.76h-6.11v-36.07Z"/>
    <path class="cls-1" d="M534.42,157.36c-2.94-1.71-5.22-4.02-6.85-6.94-1.63-2.91-2.45-6.12-2.45-9.63s.81-6.71,2.45-9.63c1.63-2.91,3.9-5.23,6.82-6.94s6.23-2.57,9.94-2.57,7.02.86,9.94,2.57,5.19,4.03,6.82,6.94c1.63,2.92,2.45,6.11,2.45,9.57v.12h-6.36v-.12c0-2.73-.49-5.23-1.47-7.49-.98-2.26-2.44-4.07-4.37-5.41-1.94-1.34-4.27-2.02-7-2.02s-5.06.67-7,2.02c-1.94,1.35-3.39,3.16-4.37,5.44-.98,2.28-1.47,4.79-1.47,7.52s.49,5.24,1.47,7.52c.98,2.28,2.45,4.1,4.4,5.44,1.96,1.35,4.32,2.02,7.09,2.02,3.42,0,6.4-.93,8.93-2.78,2.53-1.85,4.28-4.31,5.26-7.37h4.4c-.65,2.94-1.92,5.48-3.79,7.64-1.88,2.16-4.12,3.81-6.73,4.95-2.61,1.14-5.3,1.71-8.07,1.71-3.75,0-7.09-.86-10.03-2.57ZM529.96,136.69h30.26v4.16h-30.26v-4.16Z"/>
    <path class="cls-1" d="M594.95,115.2c-.77-.79-1.16-1.74-1.16-2.84s.39-2.03,1.16-2.78c.77-.75,1.71-1.13,2.81-1.13s2.04.38,2.81,1.13c.77.75,1.16,1.68,1.16,2.78s-.39,2.05-1.16,2.84c-.77.79-1.71,1.19-2.81,1.19s-2.04-.4-2.81-1.19ZM594.58,122.75h6.12v36.07h-6.12v-36.07Z"/>
    <path class="cls-1" d="M612.07,122.75h6.11v3.42l3.24.98-3.36.31c.94-1.67,2.51-3.06,4.71-4.16s4.87-1.65,8.01-1.65,5.79.53,8.19,1.59c2.4,1.06,4.31,2.65,5.72,4.77,1.41,2.12,2.11,4.71,2.11,7.76v23.05h-6.11v-23.05c0-3.3-1-5.79-3-7.46-2-1.67-4.59-2.51-7.77-2.51-2.65,0-5.06.62-7.25,1.87s-3.68,2.7-4.49,4.37v26.78h-6.11v-36.07Z"/>
    <path class="cls-1" d="M677.18,122.75v4.16h-21.83v-4.16h21.83ZM664.53,113.31c2.16-2.18,5.46-3.27,9.9-3.27,1.39,0,2.49.08,3.3.24v4.4c-.82-.16-1.81-.24-3-.24-1.71,0-3.07.25-4.07.76-1,.51-1.75,1.5-2.26,2.97-.51,1.47-.76,3.59-.76,6.36v34.3h-6.36v-34.3c0-5.3,1.08-9.04,3.24-11.22Z"/>
    <path class="cls-1" d="M692.41,157.36c-2.94-1.71-5.23-4.02-6.88-6.94-1.65-2.91-2.48-6.12-2.48-9.63s.83-6.71,2.48-9.63c1.65-2.91,3.94-5.23,6.88-6.94,2.93-1.71,6.26-2.57,9.96-2.57s7.03.86,9.97,2.57c2.94,1.71,5.23,4.03,6.88,6.94,1.65,2.92,2.48,6.12,2.48,9.63s-.83,6.72-2.48,9.63c-1.65,2.92-3.94,5.23-6.88,6.94-2.93,1.71-6.26,2.57-9.97,2.57s-7.03-.86-9.96-2.57ZM709.31,153.75c1.94-1.34,3.4-3.15,4.4-5.41,1-2.26,1.5-4.78,1.5-7.55s-.5-5.29-1.5-7.55c-1-2.26-2.47-4.07-4.4-5.41-1.94-1.34-4.25-2.02-6.94-2.02s-5,.67-6.94,2.02c-1.94,1.35-3.4,3.15-4.4,5.41-1,2.26-1.5,4.78-1.5,7.55s.5,5.29,1.5,7.55c1,2.26,2.47,4.07,4.4,5.41,1.94,1.35,4.25,2.02,6.94,2.02s5-.67,6.94-2.02Z"/>
    <path class="cls-1" d="M753.12,115.2c-.77-.79-1.16-1.74-1.16-2.84s.39-2.03,1.16-2.78c.77-.75,1.71-1.13,2.81-1.13s2.04.38,2.81,1.13c.77.75,1.16,1.68,1.16,2.78s-.39,2.05-1.16,2.84-1.71,1.19-2.81,1.19-2.04-.4-2.81-1.19ZM752.75,122.75h6.11v36.07h-6.11v-36.07Z"/>
    <path class="cls-1" d="M770.24,122.75h6.11v3.42l3.24.98-3.36.31c.94-1.67,2.51-3.06,4.71-4.16s4.87-1.65,8.01-1.65,5.79.53,8.19,1.59c2.4,1.06,4.31,2.65,5.72,4.77,1.41,2.12,2.11,4.71,2.11,7.76v23.05h-6.12v-23.05c0-3.3-1-5.79-3-7.46-2-1.67-4.58-2.51-7.76-2.51-2.65,0-5.07.62-7.25,1.87-2.18,1.24-3.68,2.7-4.49,4.37v26.78h-6.11v-36.07Z"/>
    <path class="cls-1" d="M837.1,157.05c-2.83-1.92-4.25-4.67-4.25-8.25h6.73c0,1.92.73,3.56,2.2,4.92,1.47,1.37,3.5,2.05,6.11,2.05,2.81,0,4.9-.88,6.27-2.63,1.37-1.75,2.05-4.34,2.05-7.76v-34.24h6.73v34.24c0,4.93-1.29,8.59-3.88,10.97-2.59,2.38-6.31,3.58-11.16,3.58-4.36,0-7.96-.96-10.79-2.87Z"/>
    <path class="cls-1" d="M882.25,158.31c-2.45-1.08-4.4-2.68-5.87-4.8-1.47-2.12-2.2-4.69-2.2-7.7v-23.05h6.11v23.05c0,3.06,1.01,5.51,3.03,7.37s4.68,2.78,7.98,2.78c2.69,0,5.01-.61,6.97-1.83,1.96-1.22,3.42-2.75,4.4-4.59v-26.78h6.11v36.07h-6.11v-3.42l-.61-.18c-1.1,1.39-2.66,2.52-4.68,3.39s-4.37,1.31-7.06,1.31c-2.93,0-5.62-.54-8.07-1.62Z"/>
    <path class="cls-1" d="M919.79,122.75h6.11v3.42l3.24.98-3.36.31c.94-1.67,2.51-3.06,4.71-4.16s4.87-1.65,8.01-1.65,5.79.53,8.19,1.59c2.4,1.06,4.31,2.65,5.72,4.77,1.41,2.12,2.11,4.71,2.11,7.76v23.05h-6.12v-23.05c0-3.3-1-5.79-3-7.46-2-1.67-4.58-2.51-7.76-2.51-2.65,0-5.07.62-7.25,1.87-2.18,1.24-3.68,2.7-4.49,4.37v26.78h-6.11v-36.07Z"/>
    <path class="cls-1" d="M972.74,157.36c-2.94-1.71-5.22-4.02-6.85-6.94-1.63-2.91-2.45-6.12-2.45-9.63s.81-6.71,2.45-9.63c1.63-2.91,3.9-5.23,6.82-6.94s6.23-2.57,9.94-2.57,7.02.86,9.94,2.57,5.19,4.03,6.82,6.94c1.63,2.92,2.45,6.11,2.45,9.57v.12h-6.36v-.12c0-2.73-.49-5.23-1.47-7.49-.98-2.26-2.44-4.07-4.37-5.41-1.94-1.34-4.27-2.02-7-2.02s-5.06.67-7,2.02c-1.94,1.35-3.39,3.16-4.37,5.44-.98,2.28-1.47,4.79-1.47,7.52s.49,5.24,1.47,7.52c.98,2.28,2.45,4.1,4.4,5.44,1.96,1.35,4.32,2.02,7.09,2.02,3.42,0,6.4-.93,8.93-2.78,2.53-1.85,4.28-4.31,5.26-7.37h4.4c-.65,2.94-1.92,5.48-3.79,7.64-1.88,2.16-4.12,3.81-6.73,4.95-2.61,1.14-5.3,1.71-8.07,1.71-3.75,0-7.09-.86-10.03-2.57ZM968.27,136.69h30.26v4.16h-30.26v-4.16Z"/>
    <path class="cls-1" d="M1067.93,129.97c-1.26,1.75-2.79,3.18-4.59,4.28-1.79,1.1-4.16,2.34-7.09,3.73l-2.14,1.04-3.36,1.65c-3.02,1.47-5.36,2.87-7.03,4.22-1.67,1.35-2.92,2.89-3.73,4.65-.82,1.75-1.22,3.95-1.22,6.6l-1.35-2.14,31.61-.06v4.89h-37.11v-2.69c0-4.69,1.47-8.61,4.4-11.77,2.93-3.16,6.91-6,11.92-8.53l3.55-1.77c.65-.33,1.28-.63,1.9-.92,2.12-1.06,3.79-1.97,5.01-2.72,1.22-.75,2.22-1.68,3-2.78.77-1.1,1.16-2.45,1.16-4.04,0-2.81-1.08-5-3.24-6.57-2.16-1.57-4.93-2.35-8.32-2.35s-6.39.89-8.53,2.66c-2.14,1.77-3.37,4.13-3.7,7.06h-6.97c.41-2.81,1.39-5.3,2.93-7.46,1.55-2.16,3.68-3.85,6.39-5.08,2.71-1.22,5.94-1.83,9.69-1.83s6.8.57,9.63,1.71c2.83,1.14,5.05,2.74,6.66,4.8,1.61,2.06,2.42,4.45,2.42,7.18,0,2.41-.63,4.48-1.9,6.24Z"/>
    <path class="cls-1" d="M1089.09,156.59c-3.26-2.22-5.78-5.23-7.55-9.02-1.77-3.79-2.66-7.97-2.66-12.53s.89-8.74,2.66-12.53c1.77-3.79,4.29-6.8,7.55-9.02,3.26-2.22,7.05-3.33,11.37-3.33s8.09,1.11,11.31,3.33c3.22,2.22,5.7,5.22,7.43,8.99,1.73,3.77,2.6,7.96,2.6,12.56s-.87,8.79-2.6,12.56c-1.73,3.77-4.21,6.77-7.43,8.99-3.22,2.22-6.99,3.33-11.31,3.33s-8.11-1.11-11.37-3.33ZM1108.29,152.5c2.16-1.77,3.79-4.18,4.89-7.21,1.1-3.04,1.65-6.45,1.65-10.24s-.55-7.2-1.65-10.24c-1.1-3.04-2.73-5.44-4.89-7.21-2.16-1.77-4.77-2.66-7.83-2.66s-5.75.89-7.95,2.66-3.86,4.18-4.98,7.21c-1.12,3.04-1.68,6.45-1.68,10.24s.57,7.21,1.71,10.24c1.14,3.04,2.81,5.44,5.01,7.21s4.83,2.66,7.89,2.66,5.67-.89,7.83-2.66Z"/>
    <path class="cls-1" d="M1167.23,129.97c-1.26,1.75-2.79,3.18-4.59,4.28-1.79,1.1-4.16,2.34-7.09,3.73l-2.14,1.04-3.36,1.65c-3.02,1.47-5.36,2.87-7.03,4.22-1.67,1.35-2.91,2.89-3.73,4.65-.82,1.75-1.22,3.95-1.22,6.6l-1.34-2.14,31.61-.06v4.89h-37.11v-2.69c0-4.69,1.47-8.61,4.4-11.77,2.94-3.16,6.91-6,11.92-8.53l3.54-1.77c.65-.33,1.29-.63,1.9-.92,2.12-1.06,3.79-1.97,5.01-2.72,1.22-.75,2.22-1.68,3-2.78.77-1.1,1.16-2.45,1.16-4.04,0-2.81-1.08-5-3.24-6.57s-4.93-2.35-8.31-2.35-6.39.89-8.53,2.66c-2.14,1.77-3.37,4.13-3.7,7.06h-6.97c.41-2.81,1.39-5.3,2.94-7.46,1.55-2.16,3.68-3.85,6.39-5.08s5.94-1.83,9.69-1.83,6.8.57,9.63,1.71c2.83,1.14,5.05,2.74,6.67,4.8,1.61,2.06,2.41,4.45,2.41,7.18,0,2.41-.63,4.48-1.89,6.24Z"/>
    <path class="cls-1" d="M1213.2,111.13v4.89h-26.35v13.15h3.42l-3.48.92c.9-1.96,2.51-3.57,4.83-4.83,2.32-1.26,5.01-1.9,8.07-1.9,3.34,0,6.4.79,9.17,2.35,2.77,1.57,4.97,3.73,6.6,6.48,1.63,2.75,2.45,5.8,2.45,9.14s-.87,6.5-2.6,9.35c-1.73,2.85-4.13,5.11-7.18,6.76-3.06,1.65-6.48,2.48-10.27,2.48-3.51,0-6.68-.6-9.51-1.8-2.83-1.2-5.13-2.9-6.88-5.11s-2.83-4.79-3.24-7.76h6.97c.86,3.55,2.43,6.1,4.74,7.67,2.3,1.57,4.94,2.35,7.92,2.35,2.57,0,4.85-.6,6.85-1.8,2-1.2,3.56-2.86,4.68-4.98,1.12-2.12,1.68-4.5,1.68-7.15s-.53-4.87-1.59-6.91c-1.06-2.04-2.54-3.62-4.43-4.74-1.89-1.12-4.03-1.68-6.39-1.68-2.16,0-4.08.48-5.75,1.44-1.67.96-3,2.2-3.97,3.73-.98,1.53-1.59,3.17-1.83,4.92h-6.36v-26.96h32.47Z"/>
  </g>
</svg>