<?xml version="1.0" encoding="UTF-8"?>
<svg id="Layer_1" data-name="Layer 1" xmlns="http://www.w3.org/2000/svg" viewBox="0 0 2159 153">
  <defs>
    <style>
      .cls-1 {
        fill: #fff;
      }
    </style>
  </defs>
  <g>
    <path d="M221.53,144.92c-17.66,0-32.46-2.17-45.24-6.63h0c-14.47-5.05-25.81-12.82-33.71-23.09-8.29-10.78-12.5-23.56-12.5-37.98s4.21-27.2,12.5-37.98c7.9-10.27,19.24-18.04,33.71-23.09,12.78-4.46,27.58-6.63,45.25-6.63s32.46,2.17,45.21,6.64c14.45,5.06,25.76,12.84,33.62,23.14,8.23,10.78,12.4,23.57,12.4,38.03s-4.18,27.28-12.43,38.02c-7.88,10.26-19.2,18-33.66,23.01-12.73,4.41-27.5,6.56-45.14,6.56ZM210.02,82.69h0ZM232.94,71.83h0Z"/>
    <path d="M355.51,144.92c-12.7,0-24.59-.58-35.34-1.73-11.55-1.23-21.03-3.01-28.98-5.45-7.22-2.22-12.91-7.82-15.23-15.01-2.23-6.88-1.1-14.39,3-20.31-3.84-5.25-5.4-12.04-3.89-18.73,1.68-7.48,3.25-16.43,4.66-26.58,1.36-9.84,2.08-17.6,2.15-23.05.07-6.25,2.67-12.2,7.19-16.51,4.53-4.3,10.6-6.6,16.85-6.36,11.01.43,28.06.64,50.69.64h14.96c16.9-.07,29.46-.28,37.23-.64,11.77-.54,22.07,7.87,23.91,19.52l4.18,26.51c.58,3.65.26,7.33-.85,10.74,3.57,6.54,5.42,13.99,5.42,22.01,0,11.31-3.75,21.95-10.85,30.75-6.86,8.51-17,14.71-31,18.95-11.62,3.52-26.05,5.23-44.11,5.23Z"/>
    <path d="M468.26,142.72h-39.27c-6.49,0-12.69-2.73-17.07-7.51s-6.56-11.2-5.98-17.66c.76-8.58.76-17.27,0-25.85-.57-6.47,1.6-12.88,5.99-17.66,4.38-4.79,10.58-7.51,17.07-7.51h39.27c6.49,0,12.69,2.73,17.07,7.51,4.38,4.79,6.56,11.2,5.99,17.66-.76,8.58-.76,17.28,0,25.85.57,6.47-1.6,12.88-5.99,17.66s-10.58,7.51-17.07,7.51Z"/>
    <path d="M544.6,144.92c-17.66,0-32.46-2.17-45.24-6.63h0c-14.47-5.05-25.81-12.82-33.71-23.09-8.29-10.78-12.5-23.56-12.5-37.98s4.21-27.2,12.5-37.98c7.9-10.27,19.24-18.04,33.71-23.09,12.78-4.46,27.58-6.63,45.25-6.63s32.46,2.17,45.21,6.64c14.45,5.06,25.76,12.84,33.62,23.14,8.23,10.78,12.4,23.57,12.4,38.03s-4.18,27.28-12.43,38.02c-7.88,10.26-19.2,18-33.66,23.01-12.73,4.41-27.5,6.56-45.14,6.56ZM533.09,82.69h0ZM556.01,71.83h0Z"/>
    <path d="M678.02,144.92c-11.45,0-22.69-.67-33.41-1.99-11.28-1.39-20.09-3.08-26.95-5.19-7.21-2.21-12.9-7.81-15.23-14.98-2.33-7.18-1.01-15.04,3.53-21.07l4.11-5.46c-.61-.61-1.2-1.22-1.77-1.86-7.53-8.34-11.51-18.92-11.51-30.57,0-12.28,4.43-23.46,12.8-32.33,7.39-7.82,17.77-13.46,31.75-17.24,11.73-3.17,25.99-4.71,43.6-4.71,12,0,22.16.71,31.05,2.18,0,0,0,0,0,0,9.9,1.64,18.13,4.11,25.15,7.57,7.96,3.92,14.52,9.08,19.51,15.33,4.7,5.86,8.1,12.61,10.1,20.05,1.7,6.31,2.55,13.05,2.55,20.04,0,2-.08,4.02-.24,6.01-.13,1.6-.28,3.21-.45,4.79-.03.24-.06.47-.09.71-1.95,13.73-7.52,25.39-16.57,34.68-8.44,8.66-19.87,15.04-33.98,18.96-12.31,3.42-26.69,5.08-43.98,5.08Z"/>
    <path d="M797.7,142.72h-39.27c-6.49,0-12.69-2.73-17.07-7.51s-6.56-11.2-5.98-17.66c.76-8.58.76-17.27,0-25.85-.57-6.47,1.6-12.88,5.99-17.66,4.38-4.79,10.58-7.51,17.07-7.51h39.27c6.49,0,12.69,2.73,17.07,7.51,4.38,4.79,6.56,11.2,5.99,17.66-.76,8.58-.76,17.28,0,25.85.57,6.47-1.6,12.88-5.99,17.66s-10.58,7.51-17.07,7.51Z"/>
    <path d="M896.7,126.55c-.73,0-1.47-.04-2.21-.11-4.21-.4-14.79-.88-41.24-.88-18.99,0-33.12.28-42.01.84-6.37.4-12.63-1.86-17.29-6.23s-7.3-10.48-7.3-16.87v-25.85c0-6.45,2.69-12.61,7.42-16.99,4.73-4.38,11.08-6.59,17.51-6.09,7.88.61,21.9.92,41.66.92,25.21,0,36.51-.5,41.55-.91,6.45-.52,12.82,1.66,17.58,6.04s7.47,10.56,7.47,17.02v25.96c0,6.52-2.75,12.74-7.58,17.13-4.28,3.89-9.84,6.02-15.56,6.02Z"/>
    <path d="M957.75,144.92c-13.27,0-25.56-.69-36.51-2.05h0c-11.58-1.44-21.26-3.43-29.6-6.09-7.25-2.31-12.9-8.04-15.11-15.32-2.21-7.28-.7-15.18,4.03-21.13l19.25-24.2s.06-.08.09-.11c-.09-.13-.17-.25-.26-.38l-15.73-23.65c-4.19-6.3-5.04-14.25-2.27-21.29s8.81-12.28,16.17-14.04c8.87-2.12,19.22-3.85,30.76-5.16,11.47-1.3,23.62-1.96,36.1-1.96,17.11,0,30.47,1.27,40.86,3.89,13.05,3.29,22.44,8.23,28.7,15.08,6.98,7.65,10.67,17.08,10.67,27.27,0,6.19-1.31,11.96-3.9,17.21.05.07.09.15.14.22,3.96,6.26,5.96,13.42,5.96,21.29,0,11.06-4.17,21.32-12.05,29.65-6.94,7.35-17.25,12.69-31.51,16.32-11.78,3-26.76,4.46-45.81,4.46Z"/>
    <path d="M1117.58,142.72h-39.38c-6.82,0-13.3-3.01-17.7-8.23-4.4-5.22-6.27-12.11-5.11-18.84.59-3.41,1.02-7.49,1.3-12.14h0c.08-1.31.15-2.76.2-4.36-4.21,2.3-8.15,4.6-11.8,6.9-6.78,4.27-15.3,4.73-22.5,1.2-7.2-3.52-12.07-10.52-12.86-18.5l-3.3-33.22c-1.15-11.53,6.41-22.12,17.67-24.8,6.72-1.6,13.93-3.84,21.45-6.68,8.03-3.02,16.54-6.51,25.3-10.36,2.94-1.29,6.11-1.96,9.32-1.96h37.18c6.68,0,13.03,2.88,17.42,7.91,4.39,5.03,6.41,11.7,5.52,18.32-.57,4.25-.99,9.2-1.25,14.72-.27,5.83-.41,14.09-.41,24.55s.16,18.7.46,24.65c.29,5.54.74,10.27,1.34,14.06,1.06,6.69-.86,13.51-5.25,18.66-4.4,5.15-10.83,8.12-17.6,8.12Z"/>
    <path d="M1170.16,142.72h-39.27c-6.49,0-12.69-2.73-17.07-7.51s-6.56-11.2-5.99-17.66c.76-8.58.76-17.27,0-25.85-.57-6.47,1.6-12.88,5.99-17.66,4.38-4.79,10.58-7.51,17.07-7.51h39.27c6.49,0,12.69,2.73,17.07,7.51,4.38,4.79,6.56,11.2,5.99,17.66-.76,8.58-.76,17.28,0,25.85.57,6.47-1.6,12.88-5.99,17.66s-10.58,7.51-17.07,7.51Z"/>
    <path d="M1262.23,142.72h-39.38c-6.82,0-13.3-3.01-17.7-8.23-4.4-5.22-6.27-12.11-5.11-18.84.59-3.41,1.02-7.49,1.3-12.14h0c.08-1.31.15-2.76.2-4.36-4.21,2.3-8.15,4.6-11.8,6.9-6.78,4.27-15.3,4.73-22.5,1.2-7.2-3.52-12.07-10.52-12.86-18.5l-3.3-33.22c-1.15-11.53,6.41-22.12,17.67-24.8,6.72-1.6,13.93-3.84,21.45-6.68,8.03-3.02,16.54-6.51,25.3-10.36,2.94-1.29,6.11-1.96,9.32-1.96h37.18c6.68,0,13.03,2.88,17.42,7.91,4.39,5.03,6.41,11.7,5.52,18.32-.57,4.25-.99,9.2-1.25,14.72-.27,5.83-.41,14.09-.41,24.55s.16,18.7.46,24.65c.29,5.54.74,10.27,1.34,14.06,1.06,6.69-.86,13.51-5.25,18.66-4.4,5.15-10.83,8.12-17.6,8.12Z"/>
    <path d="M1340.44,144.92c-17.66,0-32.46-2.17-45.24-6.63h0c-14.47-5.05-25.82-12.82-33.72-23.09-8.29-10.78-12.5-23.56-12.5-37.98s4.21-27.2,12.5-37.98c7.9-10.27,19.24-18.04,33.71-23.09,12.78-4.46,27.58-6.63,45.25-6.63s32.46,2.17,45.21,6.64c14.45,5.06,25.76,12.84,33.62,23.14,8.23,10.78,12.4,23.57,12.4,38.03s-4.18,27.28-12.43,38.02c-7.88,10.26-19.2,18-33.66,23.01-12.73,4.41-27.5,6.56-45.14,6.56ZM1328.93,82.69h0,0Z"/>
    <path d="M1455.83,142.72h-39.27c-6.49,0-12.69-2.73-17.07-7.51s-6.56-11.2-5.99-17.66c.76-8.58.76-17.27,0-25.85-.57-6.47,1.6-12.88,5.99-17.66,4.38-4.79,10.58-7.51,17.07-7.51h39.27c6.49,0,12.69,2.73,17.07,7.51,4.38,4.79,6.56,11.2,5.99,17.66-.76,8.58-.76,17.28,0,25.85.57,6.47-1.6,12.88-5.99,17.66s-10.58,7.51-17.07,7.51Z"/>
    <path d="M1590.81,143.16c-.25,0-.5,0-.75-.01-4.38-.14-11.56-.27-21.35-.38-9.78-.11-20-.16-30.38-.16h-10.89c-9.67,0-20.42.06-31.96.16-11.82.11-20.85.24-27.61.38-6.42.16-12.58-2.39-17.06-6.97-4.48-4.59-6.85-10.82-6.56-17.22.69-15.07,4.36-28.2,10.91-39.03,0,0,0,0,0,0,.09-.14.17-.28.26-.42-3.68-2.19-6.73-5.4-8.74-9.3-3.25-6.32-3.41-13.78-.45-20.24,4.1-8.92,10.38-16.62,18.69-22.89,7.79-5.88,17.5-10.26,29.68-13.36,11.03-2.81,23.9-4.18,39.32-4.18,17.91,0,31.98,1.67,43.03,5.12,13.56,4.24,23.15,10.29,29.35,18.5,6.15,8.16,9.4,17.84,9.4,28.02,0,6.13-1,11.38-2.52,15.82,3.98,4.99,5.76,11.45,4.8,17.87l-4.29,28.6c-1.7,11.36-11.47,19.71-22.88,19.71Z"/>
    <path d="M1671.1,144.92c-17.66,0-32.46-2.17-45.24-6.63h0c-14.47-5.05-25.82-12.82-33.72-23.09-8.29-10.78-12.5-23.56-12.5-37.98s4.21-27.2,12.5-37.98c7.9-10.27,19.24-18.04,33.71-23.09,12.78-4.46,27.58-6.63,45.25-6.63s32.46,2.17,45.21,6.64c14.45,5.06,25.76,12.84,33.62,23.14,8.23,10.78,12.4,23.57,12.4,38.03s-4.18,27.28-12.43,38.02c-7.88,10.26-19.2,18-33.66,23.01-12.73,4.41-27.5,6.56-45.14,6.56ZM1659.59,82.69h0,0Z"/>
    <path d="M1868.78,143.16c-.25,0-.5,0-.75-.01-4.38-.14-11.56-.27-21.35-.38-9.78-.11-20-.16-30.38-.16h-10.89c-9.67,0-20.42.06-31.96.16-11.82.11-20.85.24-27.61.38-6.42.16-12.58-2.39-17.06-6.97-4.48-4.59-6.85-10.82-6.56-17.22.69-15.07,4.36-28.2,10.91-39.03,0,0,0,0,0,0,.09-.14.17-.28.26-.42-3.68-2.19-6.73-5.4-8.74-9.3-3.25-6.32-3.41-13.78-.45-20.24,4.1-8.92,10.38-16.62,18.69-22.89,7.79-5.88,17.5-10.26,29.68-13.36,11.03-2.81,23.9-4.18,39.32-4.18,17.91,0,31.98,1.67,43.03,5.12,13.56,4.24,23.15,10.29,29.35,18.5,6.15,8.16,9.4,17.84,9.4,28.02,0,6.13-1,11.38-2.52,15.82,3.98,4.99,5.76,11.45,4.8,17.87l-4.29,28.6c-1.7,11.36-11.47,19.71-22.88,19.71Z"/>
    <path d="M1939.71,144.92c-12.7,0-24.59-.58-35.34-1.73-11.55-1.23-21.03-3.01-28.98-5.45-7.22-2.22-12.91-7.82-15.23-15.01-2.23-6.88-1.1-14.39,3-20.31-3.84-5.25-5.4-12.04-3.89-18.74,1.68-7.48,3.25-16.42,4.66-26.58,1.36-9.84,2.08-17.6,2.15-23.05.07-6.25,2.67-12.2,7.19-16.51,4.53-4.31,10.61-6.61,16.85-6.36,11.01.43,28.06.64,50.69.64h14.96c16.9-.07,29.45-.28,37.23-.64,11.76-.54,22.07,7.87,23.91,19.52l4.18,26.51c.58,3.65.26,7.33-.85,10.74,3.57,6.54,5.42,13.99,5.42,22.01,0,11.31-3.75,21.95-10.85,30.75-6.86,8.51-17,14.71-31,18.95-11.62,3.52-26.05,5.23-44.11,5.23Z"/>
  </g>
  <g>
    <path d="M183.91,116.44c-10.19-3.56-17.86-8.67-22.99-15.34-5.13-6.67-7.7-14.63-7.7-23.87s2.57-17.2,7.7-23.87c5.13-6.67,12.8-11.79,22.99-15.34,10.19-3.56,22.73-5.33,37.62-5.33s27.41,1.78,37.56,5.33c10.16,3.56,17.78,8.67,22.88,15.34,5.1,6.67,7.65,14.67,7.65,23.98s-2.55,17.29-7.65,23.93c-5.1,6.64-12.72,11.71-22.88,15.23-10.16,3.52-22.68,5.28-37.56,5.28s-27.43-1.78-37.62-5.34ZM238.63,94.38c4.73-1.47,8.32-3.63,10.78-6.49,2.46-2.86,3.69-6.38,3.69-10.56s-1.23-7.72-3.69-10.61c-2.46-2.9-6.05-5.1-10.78-6.6-4.73-1.5-10.43-2.25-17.1-2.25s-12.48.75-17.21,2.25c-4.73,1.5-8.34,3.69-10.83,6.54-2.49,2.86-3.74,6.38-3.74,10.56s1.25,7.7,3.74,10.56c2.49,2.86,6.1,5.04,10.83,6.54,4.73,1.5,10.47,2.25,17.21,2.25s12.38-.73,17.1-2.2Z"/>
    <path d="M322.62,120.18c-9.97-1.06-18.19-2.58-24.64-4.56l19.14-25.3c5.5,2.42,11.4,4.22,17.71,5.39,6.31,1.17,13.57,1.76,21.78,1.76,6.16,0,11.07-.24,14.74-.71,3.67-.48,6.33-1.19,7.98-2.15,1.65-.95,2.48-2.2,2.48-3.74,0-1.39-.86-2.51-2.58-3.36-1.72-.84-4.51-1.47-8.36-1.87-3.85-.4-9.11-.6-15.79-.6s-13.13.2-19.58.6c-6.45.4-12.58,1.04-18.37,1.92-5.79.88-10.74,2.02-14.85,3.41l-4.62-2.2c1.83-8.14,3.5-17.64,5-28.49,1.5-10.85,2.29-19.51,2.37-25.96,11.37.44,28.56.66,51.59.66h14.96c17.38-.07,30.14-.29,38.28-.66l4.18,26.51c-6.6-1.46-14.65-2.51-24.15-3.13-9.5-.62-20.48-.93-32.94-.93h-10.12c-11.59.15-18.22.29-19.91.44l7.15-2.97c-.88,3.08-1.5,6.12-1.87,9.13-.15.95-.26,1.87-.33,2.75-.07.88-.15,1.72-.22,2.53l-7.7-.99c5.13-1.47,11.17-2.6,18.09-3.41,6.93-.81,13.88-1.21,20.85-1.21,13.35,0,24.09,1.01,32.23,3.02,8.14,2.02,14.04,5,17.71,8.97,3.67,3.96,5.5,8.95,5.5,14.96s-1.91,11.5-5.72,16.22c-3.81,4.73-10.38,8.51-19.69,11.33-9.31,2.82-21.78,4.24-37.4,4.24-11.95,0-22.92-.53-32.89-1.6Z"/>
    <path d="M468.26,119.57h-39.27c.88-9.97.88-19.95,0-29.92h39.27c-.88,9.97-.88,19.95,0,29.92Z"/>
    <path d="M506.98,116.44c-10.19-3.56-17.86-8.67-22.99-15.34-5.13-6.67-7.7-14.63-7.7-23.87s2.57-17.2,7.7-23.87c5.13-6.67,12.8-11.79,22.99-15.34,10.19-3.56,22.73-5.33,37.62-5.33s27.41,1.78,37.56,5.33c10.16,3.56,17.78,8.67,22.88,15.34,5.1,6.67,7.65,14.67,7.65,23.98s-2.55,17.29-7.65,23.93c-5.1,6.64-12.72,11.71-22.88,15.23-10.16,3.52-22.68,5.28-37.56,5.28s-27.43-1.78-37.62-5.34ZM561.7,94.38c4.73-1.47,8.32-3.63,10.78-6.49,2.46-2.86,3.69-6.38,3.69-10.56s-1.23-7.72-3.69-10.61c-2.46-2.9-6.05-5.1-10.78-6.6-4.73-1.5-10.43-2.25-17.1-2.25s-12.48.75-17.21,2.25c-4.73,1.5-8.34,3.69-10.83,6.54-2.49,2.86-3.74,6.38-3.74,10.56s1.25,7.7,3.74,10.56c2.49,2.86,6.1,5.04,10.83,6.54,4.73,1.5,10.47,2.25,17.21,2.25s12.38-.73,17.1-2.2Z"/>
    <path d="M712.23,34.54c7.55,1.25,13.79,3.08,18.7,5.5,4.91,2.42,8.8,5.43,11.66,9.02,2.71,3.37,4.66,7.24,5.83,11.61,1.17,4.36,1.76,9.04,1.76,14.03,0,1.39-.05,2.79-.17,4.18-.11,1.39-.24,2.75-.38,4.07-1.25,8.8-4.66,16.06-10.23,21.78-5.57,5.72-13.44,9.99-23.6,12.81-10.16,2.82-22.75,4.24-37.78,4.24-10.56,0-20.75-.61-30.58-1.82-9.83-1.21-17.49-2.66-22.99-4.34l18.15-24.09c4.55,2.2,9.7,3.92,15.45,5.17,5.76,1.25,12.89,1.87,21.4,1.87,7.92,0,14.35-.62,19.31-1.87,4.95-1.25,8.69-3.15,11.22-5.72,2.53-2.57,4.09-5.94,4.67-10.12h-2.31c-3.59,3.45-8.67,6.07-15.23,7.87-6.56,1.8-15.16,2.69-25.79,2.69-11.66,0-21.29-1.06-28.88-3.19-7.59-2.13-13.24-5.24-16.94-9.35-3.7-4.11-5.56-9.13-5.56-15.07,0-6.38,2.16-11.86,6.49-16.45,4.33-4.58,11.31-8.18,20.96-10.78,9.64-2.6,22.17-3.91,37.56-3.91,10.63,0,19.73.62,27.28,1.87ZM667.79,56.65c-4.18.59-7.11,1.45-8.8,2.59-1.69,1.14-2.53,2.51-2.53,4.12s.84,2.99,2.53,4.12c1.69,1.14,4.62,2.02,8.8,2.64,4.18.62,9.9.93,17.16.93s13.04-.31,17.33-.93c4.29-.62,7.31-1.49,9.08-2.58,1.76-1.1,2.64-2.46,2.64-4.07s-.88-3.08-2.64-4.18c-1.76-1.1-4.79-1.96-9.08-2.59-4.29-.62-10.06-.93-17.33-.93s-12.98.29-17.16.88Z"/>
    <path d="M797.7,119.57h-39.27c.88-9.97.88-19.95,0-29.92h39.27c-.88,9.97-.88,19.95,0,29.92Z"/>
    <path d="M853.25,78.43c20.97,0,35.46-.33,43.45-.99v25.96c-6.89-.66-21.38-.99-43.45-.99-19.58,0-34.06.29-43.45.88v-25.85c8.51.66,22.99.99,43.45.99Z"/>
    <path d="M924.09,119.9c-10.05-1.25-18.52-2.97-25.41-5.17l19.25-24.2c4.84,2.35,10.72,4.09,17.65,5.22,6.93,1.14,15.9,1.71,26.9,1.71,6.6,0,11.66-.22,15.18-.66,3.52-.44,5.92-1.06,7.21-1.87,1.28-.81,1.92-1.87,1.92-3.19,0-.95-.38-1.74-1.15-2.36-.77-.62-2.29-1.16-4.57-1.59-2.27-.44-5.57-.7-9.9-.77l-5.28-.11c-4.91,0-10.34.07-16.28.22-5.94.15-12.14.33-18.59.55v-21.78c5.94.22,11.84.37,17.71.44,5.87.07,11.59.11,17.16.11h5.17c5.79,0,9.73-.37,11.83-1.1,2.09-.73,3.13-1.83,3.13-3.3,0-1.25-.73-2.26-2.2-3.03-1.47-.77-3.85-1.34-7.15-1.71-3.3-.37-7.74-.55-13.31-.55-9.61,0-18.08.55-25.41,1.65-7.33,1.1-13.68,2.57-19.03,4.4l-15.73-23.65c7.99-1.91,17.33-3.46,28-4.67,10.67-1.21,21.83-1.82,33.5-1.82,15.03,0,26.77,1.06,35.2,3.19,8.43,2.13,14.19,4.88,17.27,8.25s4.62,7.26,4.62,11.66c0,3.15-.75,5.92-2.25,8.3-1.5,2.38-3.7,4.42-6.6,6.1-2.9,1.69-6.43,3.01-10.62,3.96v1.32c4.91.95,8.97,2.25,12.16,3.9,3.19,1.65,5.57,3.72,7.15,6.21,1.58,2.49,2.37,5.46,2.37,8.91,0,5.13-1.91,9.72-5.72,13.75-3.81,4.04-10.61,7.3-20.4,9.79s-23.16,3.74-40.1,3.74c-12.39,0-23.61-.62-33.66-1.87Z"/>
    <path d="M1079.8,104.89c.33-5.54.5-13.18.5-22.93v-1.98c-.07-2.71-.2-5.65-.38-8.8-.18-3.15-.42-6.23-.72-9.24l1.1.66c-2.05.81-4.16,1.67-6.33,2.58-2.16.92-4.34,1.89-6.54,2.92-13.2,6.01-24.75,12.14-34.65,18.37l-3.3-33.22c7.7-1.83,15.79-4.34,24.25-7.54,8.47-3.19,17.29-6.8,26.46-10.83h37.18c-.66,4.91-1.14,10.49-1.43,16.72-.29,6.23-.44,14.78-.44,25.63s.17,19.47.5,25.85c.33,6.38.86,11.88,1.59,16.5h-39.38c.73-4.25,1.26-9.15,1.59-14.68Z"/>
    <path d="M1170.16,119.57h-39.27c.88-9.97.88-19.95,0-29.92h39.27c-.88,9.97-.88,19.95,0,29.92Z"/>
    <path d="M1224.45,104.89c.33-5.54.5-13.18.5-22.93v-1.98c-.07-2.71-.2-5.65-.38-8.8-.18-3.15-.42-6.23-.72-9.24l1.1.66c-2.05.81-4.16,1.67-6.33,2.58-2.16.92-4.34,1.89-6.54,2.92-13.2,6.01-24.75,12.14-34.65,18.37l-3.3-33.22c7.7-1.83,15.79-4.34,24.25-7.54,8.47-3.19,17.29-6.8,26.46-10.83h37.18c-.66,4.91-1.14,10.49-1.43,16.72-.29,6.23-.44,14.78-.44,25.63s.17,19.47.5,25.85c.33,6.38.86,11.88,1.59,16.5h-39.38c.73-4.25,1.26-9.15,1.59-14.68Z"/>
    <path d="M1302.82,116.44c-10.19-3.56-17.86-8.67-22.99-15.34-5.13-6.67-7.7-14.63-7.7-23.87s2.57-17.2,7.7-23.87c5.13-6.67,12.8-11.79,22.99-15.34,10.19-3.56,22.73-5.33,37.62-5.33s27.41,1.78,37.56,5.33c10.16,3.56,17.78,8.67,22.88,15.34,5.1,6.67,7.65,14.67,7.65,23.98s-2.55,17.29-7.65,23.93c-5.1,6.64-12.72,11.71-22.88,15.23-10.16,3.52-22.68,5.28-37.56,5.28s-27.43-1.78-37.62-5.34ZM1357.54,94.38c4.73-1.47,8.32-3.63,10.78-6.49,2.46-2.86,3.68-6.38,3.68-10.56s-1.23-7.72-3.68-10.61c-2.46-2.9-6.05-5.1-10.78-6.6-4.73-1.5-10.43-2.25-17.1-2.25s-12.49.75-17.22,2.25c-4.73,1.5-8.34,3.69-10.83,6.54-2.49,2.86-3.74,6.38-3.74,10.56s1.25,7.7,3.74,10.56c2.49,2.86,6.11,5.04,10.83,6.54,4.73,1.5,10.47,2.25,17.22,2.25s12.38-.73,17.1-2.2Z"/>
    <path d="M1455.83,119.57h-39.27c.88-9.97.88-19.95,0-29.92h39.27c-.88,9.97-.88,19.95,0,29.92Z"/>
    <path d="M1474.97,91.91c4.55-7.52,11.33-13.37,20.35-17.54,9.02-4.18,20.42-6.67,34.21-7.48,1.54-.07,2.7-.15,3.46-.22.77-.07,1.89-.15,3.36-.22,6.01-.37,10.43-.73,13.25-1.1,2.82-.37,4.73-.83,5.72-1.38s1.49-1.38,1.49-2.48-.75-2.02-2.25-2.75c-1.5-.73-3.89-1.28-7.15-1.65-3.26-.37-7.57-.55-12.92-.55-7.33,0-13.09.44-17.27,1.32-4.18.88-7.15,2.07-8.91,3.57-1.76,1.5-2.9,3.32-3.41,5.45l-37.62-7.26c2.49-5.43,6.36-10.12,11.6-14.08,5.24-3.96,12.39-7.1,21.45-9.41,9.06-2.31,20.26-3.46,33.61-3.46,15.4,0,27.44,1.36,36.13,4.07,8.69,2.71,14.61,6.16,17.76,10.34,3.15,4.18,4.73,8.88,4.73,14.08,0,6.01-1.6,10.84-4.79,14.47-3.19,3.63-8.07,6.43-14.63,8.42-6.56,1.98-15.24,3.48-26.02,4.51-1.47.15-2.99.29-4.56.44-1.58.15-3.17.26-4.79.33-8.29.59-15.12,1.54-20.51,2.86-5.39,1.32-9.44,3.17-12.16,5.56-2.71,2.38-4.07,5.33-4.07,8.85l-3.85-10.67c8.29.15,19.29.22,33,.22,16.13,0,29.24-.35,39.33-1.04,10.08-.7,18.61-1.92,25.57-3.69l-4.29,28.6c-4.62-.15-11.9-.27-21.83-.38-9.94-.11-20.15-.17-30.63-.17h-10.89c-9.75,0-20.48.05-32.17.17-11.7.11-20.99.24-27.89.38.51-11.22,3.04-20.59,7.59-28.1Z"/>
    <path d="M1633.48,116.44c-10.19-3.56-17.86-8.67-22.99-15.34-5.13-6.67-7.7-14.63-7.7-23.87s2.57-17.2,7.7-23.87c5.13-6.67,12.8-11.79,22.99-15.34,10.19-3.56,22.73-5.33,37.62-5.33s27.41,1.78,37.56,5.33c10.16,3.56,17.78,8.67,22.88,15.34,5.1,6.67,7.65,14.67,7.65,23.98s-2.55,17.29-7.65,23.93c-5.1,6.64-12.72,11.71-22.88,15.23-10.16,3.52-22.68,5.28-37.56,5.28s-27.43-1.78-37.62-5.34ZM1688.2,94.38c4.73-1.47,8.32-3.63,10.78-6.49,2.46-2.86,3.68-6.38,3.68-10.56s-1.23-7.72-3.68-10.61c-2.46-2.9-6.05-5.1-10.78-6.6-4.73-1.5-10.43-2.25-17.1-2.25s-12.49.75-17.22,2.25c-4.73,1.5-8.34,3.69-10.83,6.54-2.49,2.86-3.74,6.38-3.74,10.56s1.25,7.7,3.74,10.56c2.49,2.86,6.11,5.04,10.83,6.54,4.73,1.5,10.47,2.25,17.22,2.25s12.38-.73,17.1-2.2Z"/>
    <path d="M1752.94,91.91c4.55-7.52,11.33-13.37,20.35-17.54,9.02-4.18,20.42-6.67,34.21-7.48,1.54-.07,2.7-.15,3.46-.22.77-.07,1.89-.15,3.36-.22,6.01-.37,10.43-.73,13.25-1.1,2.82-.37,4.73-.83,5.72-1.38s1.49-1.38,1.49-2.48-.75-2.02-2.25-2.75c-1.5-.73-3.89-1.28-7.15-1.65-3.26-.37-7.57-.55-12.92-.55-7.33,0-13.09.44-17.27,1.32-4.18.88-7.15,2.07-8.91,3.57-1.76,1.5-2.9,3.32-3.41,5.45l-37.62-7.26c2.49-5.43,6.36-10.12,11.6-14.08,5.24-3.96,12.39-7.1,21.45-9.41,9.06-2.31,20.26-3.46,33.61-3.46,15.4,0,27.44,1.36,36.13,4.07,8.69,2.71,14.61,6.16,17.76,10.34,3.15,4.18,4.73,8.88,4.73,14.08,0,6.01-1.6,10.84-4.79,14.47-3.19,3.63-8.07,6.43-14.63,8.42-6.56,1.98-15.24,3.48-26.02,4.51-1.47.15-2.99.29-4.56.44-1.58.15-3.17.26-4.79.33-8.29.59-15.12,1.54-20.51,2.86-5.39,1.32-9.44,3.17-12.16,5.56-2.71,2.38-4.07,5.33-4.07,8.85l-3.85-10.67c8.29.15,19.29.22,33,.22,16.13,0,29.24-.35,39.33-1.04,10.08-.7,18.61-1.92,25.57-3.69l-4.29,28.6c-4.62-.15-11.9-.27-21.83-.38-9.94-.11-20.15-.17-30.63-.17h-10.89c-9.75,0-20.48.05-32.17.17-11.7.11-20.99.24-27.89.38.51-11.22,3.04-20.59,7.59-28.1Z"/>
    <path d="M1906.83,120.18c-9.97-1.06-18.19-2.58-24.64-4.56l19.14-25.3c5.5,2.42,11.4,4.22,17.71,5.39,6.31,1.17,13.57,1.76,21.78,1.76,6.16,0,11.07-.24,14.74-.71,3.67-.48,6.33-1.19,7.98-2.15,1.65-.95,2.47-2.2,2.47-3.74,0-1.39-.86-2.51-2.58-3.36-1.72-.84-4.51-1.47-8.36-1.87-3.85-.4-9.11-.6-15.78-.6s-13.13.2-19.58.6c-6.45.4-12.58,1.04-18.37,1.92-5.79.88-10.74,2.02-14.85,3.41l-4.62-2.2c1.83-8.14,3.5-17.64,5.01-28.49,1.5-10.85,2.29-19.51,2.36-25.96,11.37.44,28.56.66,51.59.66h14.96c17.38-.07,30.14-.29,38.28-.66l4.18,26.51c-6.6-1.46-14.65-2.51-24.15-3.13-9.5-.62-20.48-.93-32.95-.93h-10.12c-11.59.15-18.22.29-19.91.44l7.15-2.97c-.88,3.08-1.5,6.12-1.87,9.13-.15.95-.26,1.87-.33,2.75-.07.88-.15,1.72-.22,2.53l-7.7-.99c5.13-1.47,11.17-2.6,18.1-3.41,6.93-.81,13.88-1.21,20.84-1.21,13.35,0,24.09,1.01,32.23,3.02,8.14,2.02,14.04,5,17.71,8.97,3.67,3.96,5.5,8.95,5.5,14.96s-1.91,11.5-5.72,16.22c-3.81,4.73-10.38,8.51-19.69,11.33-9.31,2.82-21.78,4.24-37.4,4.24-11.95,0-22.92-.53-32.89-1.6Z"/>
  </g>
  <g>
    <path class="cls-1" d="M183.91,116.44c-10.19-3.56-17.86-8.67-22.99-15.34-5.13-6.67-7.7-14.63-7.7-23.87s2.57-17.2,7.7-23.87c5.13-6.67,12.8-11.79,22.99-15.34,10.19-3.56,22.73-5.33,37.62-5.33s27.41,1.78,37.56,5.33c10.16,3.56,17.78,8.67,22.88,15.34,5.1,6.67,7.65,14.67,7.65,23.98s-2.55,17.29-7.65,23.93c-5.1,6.64-12.72,11.71-22.88,15.23-10.16,3.52-22.68,5.28-37.56,5.28s-27.43-1.78-37.62-5.34ZM238.63,94.38c4.73-1.47,8.32-3.63,10.78-6.49,2.46-2.86,3.69-6.38,3.69-10.56s-1.23-7.72-3.69-10.61c-2.46-2.9-6.05-5.1-10.78-6.6-4.73-1.5-10.43-2.25-17.1-2.25s-12.48.75-17.21,2.25c-4.73,1.5-8.34,3.69-10.83,6.54-2.49,2.86-3.74,6.38-3.74,10.56s1.25,7.7,3.74,10.56c2.49,2.86,6.1,5.04,10.83,6.54,4.73,1.5,10.47,2.25,17.21,2.25s12.38-.73,17.1-2.2Z"/>
    <path class="cls-1" d="M322.62,120.18c-9.97-1.06-18.19-2.58-24.64-4.56l19.14-25.3c5.5,2.42,11.4,4.22,17.71,5.39,6.31,1.17,13.57,1.76,21.78,1.76,6.16,0,11.07-.24,14.74-.71,3.67-.48,6.33-1.19,7.98-2.15,1.65-.95,2.48-2.2,2.48-3.74,0-1.39-.86-2.51-2.58-3.36-1.72-.84-4.51-1.47-8.36-1.87-3.85-.4-9.11-.6-15.79-.6s-13.13.2-19.58.6c-6.45.4-12.58,1.04-18.37,1.92-5.79.88-10.74,2.02-14.85,3.41l-4.62-2.2c1.83-8.14,3.5-17.64,5-28.49,1.5-10.85,2.29-19.51,2.37-25.96,11.37.44,28.56.66,51.59.66h14.96c17.38-.07,30.14-.29,38.28-.66l4.18,26.51c-6.6-1.46-14.65-2.51-24.15-3.13-9.5-.62-20.48-.93-32.94-.93h-10.12c-11.59.15-18.22.29-19.91.44l7.15-2.97c-.88,3.08-1.5,6.12-1.87,9.13-.15.95-.26,1.87-.33,2.75-.07.88-.15,1.72-.22,2.53l-7.7-.99c5.13-1.47,11.17-2.6,18.09-3.41,6.93-.81,13.88-1.21,20.85-1.21,13.35,0,24.09,1.01,32.23,3.02,8.14,2.02,14.04,5,17.71,8.97,3.67,3.96,5.5,8.95,5.5,14.96s-1.91,11.5-5.72,16.22c-3.81,4.73-10.38,8.51-19.69,11.33-9.31,2.82-21.78,4.24-37.4,4.24-11.95,0-22.92-.53-32.89-1.6Z"/>
    <path class="cls-1" d="M468.26,119.57h-39.27c.88-9.97.88-19.95,0-29.92h39.27c-.88,9.97-.88,19.95,0,29.92Z"/>
    <path class="cls-1" d="M506.98,116.44c-10.19-3.56-17.86-8.67-22.99-15.34-5.13-6.67-7.7-14.63-7.7-23.87s2.57-17.2,7.7-23.87c5.13-6.67,12.8-11.79,22.99-15.34,10.19-3.56,22.73-5.33,37.62-5.33s27.41,1.78,37.56,5.33c10.16,3.56,17.78,8.67,22.88,15.34,5.1,6.67,7.65,14.67,7.65,23.98s-2.55,17.29-7.65,23.93c-5.1,6.64-12.72,11.71-22.88,15.23-10.16,3.52-22.68,5.28-37.56,5.28s-27.43-1.78-37.62-5.34ZM561.7,94.38c4.73-1.47,8.32-3.63,10.78-6.49,2.46-2.86,3.69-6.38,3.69-10.56s-1.23-7.72-3.69-10.61c-2.46-2.9-6.05-5.1-10.78-6.6-4.73-1.5-10.43-2.25-17.1-2.25s-12.48.75-17.21,2.25c-4.73,1.5-8.34,3.69-10.83,6.54-2.49,2.86-3.74,6.38-3.74,10.56s1.25,7.7,3.74,10.56c2.49,2.86,6.1,5.04,10.83,6.54,4.73,1.5,10.47,2.25,17.21,2.25s12.38-.73,17.1-2.2Z"/>
    <path class="cls-1" d="M712.23,34.54c7.55,1.25,13.79,3.08,18.7,5.5,4.91,2.42,8.8,5.43,11.66,9.02,2.71,3.37,4.66,7.24,5.83,11.61,1.17,4.36,1.76,9.04,1.76,14.03,0,1.39-.05,2.79-.17,4.18-.11,1.39-.24,2.75-.38,4.07-1.25,8.8-4.66,16.06-10.23,21.78-5.57,5.72-13.44,9.99-23.6,12.81-10.16,2.82-22.75,4.24-37.78,4.24-10.56,0-20.75-.61-30.58-1.82-9.83-1.21-17.49-2.66-22.99-4.34l18.15-24.09c4.55,2.2,9.7,3.92,15.45,5.17,5.76,1.25,12.89,1.87,21.4,1.87,7.92,0,14.35-.62,19.31-1.87,4.95-1.25,8.69-3.15,11.22-5.72,2.53-2.57,4.09-5.94,4.67-10.12h-2.31c-3.59,3.45-8.67,6.07-15.23,7.87-6.56,1.8-15.16,2.69-25.79,2.69-11.66,0-21.29-1.06-28.88-3.19-7.59-2.13-13.24-5.24-16.94-9.35-3.7-4.11-5.56-9.13-5.56-15.07,0-6.38,2.16-11.86,6.49-16.45,4.33-4.58,11.31-8.18,20.96-10.78,9.64-2.6,22.17-3.91,37.56-3.91,10.63,0,19.73.62,27.28,1.87ZM667.79,56.65c-4.18.59-7.11,1.45-8.8,2.59-1.69,1.14-2.53,2.51-2.53,4.12s.84,2.99,2.53,4.12c1.69,1.14,4.62,2.02,8.8,2.64,4.18.62,9.9.93,17.16.93s13.04-.31,17.33-.93c4.29-.62,7.31-1.49,9.08-2.58,1.76-1.1,2.64-2.46,2.64-4.07s-.88-3.08-2.64-4.18c-1.76-1.1-4.79-1.96-9.08-2.59-4.29-.62-10.06-.93-17.33-.93s-12.98.29-17.16.88Z"/>
    <path class="cls-1" d="M797.7,119.57h-39.27c.88-9.97.88-19.95,0-29.92h39.27c-.88,9.97-.88,19.95,0,29.92Z"/>
    <path class="cls-1" d="M853.25,78.43c20.97,0,35.46-.33,43.45-.99v25.96c-6.89-.66-21.38-.99-43.45-.99-19.58,0-34.06.29-43.45.88v-25.85c8.51.66,22.99.99,43.45.99Z"/>
    <path class="cls-1" d="M924.09,119.9c-10.05-1.25-18.52-2.97-25.41-5.17l19.25-24.2c4.84,2.35,10.72,4.09,17.65,5.22,6.93,1.14,15.9,1.71,26.9,1.71,6.6,0,11.66-.22,15.18-.66,3.52-.44,5.92-1.06,7.21-1.87,1.28-.81,1.92-1.87,1.92-3.19,0-.95-.38-1.74-1.15-2.36-.77-.62-2.29-1.16-4.57-1.59-2.27-.44-5.57-.7-9.9-.77l-5.28-.11c-4.91,0-10.34.07-16.28.22-5.94.15-12.14.33-18.59.55v-21.78c5.94.22,11.84.37,17.71.44,5.87.07,11.59.11,17.16.11h5.17c5.79,0,9.73-.37,11.83-1.1,2.09-.73,3.13-1.83,3.13-3.3,0-1.25-.73-2.26-2.2-3.03-1.47-.77-3.85-1.34-7.15-1.71-3.3-.37-7.74-.55-13.31-.55-9.61,0-18.08.55-25.41,1.65-7.33,1.1-13.68,2.57-19.03,4.4l-15.73-23.65c7.99-1.91,17.33-3.46,28-4.67,10.67-1.21,21.83-1.82,33.5-1.82,15.03,0,26.77,1.06,35.2,3.19,8.43,2.13,14.19,4.88,17.27,8.25s4.62,7.26,4.62,11.66c0,3.15-.75,5.92-2.25,8.3-1.5,2.38-3.7,4.42-6.6,6.1-2.9,1.69-6.43,3.01-10.62,3.96v1.32c4.91.95,8.97,2.25,12.16,3.9,3.19,1.65,5.57,3.72,7.15,6.21,1.58,2.49,2.37,5.46,2.37,8.91,0,5.13-1.91,9.72-5.72,13.75-3.81,4.04-10.61,7.3-20.4,9.79s-23.16,3.74-40.1,3.74c-12.39,0-23.61-.62-33.66-1.87Z"/>
    <path class="cls-1" d="M1079.8,104.89c.33-5.54.5-13.18.5-22.93v-1.98c-.07-2.71-.2-5.65-.38-8.8-.18-3.15-.42-6.23-.72-9.24l1.1.66c-2.05.81-4.16,1.67-6.33,2.58-2.16.92-4.34,1.89-6.54,2.92-13.2,6.01-24.75,12.14-34.65,18.37l-3.3-33.22c7.7-1.83,15.79-4.34,24.25-7.54,8.47-3.19,17.29-6.8,26.46-10.83h37.18c-.66,4.91-1.14,10.49-1.43,16.72-.29,6.23-.44,14.78-.44,25.63s.17,19.47.5,25.85c.33,6.38.86,11.88,1.59,16.5h-39.38c.73-4.25,1.26-9.15,1.59-14.68Z"/>
    <path class="cls-1" d="M1170.16,119.57h-39.27c.88-9.97.88-19.95,0-29.92h39.27c-.88,9.97-.88,19.95,0,29.92Z"/>
    <path class="cls-1" d="M1224.45,104.89c.33-5.54.5-13.18.5-22.93v-1.98c-.07-2.71-.2-5.65-.38-8.8-.18-3.15-.42-6.23-.72-9.24l1.1.66c-2.05.81-4.16,1.67-6.33,2.58-2.16.92-4.34,1.89-6.54,2.92-13.2,6.01-24.75,12.14-34.65,18.37l-3.3-33.22c7.7-1.83,15.79-4.34,24.25-7.54,8.47-3.19,17.29-6.8,26.46-10.83h37.18c-.66,4.91-1.14,10.49-1.43,16.72-.29,6.23-.44,14.78-.44,25.63s.17,19.47.5,25.85c.33,6.38.86,11.88,1.59,16.5h-39.38c.73-4.25,1.26-9.15,1.59-14.68Z"/>
    <path class="cls-1" d="M1302.82,116.44c-10.19-3.56-17.86-8.67-22.99-15.34-5.13-6.67-7.7-14.63-7.7-23.87s2.57-17.2,7.7-23.87c5.13-6.67,12.8-11.79,22.99-15.34,10.19-3.56,22.73-5.33,37.62-5.33s27.41,1.78,37.56,5.33c10.16,3.56,17.78,8.67,22.88,15.34,5.1,6.67,7.65,14.67,7.65,23.98s-2.55,17.29-7.65,23.93c-5.1,6.64-12.72,11.71-22.88,15.23-10.16,3.52-22.68,5.28-37.56,5.28s-27.43-1.78-37.62-5.34ZM1357.54,94.38c4.73-1.47,8.32-3.63,10.78-6.49,2.46-2.86,3.68-6.38,3.68-10.56s-1.23-7.72-3.68-10.61c-2.46-2.9-6.05-5.1-10.78-6.6-4.73-1.5-10.43-2.25-17.1-2.25s-12.49.75-17.22,2.25c-4.73,1.5-8.34,3.69-10.83,6.54-2.49,2.86-3.74,6.38-3.74,10.56s1.25,7.7,3.74,10.56c2.49,2.86,6.11,5.04,10.83,6.54,4.73,1.5,10.47,2.25,17.22,2.25s12.38-.73,17.1-2.2Z"/>
    <path class="cls-1" d="M1455.83,119.57h-39.27c.88-9.97.88-19.95,0-29.92h39.27c-.88,9.97-.88,19.95,0,29.92Z"/>
    <path class="cls-1" d="M1474.97,91.91c4.55-7.52,11.33-13.37,20.35-17.54,9.02-4.18,20.42-6.67,34.21-7.48,1.54-.07,2.7-.15,3.46-.22.77-.07,1.89-.15,3.36-.22,6.01-.37,10.43-.73,13.25-1.1,2.82-.37,4.73-.83,5.72-1.38s1.49-1.38,1.49-2.48-.75-2.02-2.25-2.75c-1.5-.73-3.89-1.28-7.15-1.65-3.26-.37-7.57-.55-12.92-.55-7.33,0-13.09.44-17.27,1.32-4.18.88-7.15,2.07-8.91,3.57-1.76,1.5-2.9,3.32-3.41,5.45l-37.62-7.26c2.49-5.43,6.36-10.12,11.6-14.08,5.24-3.96,12.39-7.1,21.45-9.41,9.06-2.31,20.26-3.46,33.61-3.46,15.4,0,27.44,1.36,36.13,4.07,8.69,2.71,14.61,6.16,17.76,10.34,3.15,4.18,4.73,8.88,4.73,14.08,0,6.01-1.6,10.84-4.79,14.47-3.19,3.63-8.07,6.43-14.63,8.42-6.56,1.98-15.24,3.48-26.02,4.51-1.47.15-2.99.29-4.56.44-1.58.15-3.17.26-4.79.33-8.29.59-15.12,1.54-20.51,2.86-5.39,1.32-9.44,3.17-12.16,5.56-2.71,2.38-4.07,5.33-4.07,8.85l-3.85-10.67c8.29.15,19.29.22,33,.22,16.13,0,29.24-.35,39.33-1.04,10.08-.7,18.61-1.92,25.57-3.69l-4.29,28.6c-4.62-.15-11.9-.27-21.83-.38-9.94-.11-20.15-.17-30.63-.17h-10.89c-9.75,0-20.48.05-32.17.17-11.7.11-20.99.24-27.89.38.51-11.22,3.04-20.59,7.59-28.1Z"/>
    <path class="cls-1" d="M1633.48,116.44c-10.19-3.56-17.86-8.67-22.99-15.34-5.13-6.67-7.7-14.63-7.7-23.87s2.57-17.2,7.7-23.87c5.13-6.67,12.8-11.79,22.99-15.34,10.19-3.56,22.73-5.33,37.62-5.33s27.41,1.78,37.56,5.33c10.16,3.56,17.78,8.67,22.88,15.34,5.1,6.67,7.65,14.67,7.65,23.98s-2.55,17.29-7.65,23.93c-5.1,6.64-12.72,11.71-22.88,15.23-10.16,3.52-22.68,5.28-37.56,5.28s-27.43-1.78-37.62-5.34ZM1688.2,94.38c4.73-1.47,8.32-3.63,10.78-6.49,2.46-2.86,3.68-6.38,3.68-10.56s-1.23-7.72-3.68-10.61c-2.46-2.9-6.05-5.1-10.78-6.6-4.73-1.5-10.43-2.25-17.1-2.25s-12.49.75-17.22,2.25c-4.73,1.5-8.34,3.69-10.83,6.54-2.49,2.86-3.74,6.38-3.74,10.56s1.25,7.7,3.74,10.56c2.49,2.86,6.11,5.04,10.83,6.54,4.73,1.5,10.47,2.25,17.22,2.25s12.38-.73,17.1-2.2Z"/>
    <path class="cls-1" d="M1752.94,91.91c4.55-7.52,11.33-13.37,20.35-17.54,9.02-4.18,20.42-6.67,34.21-7.48,1.54-.07,2.7-.15,3.46-.22.77-.07,1.89-.15,3.36-.22,6.01-.37,10.43-.73,13.25-1.1,2.82-.37,4.73-.83,5.72-1.38s1.49-1.38,1.49-2.48-.75-2.02-2.25-2.75c-1.5-.73-3.89-1.28-7.15-1.65-3.26-.37-7.57-.55-12.92-.55-7.33,0-13.09.44-17.27,1.32-4.18.88-7.15,2.07-8.91,3.57-1.76,1.5-2.9,3.32-3.41,5.45l-37.62-7.26c2.49-5.43,6.36-10.12,11.6-14.08,5.24-3.96,12.39-7.1,21.45-9.41,9.06-2.31,20.26-3.46,33.61-3.46,15.4,0,27.44,1.36,36.13,4.07,8.69,2.71,14.61,6.16,17.76,10.34,3.15,4.18,4.73,8.88,4.73,14.08,0,6.01-1.6,10.84-4.79,14.47-3.19,3.63-8.07,6.43-14.63,8.42-6.56,1.98-15.24,3.48-26.02,4.51-1.47.15-2.99.29-4.56.44-1.58.15-3.17.26-4.79.33-8.29.59-15.12,1.54-20.51,2.86-5.39,1.32-9.44,3.17-12.16,5.56-2.71,2.38-4.07,5.33-4.07,8.85l-3.85-10.67c8.29.15,19.29.22,33,.22,16.13,0,29.24-.35,39.33-1.04,10.08-.7,18.61-1.92,25.57-3.69l-4.29,28.6c-4.62-.15-11.9-.27-21.83-.38-9.94-.11-20.15-.17-30.63-.17h-10.89c-9.75,0-20.48.05-32.17.17-11.7.11-20.99.24-27.89.38.51-11.22,3.04-20.59,7.59-28.1Z"/>
    <path class="cls-1" d="M1906.83,120.18c-9.97-1.06-18.19-2.58-24.64-4.56l19.14-25.3c5.5,2.42,11.4,4.22,17.71,5.39,6.31,1.17,13.57,1.76,21.78,1.76,6.16,0,11.07-.24,14.74-.71,3.67-.48,6.33-1.19,7.98-2.15,1.65-.95,2.47-2.2,2.47-3.74,0-1.39-.86-2.51-2.58-3.36-1.72-.84-4.51-1.47-8.36-1.87-3.85-.4-9.11-.6-15.78-.6s-13.13.2-19.58.6c-6.45.4-12.58,1.04-18.37,1.92-5.79.88-10.74,2.02-14.85,3.41l-4.62-2.2c1.83-8.14,3.5-17.64,5.01-28.49,1.5-10.85,2.29-19.51,2.36-25.96,11.37.44,28.56.66,51.59.66h14.96c17.38-.07,30.14-.29,38.28-.66l4.18,26.51c-6.6-1.46-14.65-2.51-24.15-3.13-9.5-.62-20.48-.93-32.95-.93h-10.12c-11.59.15-18.22.29-19.91.44l7.15-2.97c-.88,3.08-1.5,6.12-1.87,9.13-.15.95-.26,1.87-.33,2.75-.07.88-.15,1.72-.22,2.53l-7.7-.99c5.13-1.47,11.17-2.6,18.1-3.41,6.93-.81,13.88-1.21,20.84-1.21,13.35,0,24.09,1.01,32.23,3.02,8.14,2.02,14.04,5,17.71,8.97,3.67,3.96,5.5,8.95,5.5,14.96s-1.91,11.5-5.72,16.22c-3.81,4.73-10.38,8.51-19.69,11.33-9.31,2.82-21.78,4.24-37.4,4.24-11.95,0-22.92-.53-32.89-1.6Z"/>
  </g>
</svg>