<?xml version="1.0" encoding="UTF-8"?>
<svg id="Layer_1" data-name="Layer 1" xmlns="http://www.w3.org/2000/svg" xmlns:xlink="http://www.w3.org/1999/xlink" viewBox="0 0 2732.14 320.75">
  <defs>
    <style>
      .cls-1, .cls-2, .cls-3 {
        fill: none;
      }

      .cls-4, .cls-2, .cls-5 {
        font-family: Gauche0424-Italic, 'Gauche 0424';
        font-size: 45px;
        font-style: italic;
      }

      .cls-6, .cls-7, .cls-3 {
        font-family: 'Tonka_Beta_2000-ExtraBoldExtended', Tonka_Beta_2000;
        font-size: 79.34px;
        font-variation-settings: 'wght' 800, 'ital' 0, 'wdth' 300;
        font-weight: 700;
      }

      .cls-6, .cls-5 {
        fill: #fff;
      }

      .cls-8 {
        letter-spacing: 0em;
      }

      .cls-9 {
        letter-spacing: 0em;
      }

      .cls-2 {
        stroke-width: 28px;
      }

      .cls-2, .cls-3 {
        stroke: #000;
        stroke-linejoin: round;
      }

      .cls-10 {
        letter-spacing: -.06em;
      }

      .cls-11 {
        letter-spacing: -.07em;
      }

      .cls-12 {
        letter-spacing: -.02em;
      }

      .cls-13 {
        letter-spacing: -.02em;
      }

      .cls-14 {
        letter-spacing: -.02em;
      }

      .cls-15 {
        letter-spacing: -.02em;
      }

      .cls-16 {
        letter-spacing: -.02em;
      }

      .cls-17 {
        letter-spacing: -.02em;
      }

      .cls-18 {
        letter-spacing: -.02em;
      }

      .cls-19 {
        letter-spacing: -.01em;
      }

      .cls-20 {
        letter-spacing: -.01em;
      }

      .cls-21 {
        letter-spacing: -.01em;
      }

      .cls-22 {
        letter-spacing: -.04em;
      }

      .cls-23 {
        letter-spacing: -.05em;
      }

      .cls-24 {
        letter-spacing: -.03em;
      }

      .cls-25 {
        letter-spacing: -.03em;
      }

      .cls-26 {
        letter-spacing: 0em;
      }

      .cls-27 {
        letter-spacing: 0em;
      }

      .cls-28 {
        letter-spacing: 0em;
      }

      .cls-29 {
        letter-spacing: 0em;
      }

      .cls-30 {
        letter-spacing: -.01em;
      }

      .cls-31 {
        letter-spacing: 0em;
      }

      .cls-32 {
        letter-spacing: 0em;
      }

      .cls-33 {
        letter-spacing: 0em;
      }

      .cls-34 {
        letter-spacing: 0em;
      }

      .cls-3 {
        stroke-width: 40px;
      }

      .cls-35 {
        clip-path: url(#clippath);
      }

      .cls-36 {
        letter-spacing: .01em;
      }

      .cls-37 {
        letter-spacing: 0em;
      }

      .cls-38 {
        letter-spacing: .01em;
      }

      .cls-39 {
        letter-spacing: .01em;
      }
    </style>
    <clipPath id="clippath">
      <rect class="cls-1" x="14.02" y="10.87" width="2704.38" height="257.34"/>
    </clipPath>
  </defs>
  <text class="cls-3" transform="translate(585.18 268.22)"><tspan class="cls-17" x="0" y="0">0</tspan><tspan class="cls-37" x="104.01" y="0">5</tspan><tspan class="cls-12" x="198.19" y="0">.0</tspan><tspan class="cls-25" x="336.48" y="0">9</tspan><tspan class="cls-38" x="435.82" y="0">.</tspan><tspan class="cls-22" x="473.42" y="0">–</tspan><tspan class="cls-18" x="539.99" y="0">3</tspan><tspan class="cls-39" x="633.14" y="0">1</tspan><tspan class="cls-23" x="704.46" y="0">.</tspan><tspan class="cls-30" x="737.47" y="0">1</tspan><tspan class="cls-12" x="807.05" y="0">0</tspan><tspan class="cls-36" x="910.51" y="0">.</tspan><tspan class="cls-19" x="948.35" y="0">2</tspan><tspan class="cls-24" x="1045.55" y="0">0</tspan><tspan class="cls-29" x="1148.85" y="0">2</tspan><tspan x="1246.67" y="0">5</tspan></text>
  <text class="cls-7" transform="translate(585.18 268.22)"><tspan class="cls-17" x="0" y="0">0</tspan><tspan class="cls-37" x="104.01" y="0">5</tspan><tspan class="cls-12" x="198.19" y="0">.0</tspan><tspan class="cls-25" x="336.48" y="0">9</tspan><tspan class="cls-38" x="435.82" y="0">.</tspan><tspan class="cls-22" x="473.42" y="0">–</tspan><tspan class="cls-18" x="539.99" y="0">3</tspan><tspan class="cls-39" x="633.14" y="0">1</tspan><tspan class="cls-23" x="704.46" y="0">.</tspan><tspan class="cls-30" x="737.47" y="0">1</tspan><tspan class="cls-12" x="807.05" y="0">0</tspan><tspan class="cls-36" x="910.51" y="0">.</tspan><tspan class="cls-19" x="948.35" y="0">2</tspan><tspan class="cls-24" x="1045.55" y="0">0</tspan><tspan class="cls-29" x="1148.85" y="0">2</tspan><tspan x="1246.67" y="0">5</tspan></text>
  <text class="cls-3" transform="translate(1324.72 90.25)"><tspan class="cls-10" x="0" y="0">T</tspan><tspan x="95.29" y="0">a</tspan><tspan class="cls-34" x="184.39" y="0">l</tspan><tspan class="cls-31" x="219.77" y="0">l</tspan><tspan class="cls-8" x="255.32" y="0">i</tspan><tspan class="cls-28" x="290.78" y="0">n</tspan><tspan class="cls-8" x="378.37" y="0">n </tspan><tspan class="cls-13" x="493.41" y="0">P</tspan><tspan class="cls-16" x="587.51" y="0">h</tspan><tspan class="cls-32" x="674.63" y="0">o</tspan><tspan class="cls-15" x="761.98" y="0">t</tspan><tspan class="cls-19" x="832.51" y="0">o</tspan><tspan class="cls-16" x="919.07" y="0">m</tspan><tspan class="cls-19" x="1053.79" y="0">o</tspan><tspan class="cls-15" x="1140.35" y="0">n</tspan><tspan x="1227.23" y="0">th</tspan></text>
  <text class="cls-7" transform="translate(1324.72 90.25)"><tspan class="cls-10" x="0" y="0">T</tspan><tspan x="95.29" y="0">a</tspan><tspan class="cls-34" x="184.39" y="0">l</tspan><tspan class="cls-31" x="219.77" y="0">l</tspan><tspan class="cls-8" x="255.32" y="0">i</tspan><tspan class="cls-28" x="290.78" y="0">n</tspan><tspan class="cls-8" x="378.37" y="0">n </tspan><tspan class="cls-13" x="493.41" y="0">P</tspan><tspan class="cls-16" x="587.51" y="0">h</tspan><tspan class="cls-32" x="674.63" y="0">o</tspan><tspan class="cls-15" x="761.98" y="0">t</tspan><tspan class="cls-19" x="832.51" y="0">o</tspan><tspan class="cls-16" x="919.07" y="0">m</tspan><tspan class="cls-19" x="1053.79" y="0">o</tspan><tspan class="cls-15" x="1140.35" y="0">n</tspan><tspan x="1227.23" y="0">th</tspan></text>
  <text class="cls-2" transform="translate(1689.57 154.22)"><tspan x="0" y="0">Contemporary art biennial</tspan></text>
  <rect class="cls-1" x="14.02" y="10.87" width="2704.38" height="257.34"/>
  <text class="cls-4" transform="translate(1689.57 154.22)"><tspan x="0" y="0">Contemporary art biennial</tspan></text>
  <g class="cls-35">
    <text class="cls-6" transform="translate(1324.7 90.22)"><tspan class="cls-10" x="0" y="0">T</tspan><tspan x="95.29" y="0">a</tspan><tspan class="cls-34" x="184.39" y="0">l</tspan><tspan class="cls-31" x="219.77" y="0">l</tspan><tspan class="cls-8" x="255.32" y="0">i</tspan><tspan class="cls-28" x="290.78" y="0">n</tspan><tspan class="cls-8" x="378.37" y="0">n </tspan><tspan class="cls-14" x="493.41" y="0">P</tspan><tspan class="cls-16" x="587.59" y="0">h</tspan><tspan class="cls-32" x="674.71" y="0">o</tspan><tspan class="cls-15" x="762.06" y="0">t</tspan><tspan class="cls-19" x="832.59" y="0">o</tspan><tspan class="cls-16" x="919.15" y="0">m</tspan><tspan class="cls-19" x="1053.87" y="0">o</tspan><tspan class="cls-15" x="1140.43" y="0">n</tspan><tspan x="1227.31" y="0">th</tspan></text>
  </g>
  <text class="cls-5" transform="translate(1689.57 154.22)"><tspan x="0" y="0">Contemporary art biennial</tspan></text>
  <text class="cls-3" transform="translate(20 90.22)"><tspan class="cls-10" x="0" y="0">T</tspan><tspan x="95.29" y="0">a</tspan><tspan class="cls-33" x="184.39" y="0">l</tspan><tspan class="cls-31" x="219.77" y="0">l</tspan><tspan x="255.32" y="0">i</tspan><tspan class="cls-26" x="290.78" y="0">n</tspan><tspan class="cls-21" x="378.37" y="0">n</tspan><tspan x="465.33" y="0">a </tspan><tspan class="cls-11" x="581.4" y="0">F</tspan><tspan class="cls-33" x="665.26" y="0">o</tspan><tspan class="cls-15" x="752.62" y="0">t</tspan><tspan class="cls-20" x="823.15" y="0">o</tspan><tspan class="cls-9" x="909.63" y="0">k</tspan><tspan class="cls-27" x="1003.97" y="0">u</tspan><tspan x="1091.56" y="0">u</tspan></text>
  <text class="cls-7" transform="translate(20 90.22)"><tspan class="cls-10" x="0" y="0">T</tspan><tspan x="95.29" y="0">a</tspan><tspan class="cls-33" x="184.39" y="0">l</tspan><tspan class="cls-31" x="219.77" y="0">l</tspan><tspan x="255.32" y="0">i</tspan><tspan class="cls-26" x="290.78" y="0">n</tspan><tspan class="cls-21" x="378.37" y="0">n</tspan><tspan x="465.33" y="0">a </tspan><tspan class="cls-11" x="581.4" y="0">F</tspan><tspan class="cls-33" x="665.26" y="0">o</tspan><tspan class="cls-15" x="752.62" y="0">t</tspan><tspan class="cls-20" x="823.15" y="0">o</tspan><tspan class="cls-9" x="909.63" y="0">k</tspan><tspan class="cls-27" x="1003.97" y="0">u</tspan><tspan x="1091.56" y="0">u</tspan></text>
  <text class="cls-2" transform="translate(278.12 154.22)"><tspan x="0" y="0">Kaasaegse kunsti biennaal</tspan></text>
  <rect class="cls-1" x="14.02" y="10.87" width="2704.38" height="257.34"/>
  <text class="cls-4" transform="translate(278.12 154.22)"><tspan x="0" y="0">Kaasaegse kunsti biennaal</tspan></text>
  <text class="cls-6" transform="translate(20 90.22)"><tspan class="cls-10" x="0" y="0">T</tspan><tspan x="95.29" y="0">a</tspan><tspan class="cls-33" x="184.39" y="0">l</tspan><tspan class="cls-31" x="219.77" y="0">l</tspan><tspan x="255.32" y="0">i</tspan><tspan class="cls-26" x="290.78" y="0">n</tspan><tspan class="cls-21" x="378.37" y="0">n</tspan><tspan x="465.33" y="0">a </tspan><tspan class="cls-11" x="581.4" y="0">F</tspan><tspan class="cls-33" x="665.26" y="0">o</tspan><tspan class="cls-15" x="752.62" y="0">t</tspan><tspan class="cls-20" x="823.15" y="0">o</tspan><tspan class="cls-9" x="909.63" y="0">k</tspan><tspan class="cls-27" x="1003.97" y="0">u</tspan><tspan x="1091.56" y="0">u</tspan></text>
  <rect class="cls-1" x="14.02" y="10.87" width="2704.38" height="257.34"/>
  <text class="cls-5" transform="translate(278.12 154.22)"><tspan x="0" y="0">Kaasaegse kunsti biennaal</tspan></text>
  <text class="cls-6" transform="translate(585.18 268.22)"><tspan class="cls-17" x="0" y="0">0</tspan><tspan class="cls-37" x="104.01" y="0">5</tspan><tspan class="cls-12" x="198.19" y="0">.0</tspan><tspan class="cls-25" x="336.48" y="0">9</tspan><tspan class="cls-38" x="435.82" y="0">.</tspan><tspan class="cls-22" x="473.42" y="0">–</tspan><tspan class="cls-18" x="539.99" y="0">3</tspan><tspan class="cls-39" x="633.14" y="0">1</tspan><tspan class="cls-23" x="704.46" y="0">.</tspan><tspan class="cls-30" x="737.47" y="0">1</tspan><tspan class="cls-12" x="807.05" y="0">0</tspan><tspan class="cls-36" x="910.51" y="0">.</tspan><tspan class="cls-19" x="948.35" y="0">2</tspan><tspan class="cls-24" x="1045.55" y="0">0</tspan><tspan class="cls-29" x="1148.85" y="0">2</tspan><tspan x="1246.67" y="0">5</tspan></text>
  <rect class="cls-1" x="14.02" y="10.87" width="2704.38" height="257.34"/>
</svg>